<svg width="541" height="453" viewBox="0 0 541 453" fill="none" xmlns="http://www.w3.org/2000/svg">
<path d="M311.398 295.96C250.553 326.758 190.94 345.658 143.752 351.329C120.157 354.164 99.689 353.689 83.7343 349.753C67.7782 345.817 56.3832 338.433 50.8427 327.487C45.3021 316.541 46.0986 302.986 52.3741 287.797C58.6491 272.609 70.3854 255.834 86.641 238.498C119.15 203.829 169.679 166.979 230.524 136.181C291.369 105.383 350.983 86.4826 398.17 80.8121C421.765 77.9767 442.233 78.4518 458.188 82.3876C474.144 86.3238 485.539 93.7077 491.08 104.654C496.62 115.6 495.824 129.155 489.548 144.344C483.273 159.532 471.537 176.307 455.281 193.643C422.772 228.312 372.244 265.162 311.398 295.96Z" stroke="#FFB4B7" stroke-width="0.719343"/>
<path d="M310.235 317.069C249.39 347.867 189.777 366.768 142.589 372.438C118.994 375.274 98.5259 374.799 82.5712 370.863C66.6151 366.927 55.2201 359.543 49.6796 348.597C44.139 337.651 44.9355 324.096 51.211 308.907C57.486 293.719 69.2223 276.943 85.4779 259.607C117.987 224.938 168.515 188.089 229.361 157.291C290.206 126.493 349.82 107.592 397.007 101.921C420.602 99.0861 441.07 99.5611 457.025 103.497C472.981 107.433 484.376 114.817 489.916 125.763C495.457 136.709 494.661 150.264 488.385 165.453C482.11 180.641 470.374 197.417 454.118 214.753C421.609 249.422 371.081 286.271 310.235 317.069Z" stroke="#FFB4B7" stroke-width="0.719343"/>
<path d="M493.96 135.591L493.735 135.499L493.566 135.674L490.775 138.549L492.287 134.838L492.378 134.613L492.204 134.444L489.328 131.653L493.04 133.165L493.265 133.256L493.434 133.082L496.225 130.206L494.713 133.918L494.622 134.142L494.796 134.311L497.672 137.103L493.96 135.591Z" fill="#FFB4B7" stroke="#FFB4B7" stroke-width="0.719343"/>
</svg>
