<svg width="25" height="20" viewBox="0 0 25 20" fill="none" xmlns="http://www.w3.org/2000/svg">
<path d="M13.8736 14.3845C13.6656 14.2285 13.5658 14.0401 13.5741 13.8191C13.5831 13.5981 13.6916 13.4097 13.8996 13.2537L16.8371 11.0505H5.24296C4.94834 11.0505 4.70121 10.9757 4.50156 10.8259C4.3026 10.6767 4.20312 10.4916 4.20312 10.2707C4.20312 10.0497 4.3026 9.86434 4.50156 9.71461C4.70121 9.56539 4.94834 9.49078 5.24296 9.49078H16.8371L13.8736 7.26814C13.6656 7.11216 13.5616 6.92681 13.5616 6.71209C13.5616 6.49788 13.6656 6.31279 13.8736 6.15681C14.0816 6.00084 14.3287 5.92285 14.615 5.92285C14.9006 5.92285 15.1474 6.00084 15.3554 6.15681L20.1126 9.72475C20.2166 9.80273 20.2904 9.88722 20.3341 9.97821C20.3771 10.0692 20.3985 10.1667 20.3985 10.2707C20.3985 10.3746 20.3771 10.4721 20.3341 10.5631C20.2904 10.6541 20.2166 10.7386 20.1126 10.8166L15.3294 14.404C15.1387 14.547 14.9006 14.6185 14.615 14.6185C14.3287 14.6185 14.0816 14.5405 13.8736 14.3845V14.3845Z" fill="#1E1E1E"/>
</svg>
