<svg width="26" height="26" viewBox="0 0 26 26" fill="none" xmlns="http://www.w3.org/2000/svg">
<path fill-rule="evenodd" clip-rule="evenodd" d="M10.2988 5.12377C10.2291 4.71056 10.1767 4.30203 10.1428 3.89346C10.0917 3.2806 10.1233 2.66306 10.1052 2.0502C10.0973 1.7902 10.0662 1.11236 10.0787 1.01486C10.1925 0.165213 10.8782 0.0351968 11.0788 0.0119825C11.1758 -0.00194606 12.1722 -0.113325 12.3871 0.991675C12.6509 2.34275 12.7354 3.70309 12.642 5.03559C12.8598 6.16844 13.2322 7.29663 13.7238 8.31806C15.6803 12.3806 19.4085 12.7752 23.4478 12.7381C24.069 12.7288 24.5849 13.2163 24.6174 13.8338C24.6499 14.4559 24.1874 14.9945 23.569 15.0502C21.3112 15.2684 17.3053 17.0792 15.9203 18.9642C15.6306 19.3588 15.4621 20.3106 15.2392 21.2438C14.9282 22.5392 14.5581 23.8206 14.1435 24.3592C14.0813 24.4427 13.325 25.297 13.0994 25.4224C12.5571 25.7195 12.123 25.5477 11.8764 25.3899C11.6299 25.232 11.3509 24.9209 11.2394 24.4056C11.1229 23.867 11.2213 22.762 11.2032 22.5252C11.1373 21.6663 10.9655 19.9809 10.615 18.5323C10.426 17.7523 10.2245 17.0327 9.89115 16.6752C8.65708 15.352 6.68386 15.547 5.02218 15.7652C4.83136 15.7884 4.64054 15.8163 4.45019 15.8395C3.77372 16.0392 3.05545 16.1877 2.29635 16.2759C1.15003 16.4106 0.961539 15.3566 0.951325 15.287C0.929968 15.1338 0.850566 14.3445 1.7146 14.0288C1.80885 13.9963 2.50436 13.8431 2.77225 13.7827C3.14554 13.6991 3.52299 13.6342 3.90185 13.5738C7.81532 12.3574 9.94082 8.9402 10.2988 5.12377ZM11.642 9.34417C13.1193 12.3992 15.3614 13.8756 18.0189 14.5441H18.0185C16.3591 15.4124 14.8497 16.4988 14.0497 17.5899C13.7461 18.0031 13.4675 18.8341 13.2164 19.7674C13.0803 18.8991 12.8965 17.9752 12.6537 17.1859C12.3774 16.2852 12.0055 15.5377 11.5904 15.092C10.7891 14.2331 9.78342 13.7549 8.7021 13.5181C9.99653 12.3713 10.978 10.9413 11.642 9.34417Z" fill="#FFA52D"/>
</svg>
