<?xml version="1.0" encoding="utf-8"?>
<!-- Generator: Adobe Illustrator 26.0.1, SVG Export Plug-In . SVG Version: 6.00 Build 0)  -->
<svg version="1.1" id="Слой_1" xmlns="http://www.w3.org/2000/svg" xmlns:xlink="http://www.w3.org/1999/xlink" x="0px" y="0px"
	 viewBox="0 0 768 768" style="enable-background:new 0 0 768 768;" xml:space="preserve">
<style type="text/css">
	.st0{fill:#FFB4B7;}
	.st1{fill:none;stroke:#FFB4B7;stroke-linecap:round;stroke-linejoin:round;stroke-miterlimit:10;}
	.st2{fill:none;stroke:#200F0D;stroke-linecap:round;stroke-linejoin:round;stroke-miterlimit:10;}
	.st3{fill:none;stroke:#000000;stroke-linecap:round;stroke-linejoin:round;stroke-miterlimit:10;}
	.st4{fill:none;stroke:#050505;stroke-linecap:round;stroke-linejoin:round;stroke-miterlimit:10;}
	.st5{fill:#0E0300;}
	.st6{font-family:'CormorantSC-Medium';}
	.st7{font-size:170.7017px;}
</style>
<g id="Слой_2_00000129166271865766022050000009994798577866888065_">
	<g>
		<path class="st0" d="M192,421.9c-0.1-10.6-0.6-21.7-5.2-31.4c-3.2-6.1-7.5-11.6-11.7-17c-1.6-2-3.4-3.6-4.8-5.6
			c-0.2-0.2-0.1-0.6,0.1-0.7c1.4-0.3,3,1,3.9,1.9c5.2,5.7,9.4,12.3,13.1,19c2.8,5.8,4.1,12.2,4.9,18.5c0.6,5.1,0.9,10.2,0.8,15.3
			C193,422.5,192,422.6,192,421.9L192,421.9z"/>
	</g>
	<path class="st1" d="M230.1,525.8"/>
	<path class="st1" d="M269.8,544.8"/>
	<g>
		<path class="st0" d="M381.2,563.9c-7.5,3.4-15,6.7-23,8.9c-1.1,0.3-2.7,0.6-3.8,0.7c-5.6,0.6-11.3,0.9-16.9,1
			c-5,0-10.1,0.2-15.1-0.9c-9.8-2.6-18.7-7.4-27.3-12.7c-4.3-2.6-8.3-5.7-12.4-8.6c-4.1-2.8-8.4-5.4-13.1-7.1
			c-0.3-0.1-0.4-0.4-0.3-0.6c0.1-0.3,0.4-0.4,0.7-0.3c7.1,2.7,13.3,7.2,19.3,11.6c10.1,7.2,21.1,13.7,33.2,16.6
			c4.8,1,9.9,0.7,14.8,0.5c6.2-0.3,12.4-0.8,18.5-1.9c8.4-2.2,16.2-6.2,23.9-10.1C381.6,560.2,383.1,562.9,381.2,563.9L381.2,563.9z
			"/>
	</g>
	<g>
		<path class="st0" d="M353,578.4c0.4,0.4,0.3,0.9,0.3,1.3c0.1,1.3,0,2.6-0.2,4c-0.3,1.8-1.2,3.5-2.5,4.7c-3.7,3.7-8.7,5.5-13.3,7.7
			c-1.5,0.8-2.8,1.8-4,2.9c-2.4,2.4-4.4,5.2-6.5,7.8c-4.6,4.5-10.9,7.2-17.3,7.2c-0.6,0-0.7-1,0-1c6.2,0.1,12.3-2.5,16.7-6.8
			c1.8-2.4,4.1-5.5,6.5-7.9c2.4-2.5,5.8-3.9,8.9-5.2c3-1.4,6-3.1,8.4-5.4c2.3-2,2.3-5.1,2.1-7.9c0-0.4-0.2-0.8,0-1.2
			C352.2,578.2,352.7,578.1,353,578.4L353,578.4z"/>
	</g>
	<g>
		<path class="st0" d="M311,613.4c-0.7,0.4-2.3,1.3-2.5,0c0-0.3,0.1-0.5,0.1-0.7c0.8-1.7,1.9-3.2,3-4.7c2.9-4.3,6.9-8,8.9-12.8
			c1.7-3.6,2.2-7.9,4.8-11c2.8-3,6.7-5,11-5.3c4.6,0,9.2,0.2,13.8,0l0.9,0l0.4,0c0.1,0,0.1,0,0.1,0c0,0-0.1,0-0.1,0.3
			c0-0.6,1-0.7,1,0c0,0.5-0.3,0.6-0.4,0.7c-0.3,0.2-0.6,0.3-0.9,0.4c-4.9,0.7-10,0.1-14.9,0.2c-4.8,0.4-10.1,3.2-11.8,8
			c-1.5,3.7-2.5,7.7-4.8,11c-3.1,4.3-6.6,8.2-9.5,12.6c-0.3,0.4-0.7,1.1-0.7,1.5c0,0,0-0.2-0.2-0.2c-0.1,0-0.1,0-0.1,0
			c0.1,0,0.2-0.1,0.4-0.1c0.5-0.1,1.1-0.8,1.5-0.2C311.3,612.9,311.2,613.2,311,613.4L311,613.4z"/>
	</g>
	<g>
		<path class="st0" d="M351.9,579.8c-2.6,2.9-5.4,6.4-9.5,7.3l-1.6,0.4c-3.1,0.8-6.7,1.3-9.1,3.6c-0.8,0.8-1.5,1.7-2.1,2.6
			c-2,2.6-4,5.6-5.9,8.3c-3.7,4.3-8.1,8-12.7,11.4c-0.6,0.4-1.1-0.5-0.5-0.9c4.8-2.7,9.2-6.6,12.6-11c1.8-2.8,3.8-5.8,5.7-8.4
			c0.7-0.9,1.4-1.8,2.1-2.7c2.5-2.5,6.3-3.1,9.5-4c2.2-0.5,4.2-1.2,5.9-2.6c1.7-1.4,3.2-3,4.8-4.7
			C351.6,578.7,352.3,579.4,351.9,579.8L351.9,579.8z"/>
	</g>
	<path class="st1" d="M353.5,572.5c0,0,0,5-2,7"/>
	<g>
		<path class="st0" d="M295,533c0,0-0.1,0-0.1,0C294.9,533.1,294.9,533,295,533c0-0.1,0.1-0.3,0-0.4c0.1,0.1,0.4,0.3,0.6,0.5
			c2.3,1.6,4.8,3.3,6.4,5.7c3.1,5.3,2,12.5,6.2,17.2c3.7,4.3,7.3,10.3,13.5,10.7c0.5,0,1.4,0.1,1.8,0.2c0.3,0.1,0.5,0.1,0.4,0.1
			c-0.1,0-0.1,0.1-0.1,0c0.2-1-0.2-2.1-0.6-3.2c-0.7-2.1-1.5-4.3-1.5-6.8c0.1-4.5,1.3-8.9,0.4-13.3c-1.1-4-4.3-7.8-8.1-9.4
			c-2.1-0.6-4.3-1.1-6.4-1.6c-3.2-0.6-6.6-1.5-9.8-0.9c-1,0.3-2.1,0.7-3.2,1.1c-0.3,0.1-0.5,0-0.6-0.3c-0.1-0.3,0-0.5,0.3-0.7
			c1.1-0.3,2.1-0.7,3.3-1c3.4-0.7,6.9,0.1,10.2,0.6c2.2,0.4,4.5,0.8,6.7,1.5c4.4,1.8,7.4,6,8.5,10.5c0.8,4.5,0.4,9.1,0.3,13.5
			c0,1,0.1,2,0.4,3.1c0.4,2.2,3.8,9.5-1.2,7.9c-2.6-0.1-5.3-0.7-7.6-2.1c-4.1-2.4-6.4-6.6-8.8-10.5c-2-4.2-2.3-8.7-3.9-13
			c-0.9-3.2-3.5-5.4-6-7.4c-0.7-0.6-1.4-1-2-1.7c-0.2-0.2-0.4-0.7-0.1-1c0.4-0.4,0.5-0.3,0.7-0.4c0.2-0.1,0.5,0,0.6,0.3
			C295.6,532.7,295.3,533,295,533L295,533z"/>
	</g>
	<g>
		<path class="st0" d="M323.2,568.1c-2.9-3-4.7-6.9-6.1-10.8c-2.8-9-1.7-15.1-11.1-20.2c-2.6-1.5-5.3-3-8.2-3.8
			c-0.9-0.3-2-0.5-2.8-0.2c-0.7,0.2-1-1-0.1-1c2.2,0.1,4.1,0.7,6.1,1.5c3.8,1.6,7.4,3.6,10.6,6.3c4.9,4.3,4.9,11.3,6.7,17
			c0.9,2.9,2.2,5.6,3.8,8.1c0.5,0.8,1.2,1.7,1.9,2.4C324.4,567.9,323.7,568.6,323.2,568.1L323.2,568.1z"/>
	</g>
	<g>
		<path class="st0" d="M333.3,574c-3.6-1.5-6.9-3.6-10.1-5.9c-0.2-0.1-0.4-0.5-0.2-0.7c0.2-0.4,0.7-0.4,0.9,0
			c0.5,0.8,1.3,1.3,2.1,1.9c2.4,1.6,5,2.8,7.7,3.8C334.3,573.2,334,574.2,333.3,574L333.3,574z"/>
	</g>
	<g>
		<path class="st0" d="M244,596.2c-0.2-0.4,0-0.7,0.2-1c2.5-3.4,6.1-6,8.3-9.6c0.9-1.2,1-2.6,1.4-4c0.9-2.9,2.1-5.7,3.9-8.2
			c1.7-2.6,4.7-4.5,7.6-5.1c5.1-1.2,10.6-2.2,15.9-1.1c3.9,1.6,10.3,4.8,14.2,6.4c0.5,0.3,2.4,1,3,1.2c0.1,0,0.3,0.1,0.4,0.2
			c0.1,0,0.2,0,0.2,0.1c0.5-0.4,1.1,0.4,0.6,0.8c-0.4,0.2-0.6,0.3-0.9,0.3c-2.9,0-5.5-1.6-8.1-2.7l-8-3.8c-1.3-0.6-2.4-1.1-3.9-1.2
			c-4.3-0.2-8.7,0.4-12.9,1.4c-2.9,0.6-5.1,2-6.8,4.4c-2.1,2.9-3.5,6.3-4.4,9.8c-0.7,2.3-2.4,4-3.9,5.7c-1.9,2.1-4.1,3.8-5.8,6.1
			c0,0.1,0-0.1,0-0.1C245.2,596.4,244.3,596.8,244,596.2L244,596.2z"/>
	</g>
	<g>
		<path class="st0" d="M300.6,575.8c-0.3,0.1-0.6,0.2-1,0.2c0,0-0.2,0,0,0c0.3-0.2,0.1-0.1,0.1,0c-3.6,4.6-7.9,9.1-13.6,10.8
			c-2,0-4-0.3-5.9-0.4c-1.9-0.1-3.8-0.2-5.6-0.2c-1.9,0-3.3,0.3-4.8,1.7c-2.9,2.4-5.5,5.2-8.5,7.5c-0.8,0.6-1.7,1.2-2.7,1.4
			c-4.5,0.8-9.2,1-13.7,0c-0.4-0.2-0.6-0.1-0.9-0.6c-0.3-0.6,0.6-1,0.9-0.4c-0.1-0.1,0-0.1,0-0.1c0.1,0,0.2,0,0.3,0.1
			c3.4,0.4,6.9,0.3,10.4,0c1.8-0.1,3.5-0.3,4.9-1.6c3-2.2,5.6-5,8.5-7.4c0.8-0.6,1.5-1.2,2.6-1.6c4.4-0.9,10.6-0.2,14.1-0.1
			c5.3-1.8,9.5-5.8,13.2-9.9l0,0c0,0,0.1-0.1,0.2-0.2c0.5-0.1,0.6,0,1-0.2C300.9,574.7,301.2,575.5,300.6,575.8L300.6,575.8z"/>
	</g>
	<g>
		<path class="st0" d="M309.9,568.8c-2.2,1.9-4.2,3.9-6.7,5.4c-0.8,0.6-1.7,0.8-2.5,1.5c-0.2,0.2-0.6,0.2-0.8,0
			c-0.3-0.3,0-1,0.5-0.9c0.9,0,1.7-0.7,2.5-1.2c2.2-1.7,4.5-3.4,6.4-5.5C309.6,567.7,310.4,568.4,309.9,568.8L309.9,568.8z"/>
	</g>
	<path class="st1" d="M252.5,514.5c2,2,11,7,14,11s5,6,8,13s9.4,13.9,9.4,13.9"/>
	<path class="st1" d="M288.5,555.5c0,0-7-8-8-12s-3-10-6-14s-10-13-22-15"/>
	<g>
		<path class="st0" d="M212.6,537c8,1.2,16.4,0.7,24.1,3.4c6.1,2.9,12.7,5.2,19.4,6.2c1.2,0.2,2.4,0.2,3.6,0.1
			c3.7-0.2,7.1-1.9,10.6-2.7c0.5-0.1,0.8,0.6,0.4,0.9c-3.3,1.9-7.1,2.7-10.9,3.2c-6.4,0.2-12.5-2.1-18.4-4.2
			c-2.3-0.8-4.5-2.2-6.8-2.9c-4.7-1.3-9.7-1.7-14.6-2.2c-2.5-0.2-5-0.4-7.5-0.9c-0.3,0-0.4-0.3-0.4-0.6
			C212.1,537.1,212.3,537,212.6,537L212.6,537z"/>
	</g>
	<g>
		<path class="st0" d="M271,545.7c-0.6-0.5-1-1.1-1.4-1.8c-1.1-1.9-2.3-3.8-3.6-5.5c-3.4-4.6-7.6-9.1-13-11.2
			c-2.7-1-5.7-1.2-8.6-1.6c-5.8-0.8-11.7,0-17,2.5c-5.4,2.4-9.9,6.4-14.7,9.8c-3.4,0.4,5.6-6.2,6.2-6.6c10.4-7.8,19.9-9.2,32.4-6.5
			c6.9,1.7,12,7.2,16,12.6C268,538.3,274.2,546.7,271,545.7L271,545.7z"/>
	</g>
	<g>
		<path class="st0" d="M200.9,506.8c-0.1,0.9-0.7,1.2-1.2,1.7c-1.8,1.5-4,2.5-6.4,2.8c-2.4,0.2-4.6-1.2-6.6-2.4
			c-3.2-2.1-6.1-4.5-9.2-6.6c-1.2-0.8-2.5-1.7-3.9-2c-0.9-0.1-1.9,0-2.8-0.1c-3.9-0.4-7.6-0.9-11.2-2.6c-2.3-1.4-4-3.1-6-4.7
			c-1.9-1.6-3.8-3.3-5.6-5c-0.2-0.2-0.2-0.5,0-0.7c0.2-0.2,0.5-0.2,0.7,0c1.9,1.6,3.8,3.3,5.7,4.9c1.9,1.5,3.9,3.2,5.9,4.5
			c3.9,1.8,8.6,2.4,13,2.5c1.9,0.1,3.6,1.3,5,2.3c3.1,2.1,6,4.5,9.2,6.5c2,1.1,4,2.7,6.4,2c1.7-0.4,3.3-1.2,4.7-2.3
			c0.5-0.4,0.8-0.9,1.4-1C200.5,506,201,506.3,200.9,506.8L200.9,506.8z"/>
	</g>
	<g>
		<path class="st0" d="M148,486.5c0-1.9,6.2-0.4,7.5-0.4c4.7,0.6,9.4,1.2,14.1,1.1c2.3-0.1,4.7-0.4,6.6-1.4c1.5-0.5,3.1-0.5,4.6-0.4
			c4.5,0.4,7.8,3.7,10.7,6.9c3.5,3.4,5.1,8.3,8.3,12c0.3,0.5,1.1,1,1.1,1.7c0,0.4-0.2,0.7-0.6,0.7c-0.8,0-1.3-0.9-1.8-1.4
			c-3.2-3.7-4.7-8.5-8.2-12c-1.4-1.4-2.8-3-4.3-4.3c-2.6-1.9-6.2-2.8-9.2-2c-1.8,0.9-4.9,1.4-7.1,1.4c-6.9,0.3-13.5-1.6-20.3-2
			c-0.1,0-0.2,0-0.3,0.1c0,0-0.1,0,0,0c0,0,0.1-0.1,0.1-0.2c0,0.3-0.2,0.5-0.5,0.5S148,486.8,148,486.5L148,486.5z"/>
	</g>
	<g>
		<path class="st0" d="M207.6,506c-3.7,0.8-7.6,1.6-11.4,0.6c-0.9-0.3-1.8-1-2.6-1.5c-5.2-3.7-10.1-8.4-16.3-10.3
			c-3.5-1.2-7.2-1.8-10.9-1c-5-0.3-9.7-2.2-14.3-4.1c-1.3-0.6-2.8-1.2-3.8-2.3c-0.2-0.2-0.4-0.4-0.4-0.9l0-0.3c0-1.1,1.7-0.6,1,0.3
			c0.1,0.4,1,1,1.4,1.4c4.8,2.9,10.5,5,16.1,5.4c3.4-0.8,7.6-0.4,11.1,0.8c6.9,1.9,12.4,6.5,18,10.7c1.8,1.2,4.2,1,6.3,1
			c1.8-0.1,3.7-0.3,5.5-0.7C208,504.9,208.2,505.9,207.6,506L207.6,506z"/>
	</g>
	<g>
		<path class="st0" d="M196.3,477.1c4-2.2,7.8-4.7,11.4-7.5c3.7-2.6,7.6-5.2,10.4-8.6c4.5-5.2,3-12.9,0.8-18.8c-0.8-2-2-3.9-3.6-5.2
			c-0.2-0.2-0.2-0.5-0.1-0.7c0.1-0.2,0.4-0.2,0.5-0.2c1.3,0.4,2.2,1.4,2.9,2.4c3.1,5,4.2,11.1,3.6,17c-1.2,7.3-8.4,11.3-13.8,15.2
			c-3.7,2.7-7.6,5.1-11.7,7.3C196.2,478.2,195.7,477.4,196.3,477.1L196.3,477.1z"/>
	</g>
	<g>
		<path class="st0" d="M215.6,437.1c0.2,0.8-0.3,2.1-0.5,2.9c-0.8,3-1.7,6.2-4.4,8.3c-3.2,2.4-6.3,4.9-9.1,7.7
			c-3,2.6-4.5,6.3-5.4,10.1c-0.7,3-1.5,6.3-0.3,9.2c0.2,0.5,0.8,1.6,1,2.1c0.1,0.2,0,0.5-0.2,0.7c-0.2,0.1-0.6,0-0.7-0.2l-0.7-1.3
			c-1.9-3.2-1.2-7.2-0.4-10.7c0.8-3,1.7-6,3.6-8.5c3.3-3.9,7.3-7.1,11.3-10.2c1.5-1.1,2.4-2.8,3-4.6c0.5-1.3,0.8-2.9,1.1-4.3
			c0.1-0.5,0.2-1,0.7-1.5C215.1,436.3,215.6,436.6,215.6,437.1L215.6,437.1z"/>
	</g>
	<g>
		<path class="st0" d="M196.1,477.9c0-2,1.6-4.1,2.6-5.8c3.8-6.8,11.4-10.4,15.6-16.8c1.9-4.1,4.5-15,0.9-18.5c0,0,0.3,0.1,0.3,0.1
			c0.2,0,0.2-0.1,0.2-0.1c-0.1,0.3-0.4,0.5-0.7,0.4c-0.8-0.4,0.2-1.7,0.8-1.2c4,3.6,1.6,15.3-0.2,19.9c-2.8,5-7.9,8.4-11.7,12.5
			c-2.1,2-3.9,4.7-5.6,7.1c-0.6,0.7-0.9,1.6-1.2,2.5C197,478.6,196.1,478.5,196.1,477.9L196.1,477.9z"/>
	</g>
	<g>
		<path class="st0" d="M196,488.5c-0.2-3.6,0.1-7.1,0.1-10.6c0-0.3,0.2-0.6,0.4-0.6c0.4-0.1,0.8,0.4,0.5,0.8
			c-0.4,0.8-0.5,1.7-0.5,2.5c-0.1,2.6,0,5.2,0.4,7.8C197.1,489.1,196,489.3,196,488.5L196,488.5z"/>
	</g>
	<g>
		<path class="st0" d="M179,460.5c-0.2-0.5-0.7-0.7-1.1-1.1c-1-1-2.4-3.8-3.2-5l-4-6.7l-3.9-6.7c-0.6-1.1-1.3-2.3-1.9-3.4
			c-1.3-2.1-3.5-3.6-5.7-4.7c-8-4.1-18.9-2.5-25-10.1c-0.4-0.5,0.4-1.2,0.8-0.6c1.6,2,3.6,3.5,5.9,4.6c4.7,2.1,10.1,2.3,15,4
			c2.5,0.8,5,1.8,7.2,3.4c2.2,1.5,3.5,4,5,6.2c4.1,6.5,8.5,13.2,12,20.2c0.1,0.2,0,0.5-0.2,0.6C179.3,461.4,179.1,460.9,179,460.5
			L179,460.5z"/>
	</g>
	<g>
		<path class="st0" d="M134.7,423c0,0.3,0.1,0.8,0.2,1.2c1.1,2.9,2.9,5.6,4.9,8c2.5,3.1,6.2,3.9,9.9,5.3c2.5,0.9,5.4,1.9,7,4.1
			c2.1,2.7,3.1,5.8,4.9,8.5c1.1,1.5,2.8,2.6,4.2,3.8c3.1,2.3,6.4,4.5,10,5.9c1,0.4,2.4,0.9,3.4,0.4c0.2-0.1,0.5-0.1,0.7,0.2
			s0.1,0.5-0.2,0.7c-0.8,0.5-1.6,0.4-2.3,0.3c-2-0.3-3.9-1.2-5.6-2.1c-4.1-2.3-8.2-4.7-11.3-8.2c-1.9-2.6-3.1-6-5-8.4
			c-1.5-2-4.1-2.7-6.4-3.6c-2.5-0.9-4.9-1.6-7.4-3c-2.4-1.5-4-3.7-5.6-6c-1.1-1.7-2.2-3.5-2.6-5.5c-0.1-0.6-0.2-1.2,0.1-1.9
			c0.1-0.4,0.9-1,1.1-0.3C134.7,422.3,134.7,423,134.7,423L134.7,423z"/>
	</g>
	<g>
		<path class="st0" d="M189.4,466c-3.1-1-6.1-1.9-9-3.6c-0.6-0.4-1.4-1-1.5-1.9l0-0.1l0-0.3c-0.6-7-1.5-14.1-3.3-21
			c-1.2-5.1-4.9-8.9-9.3-11.5c-5.1-3-11.4-2.1-17-2.4c-4.9-0.4-9.9-2.2-14.8-2.3c-0.5,0.1-0.7-0.7-0.3-0.9c1-0.5,2-0.5,3-0.4
			c2.8,0.3,5.4,1,8.1,1.5c5.4,1.2,10.9,0.3,16.3,1.2c5.5,0.9,10.6,5.3,13.3,9.7c1.8,3,2.2,6.1,2.9,9.3c1,5.6,1.8,11.2,2.1,16.9v0.2
			c0,0,0,0,0,0c0,0,0.1,0.1,0.1,0.3c2.6,2.2,6.2,3.1,9.4,4.2C190.2,465.2,190,466.2,189.4,466L189.4,466z"/>
	</g>
	<g>
		<path class="st0" d="M211.1,391.7C211,391.7,211,391.6,211.1,391.7c0,0,0,0,0.2,0s0.3,0,0.3-0.1c-0.3,1.1-0.5,4.2-0.6,5.6
			c-0.2,10.7-4,18.7-11.6,26.1c-3.5,4-5.7,9-7.9,13.8c-1.7,11.9-2.9,26,0.1,38.3c3.8,12.2,10.5,23.7,19.4,33
			c4.4,4.7,9.1,9.1,14.2,13.1c1.7,1.3,3.4,2.6,5.2,3.7c0.3,0.2,0.4,0.5,0.2,0.8c-0.2,0.3-0.5,0.4-0.8,0.2c-1.9-1.1-3.7-2.4-5.4-3.8
			c-5.1-4.1-9.8-8.5-14.3-13.3c-9.1-9.4-15.8-21-19.6-33.5c-3-12.8-1.9-26.2,0-39c1.8-3.9,3.6-7.9,6.1-11.5c2.5-3.5,5.9-6.3,8.1-10
			c3.7-5.4,5-11.7,5.2-18.1l0.3-3.2c0.2-1,0.1-2.2,0.7-3.1c0.1-0.1,0.3-0.2,0.5-0.1c0.3,0.1,0.4,0.3,0.6,0.5
			C212.3,391.9,211.3,392.3,211.1,391.7L211.1,391.7z"/>
	</g>
	<g>
		<path class="st0" d="M190,442.3c2-5.3,4.8-10.4,9.1-14.1c2.1-1.8,3.9-3.8,5.6-6c2.2-3,4.3-6.1,5.7-9.6c2-5.7,1.9-12,1.2-18l-0.5-3
			c-0.1-0.3,0.1-0.5,0.4-0.6c0.3,0,0.5,0.1,0.6,0.4l0.5,3c0.7,6.1,0.9,12.5-1.2,18.4c-1.4,3.5-3.5,6.8-5.8,9.9
			c-3.2,4.6-8.2,7.5-10.9,12.4c-1.4,2.3-2.6,4.9-3.5,7.4C190.8,443.4,189.7,443,190,442.3L190,442.3z"/>
	</g>
	<g>
		<path class="st0" d="M171.2,368.1c1.3,4.5,4.4,8.4,5.9,12.9c1.6,4.8,2.7,9.6,3.6,14.5c0.8,3.6,1,7.3,2,10.8
			c1.9,5.8,6.5,10.2,10.1,14.9c0.3,0.4-0.3,1-0.7,0.7c-2.1-1.5-3.5-3.5-5.1-5.5c-2.3-3-4.6-6.1-5.8-9.7c-1.8-8.4-2.8-17.1-5.6-25.2
			c-1.2-3.4-3.2-6.6-4.7-10c-0.5-1.3-1.6-2.9-0.4-4.1c0.1,0,0.2,0,0.2,0C170.7,367.4,171.2,368.1,171.2,368.1L171.2,368.1z"/>
	</g>
	<g>
		<path class="st0" d="M192.1,421.2c2.7-5,6.4-9.8,7.6-15.5c1-5.6,0.2-11.6-2.2-16.8c-1.2-2.7-3.2-4.8-5-7.1
			c-3.6-5-8.1-9.2-13.9-11.5c-2.1-0.8-5.5-1.9-7.1-2c-0.2,0.1,0,0.1,0.1,0c-0.4,0.4-1.1,0.4-1.5,0c-0.9-1,0.3-2.1,1.4-1.9
			c2.6,0.8,5.2,1.4,7.7,2.4c6,2.4,10.8,6.9,14.5,12c1.8,2.4,3.9,4.6,5.1,7.3c3.1,6.8,3.9,15,0.9,22
			C199.4,411.3,192.3,425.2,192.1,421.2L192.1,421.2z"/>
	</g>
	<circle class="st2" cx="152" cy="401" r="2.5"/>
	<circle class="st3" cx="221" cy="479" r="2.5"/>
	<circle class="st3" cx="196" cy="528" r="2.5"/>
	<circle class="st4" cx="234" cy="568" r="2.5"/>
	<circle class="st4" cx="341" cy="555" r="2.5"/>
	<circle class="st3" cx="382" cy="580" r="2.5"/>
	<g>
		<path class="st0" d="M297.6,575.8c-2.5,0.5-5,0.2-7.5,0.2c-5.5-0.1-11.1-0.6-16.6,0.1c-1.7,0.4-3.1,1.5-4.6,2.5
			c-4.9,3.6-9.6,8-14,12.2c-3.1,2.3-6.7,3.5-10.1,5.2c-0.2,0.1-0.6,0-0.7-0.2c-0.1-0.3,0-0.6,0.3-0.7c3.3-1.4,7-2.7,9.8-4.9
			c4.4-4.4,8.8-8.9,13.8-12.8c2-1.6,4.4-3.1,7.1-3.2C276.5,573.8,301.6,573.2,297.6,575.8L297.6,575.8z"/>
	</g>
	<g>
		<path class="st0" d="M268.8,545.2c-4.2-2.2-8.6-4.3-13.1-6c-4.5-1.7-9.1-3.1-13.8-3.1c-6.9-0.1-14.6,0.8-21.5,1.5
			c-2.4,0.2-4.8,0.4-7.2,0.4c-0.6,0-0.7-0.8-0.1-1c4.7-1.2,9.5-1.5,14.3-1.8s9.6-0.5,14.5-0.3c4.9,0.2,9.6,1.6,14.1,3.3
			c4.5,1.8,8.9,3.8,13.2,6C269.8,544.7,269.4,545.6,268.8,545.2L268.8,545.2z"/>
	</g>
	<path class="st1" d="M190.8,438.5c-0.6-1.6-0.1-3.3,0.4-4.9c0.4-1.4,0.7-2.8,1-4.1c0.4-2.5,0.5-5.2,0.3-7.7"/>
	<g>
		<path class="st0" d="M571.3,421.9c-0.1-10.8,0.8-22,5-32.1c3.7-7.5,8.4-14.6,14-20.8c0.9-1,2.2-1.8,3.6-2c0.4-0.1,0.8,0.5,0.5,0.8
			c-1.4,2-3.3,3.6-4.9,5.6c-4.5,5.6-9,11.4-12.3,17.8c-4.2,9.6-4.8,20.3-4.9,30.6C572.3,422.5,571.3,422.6,571.3,421.9L571.3,421.9z
			"/>
	</g>
	<path class="st1" d="M533.7,525.8"/>
	<path class="st1" d="M493.3,544.8"/>
	<g>
		<path class="st0" d="M381.7,561.1c7.3,3.6,14.7,7.2,22.5,9.6c1.1,0.3,2.5,0.6,3.6,0.8c5.6,0.8,11.3,1.3,17,1.5
			c5,0.2,10.1,0.5,15-0.5c4.9-1.1,9.6-2.9,14.2-5c5.7-2.7,11.2-5.9,16.4-9.4c7.3-5,14.4-10.8,22.8-13.8c0.3-0.1,0.5,0,0.6,0.3
			s0,0.5-0.3,0.6c-8.4,3-15.3,8.8-22.6,13.7c-9.6,6.2-19.8,11.8-30.9,14.7c-5,1.1-10.2,0.9-15.3,0.9c-5.1-0.1-10.2-0.4-15.2-0.9
			c-5.1-0.3-10.1-2.1-14.9-3.9c-4.8-1.8-9.5-3.8-14.1-5.9c-0.8-0.3-1.1-1.3-0.8-2C380,561,381,560.7,381.7,561.1L381.7,561.1z"/>
	</g>
	<g>
		<path class="st0" d="M410,578.6c0.2,0.4,0,0.8,0,1.2c-0.1,2-0.2,4.2,0.7,6c3.3,5,9.5,6.9,14.7,9.4c1.6,0.8,3,1.9,4.2,3.1
			c2.4,2.4,4.7,5.5,6.6,7.9c2.2,2.2,4.9,3.8,7.8,5.1c2.9,1.3,6,1.7,9.1,1.8c0.3,0,0.5,0.2,0.5,0.5c0,0.3-0.2,0.5-0.5,0.5
			c-3.2,0-6.5-0.5-9.5-1.9c-3-1.3-5.8-3-8.1-5.3c-2.1-2.7-4.2-5.5-6.6-7.9c-2.4-2.5-5.5-3.6-8.7-5c-3.9-1.9-8-4-10.5-7.7
			c-1-2-1.2-4.3-1.1-6.6c0.1-0.4,0-0.9,0.3-1.3C409.2,578.1,409.8,578.2,410,578.6L410,578.6z"/>
	</g>
	<g>
		<path class="st0" d="M452.1,612.5c0.4,0.2,0.8,0.4,1.2,0.5c0,0,0.1,0,0,0c-0.1,0-0.2,0.2-0.2,0.2c-0.6-1.7-2-3.2-3-4.7
			c-2.4-3.2-5-6.2-7.4-9.4c-2.3-3.4-3.3-7.4-4.8-11.1c-1.7-4.7-7.2-7.5-12-7.9c-4.6,0-9.4,0.3-14,0c-0.6-0.1-1.3-0.2-1.9-0.6
			c-0.2-0.1-0.4-0.3-0.4-0.7c0-0.3,0.2-0.5,0.5-0.5s0.5,0.2,0.5,0.5c0-0.3-0.1-0.3-0.1-0.3c0,0,0.1,0,0.1,0l0.4,0
			c5,0.3,9.9,0.1,14.9,0.1c4.3,0.2,8.2,2.2,11.1,5.2c2.7,3.1,3.2,7.5,5,11.1c2.1,4.9,6.1,8.5,9.1,12.9c1.1,1.5,2.3,3,3,4.7
			c0.1,0.2,0.1,0.4,0.1,0.7c-0.2,1.3-1.8,0.4-2.5,0C451,613,451.5,612.2,452.1,612.5L452.1,612.5z"/>
	</g>
	<g>
		<path class="st0" d="M410.8,579.1c2.5,2.3,4.6,5,7.7,6.4c3.1,1.1,6.6,1.5,9.8,2.9c2.2,0.8,3.9,2.8,5.2,4.7c2,2.7,4,5.7,5.8,8.5
			c3.5,4.3,7.9,8.2,12.8,11c0.6,0.3,0.1,1.3-0.5,0.9c-4.6-3.4-9-7.1-12.8-11.4c-1.9-2.7-4-5.7-6-8.3c-1.4-1.8-2.7-3.5-4.9-4.2
			c-3.1-1.3-6.7-1.7-9.9-2.8c-3.3-1.3-5.6-4.2-7.9-6.7C409.7,579.4,410.4,578.7,410.8,579.1L410.8,579.1z"/>
	</g>
	<path class="st1" d="M408.5,572.5c0,0,0,5,2,7"/>
	<g>
		<path class="st0" d="M468,532c0.2,0.1,0.4,0,0.7,0.3c0.1,0.1,0.1,0.3,0.1,0.4c-0.2,1-1.6,1.7-2.3,2.3c-2.5,2-5.1,4.2-6,7.4
			c-1.6,4.3-1.9,8.9-4,13c-2.4,3.9-4.8,8.1-9,10.5c-2.3,1.4-5,2-7.7,2.1c-0.3,0-0.8,0.2-1.2,0.2c-0.2,0-0.5,0-0.8-0.1
			c-0.3-0.2-0.5-0.5-0.6-0.7c-0.5-1.4,0.1-2.8,0.4-4.2c0.6-2.1,1.4-4.2,1.3-6.3c-0.3-8.2-1.3-16.6,6-22.3c2.7-2.3,6.6-2.5,9.9-3.2
			c2.2-0.4,4.5-0.7,6.8-0.8c2.3-0.3,4.6,0.6,6.8,1.2c0.3,0.1,0.4,0.3,0.4,0.6c-0.1,0.3-0.4,0.4-0.7,0.3c-1-0.4-2.1-0.8-3.2-1.1
			c-3.2-0.6-6.6,0.3-9.8,0.9c-2.1,0.5-4.4,1-6.5,1.6c-1.9,0.7-3.6,2.2-5.1,3.8c-5.4,5.4-3.2,12.2-2.9,18.9c0.2,3.6-2.2,7-2.1,10.1
			c-0.1,0,0,0,0,0c0.1,0,0.2,0,0.3-0.1c0.4-0.1,1.3-0.2,1.8-0.2c4.5-0.2,7.7-3.5,10.5-6.7c1.4-1.7,2.9-3.4,4.2-5.2
			c3.9-5.6,2-14.1,7.7-18.7c1.4-1.3,3.2-2.3,4.7-3.5c0,0,0,0,0,0c0,0,0,0.1,0,0.1c0,0.1,0.1,0.3,0.1,0.3c0,0-0.1,0-0.1,0
			C467.1,532.9,467.2,531.9,468,532L468,532z"/>
	</g>
	<g>
		<path class="st0" d="M438.5,567.3c2.7-3,4.5-6.7,5.8-10.5c1.9-5.8,1.9-12.8,6.9-17.1c3.2-2.7,6.9-4.7,10.7-6.2
			c2-0.8,3.9-1.4,6.2-1.5c0.8,0,0.6,1.2-0.1,1c-1.9-0.4-3.9,0.6-5.7,1.2c-3.7,1.6-7.3,3.6-10.4,6.3c-4.6,4.3-4.4,10.9-6.4,16.7
			c-0.7,2-1.5,3.9-2.5,5.7c-1,1.8-2.2,3.6-3.7,5.1C438.7,568.6,437.9,567.8,438.5,567.3L438.5,567.3z"/>
	</g>
	<g>
		<path class="st0" d="M428.6,573c2.7-0.9,5.4-2.2,7.8-3.8c0.8-0.6,1.6-1,2.1-1.9c0.1-0.2,0.5-0.3,0.7-0.2c0.2,0.2,0.3,0.5,0.2,0.7
			c-3.2,2.5-6.7,4.5-10.4,6.1C428.3,574.2,427.9,573.2,428.6,573L428.6,573z"/>
	</g>
	<g>
		<path class="st0" d="M518.6,595.8c-0.1,0,0,0.2,0,0.1c-1.7-2.3-4-4-5.9-6.1c-1.5-1.7-3.3-3.4-4-5.7c-1-3.5-2.4-7-4.6-9.8
			c-1.7-2.4-4-3.7-7-4.3c-4.2-1-8.7-1.6-13-1.4c-1.5,0-2.6,0.6-4,1.2l-8.1,3.8c-2.4,1-4.9,2.3-7.5,2.7c-0.5,0-0.9,0.1-1.5-0.3
			c-0.5-0.4,0-1.2,0.6-0.8c0-0.1,0.1,0,0.2-0.1c0.1,0,0.3-0.1,0.5-0.2c0.6-0.2,2.4-1,3-1.2c3.9-1.5,10.4-4.8,14.4-6.4
			c2.3-0.7,4.7-0.5,7-0.4c4.6,0.5,9.2,0.9,13.4,3.1c3.9,2.7,6,7.2,7.4,11.5c1,5.6,6.1,9,9.6,13.2c0.3,0.4,0.8,0.9,0.5,1.5
			C519.2,596.8,518.3,596.4,518.6,595.8L518.6,595.8z"/>
	</g>
	<g>
		<path class="st0" d="M462.4,574.8c0.4,0.2,0.6,0.1,1,0.2c0.2,0.1,0.3,0.2,0.3,0.3c3.4,4,8.9,8.5,13.2,9.9
			c3.7-0.1,7.6-0.5,11.5-0.3c2,0,4.2,0.6,5.7,2c3,2.4,5.6,5.2,8.7,7.4c0.7,0.5,1.4,1,2.3,1.2c3.6,0.7,7.5,0.6,11.2,0.5
			c0.8,0,1.6-0.1,2.3-0.2c0.1,0,0.1-0.1,0,0c0.1-0.2,0.4-0.3,0.7-0.2c1.7,1.7-5,1.9-5.8,1.9c-2.9,0-5.8,0-8.7-0.6
			c-1-0.2-2-0.8-2.8-1.4c-3.1-2.3-5.7-5.1-8.7-7.5c-1.5-1.4-2.9-1.7-4.9-1.7c-1.9,0-3.8,0-5.7,0.2c-2,0.1-3.9,0.4-6,0.4
			c-5.8-1.8-10.2-6.2-13.8-10.8c0,0-0.2-0.1,0.1,0c0.1,0,0.2,0,0.1,0c-0.4,0-0.7-0.1-1-0.2C461.5,575.6,461.8,574.7,462.4,574.8
			L462.4,574.8z"/>
	</g>
	<g>
		<path class="st0" d="M453.4,568.1c2.2,2.3,4.9,4.6,7.6,6.3c0.4,0.2,0.8,0.4,1.3,0.4c0.7,0,0.8,1,0,1.1c-1.8-1-3.7-1.9-5.3-3.3
			c-1.5-1.3-3-2.5-4.4-3.8c-0.2-0.2-0.2-0.5,0-0.7C452.9,567.9,453.2,567.9,453.4,568.1L453.4,568.1z"/>
	</g>
	<path class="st1" d="M510.9,514.5c-2,2-11.2,7-14.2,11s-5.1,6-8.1,13c-3,7-9.5,13.9-9.5,13.9"/>
	<path class="st1" d="M474.4,555.5c0,0,7.1-8,8.1-12c1-4,3-10,6.1-14c3-4,10.1-13,22.3-15"/>
	<g>
		<path class="st0" d="M551.6,538c-7.5,1.2-15.1,1.1-22.4,3.1c-2.4,0.7-4.6,2-6.9,2.9c-6,2.2-12.2,4.4-18.7,4.2
			c-3.8-0.5-7.7-1.3-11.1-3.2c-0.2-0.2-0.3-0.5-0.1-0.7c0.1-0.2,0.3-0.2,0.5-0.2c1.3,0.2,2.4,0.7,3.6,1c2.3,0.8,4.8,1.4,7.2,1.6
			c6.2,0.2,12.3-2,18.1-4c2.4-0.9,4.6-2.2,7.1-2.9c2.5-0.7,5-1.1,7.5-1.4c5-0.6,10.1-0.7,15-1.4C552,536.9,552.2,537.9,551.6,538
			L551.6,538z"/>
	</g>
	<g>
		<path class="st0" d="M491.2,545.3c0.1-0.8,0.4-1.5,0.8-2.2c1.2-2,2.4-3.9,3.8-5.7c3.7-4.9,8.1-9.6,14-11.9
			c1.4-0.6,3.1-0.9,4.6-1.1c4.5-0.7,9.2-1.2,13.8-0.5c6.1,0.9,11.8,3.9,16.7,7.4c2.5,1.8,4.9,3.6,7,5.9c0.2,0.2,0.2,0.5,0,0.7
			c-0.2,0.2-0.4,0.2-0.6,0c-4.9-3.4-9.4-7.4-14.9-9.8c-6.8-3.4-14.4-3.2-21.6-1.9c-4.4,0.5-8.2,2.7-11.5,5.6c-3.3,3-6,6.5-8.5,10.3
			C494.1,542.8,491.8,547.5,491.2,545.3L491.2,545.3z"/>
	</g>
	<g>
		<path class="st0" d="M564.1,506.2c0.7,0.2,0.9,0.7,1.4,1c1.7,1.4,4.1,2.5,6.4,2.5c4.2-0.9,7.5-4.1,11.1-6.5c2.6-1.7,5-4.1,8.2-4.5
			c4.4-0.1,9.2-0.6,13.1-2.5c4.2-2.6,8-6.2,11.8-9.3c0.2-0.2,0.5-0.2,0.7,0c0.2,0.2,0.2,0.5,0,0.7c-2.8,2.5-5.7,5-8.7,7.4
			c-4.4,4-10.7,4.7-16.4,5c-0.6,0-1.1,0-1.6,0.3c-2.2,1-4.2,2.6-6.2,4c-3.7,2.5-7.2,5.9-11.7,6.8c-2.1,0.2-4.1-0.7-5.9-1.7
			c-0.6-0.3-1.2-0.7-1.7-1.1c-0.5-0.5-1.1-0.8-1.2-1.7C563.2,506.3,563.7,506,564.1,506.2L564.1,506.2z"/>
	</g>
	<g>
		<path class="st0" d="M615.9,486.5c0,0.1,0,0.2,0.1,0.2c0,0,0,0,0,0c-2.1-0.2-4.3,0.4-6.5,0.6c-4.8,0.7-9.6,1.4-14.5,1.3
			c-2.3,0-5.4-0.4-7.2-1.4c-3-0.9-6.7,0.1-9.3,1.9c-1.6,1.2-3,2.9-4.4,4.3c-3.1,3-4.6,6.9-7,10.3c-0.6,0.9-1.3,1.7-2,2.5
			c-0.2,0.3-0.5,0.5-1,0.6c-0.4,0.1-0.8-0.3-0.7-0.7c0-0.7,0.8-1.2,1.1-1.7c3.2-3.7,4.9-8.6,8.5-12c2.9-3.2,6.2-6.5,10.8-6.9
			c1.5-0.2,3.1-0.2,4.6,0.4c2,1,4.4,1.2,6.7,1.4c4.8,0.1,9.5-0.5,14.3-1.1c2.1-0.2,4.2-0.6,6.4-0.5c0.5,0,1.2,0.3,1.2,0.9
			C616.9,487.2,615.9,487.1,615.9,486.5L615.9,486.5z"/>
	</g>
	<g>
		<path class="st0" d="M556.7,505c2.7,0.5,5.5,0.8,8.3,0.7c1.3-0.1,2.6-0.2,3.7-1c0.7-0.5,2.6-1.9,3.4-2.5c4.5-3.5,9.4-6.6,14.9-8.2
			c3.5-1.2,7.7-1.6,11.2-0.8c3.3-0.1,6.5-1.2,9.6-2.3c2.7-1,5.4-2.1,7.7-3.9c0.3-0.2,0.5-0.6,0.5-0.6c-0.2-0.2-0.2-0.6,0-0.9
			c0.4-0.4,1.1-0.1,1,0.5c0,0.5-0.2,1-0.4,1.2c-1.1,1.1-2.5,1.7-3.9,2.3c-4.6,1.9-9.4,3.7-14.5,4.1c-1.8-0.4-3.7-0.5-5.6-0.3
			c-5.6,0.6-10.8,3.1-15.2,6.6c-2.6,1.9-5.3,4-8,5.8c-2.1,1.4-4.9,1.2-7.3,1c-1.9-0.2-3.8-0.5-5.7-0.9c-0.3-0.1-0.4-0.3-0.4-0.6
			C556.1,505.1,556.4,505,556.7,505L556.7,505z"/>
	</g>
	<g>
		<path class="st0" d="M567.5,477.9c-4.1-2.2-8.1-4.6-11.8-7.3c-3.8-2.6-7.8-5.1-10.9-8.7c-3.4-3.6-3.8-8.9-3-13.6
			c0.6-3.5,1.6-7,3.6-10c0.7-1,1.6-2,2.9-2.4c0.3-0.1,0.5,0.1,0.6,0.3c0.1,0.2,0,0.4-0.2,0.5c-1.6,1.4-2.8,3.3-3.7,5.3
			c-2.3,5.9-3.8,13.7,0.8,18.9c2.9,3.4,6.8,5.9,10.6,8.5c3.7,2.8,7.5,5.2,11.5,7.5C568.5,477.4,568.1,478.3,567.5,477.9L567.5,477.9
			z"/>
	</g>
	<g>
		<path class="st0" d="M549.2,436.6c0.8,0.8,0.8,2,1.1,3c0.6,2.7,1.5,5.8,3.8,7.5c3.2,2.5,6.4,5,9.3,7.9c3.2,2.8,4.8,6.8,5.8,10.8
			c0.8,3.5,1.5,7.5-0.4,10.7l-0.7,1.3c-0.1,0.2-0.4,0.4-0.7,0.2c-0.2-0.1-0.3-0.4-0.2-0.7c0.2-0.5,0.8-1.6,1-2.1
			c0.5-1,0.7-2.2,0.7-3.4c-0.1-3.9-1.3-7.8-2.9-11.4c-0.8-1.8-2.1-3.2-3.5-4.6c-2.9-2.8-6-5.3-9.2-7.7c-2.7-1.9-3.7-5.2-4.4-8.3
			c-0.2-0.8-0.7-2.2-0.5-3C548.4,436.5,548.9,436.4,549.2,436.6L549.2,436.6z"/>
	</g>
	<g>
		<path class="st0" d="M567.1,478.1c-0.3-1-0.6-1.8-1.2-2.5l-1.8-2.5c-4.3-6.5-11.6-10.3-15.7-17c-1.9-4.6-4.3-16.3-0.2-19.9
			c0.7-0.5,1.6,0.8,0.9,1.2c-0.3,0.2-0.6-0.1-0.7-0.4c0,0,0,0,0.2,0.1c0,0,0.3-0.1,0.3-0.1c-3.6,3.3-1.2,13,0.3,17.2
			c0.6,1.9,2,3.3,3.4,4.7c4.3,4.3,9.8,8,13,13.3l1.6,2.6c0.6,0.9,0.9,2.1,1,3.1c0,0.3-0.2,0.5-0.4,0.5
			C567.4,478.5,567.2,478.3,567.1,478.1L567.1,478.1z"/>
	</g>
	<g>
		<path class="st0" d="M567.2,488.5c0.4-2.6,0.5-5.2,0.4-7.8c0-0.9-0.1-1.8-0.5-2.5c-0.1-0.2-0.1-0.6,0.2-0.7
			c0.2-0.1,0.6-0.1,0.7,0.2c0.2,3.7,0.4,7.3,0.2,11C568.2,489.2,567.1,489.1,567.2,488.5L567.2,488.5z"/>
	</g>
	<g>
		<path class="st0" d="M584.5,460.5c4.3-8.2,9.5-15.9,14.4-23.6c6-7.7,17.1-6.7,25.3-10.1c2.4-1,4.5-2.6,6-4.5
			c0.2-0.2,0.5-0.2,0.7-0.1c0.2,0.2,0.2,0.5,0.1,0.7c-3.5,4.2-9,5.8-14.1,6.8c-5,1-10.3,2.1-14.5,5.2c-2.2,1.5-3.2,3.9-4.5,6
			c-2,3.4-6,10.1-8.1,13.5c-0.8,1.2-2.2,4.1-3.2,5.1c-0.4,0.4-0.9,0.6-1.1,1.1l-0.1,0.4C585.2,461.5,584.1,461.1,584.5,460.5
			L584.5,460.5z"/>
	</g>
	<g>
		<path class="st0" d="M630.8,422c2.4,1.4-0.9,6.4-1.9,8c-1.6,2.3-3.2,4.4-5.7,6c-2.5,1.3-5,2-7.5,2.9c-2.3,0.9-4.9,1.6-6.5,3.6
			c-2,2.4-3.1,5.8-5.1,8.4c-1.3,1.6-3,2.8-4.7,4c-3.9,2.6-7.9,5.3-12.5,6.3c-0.7,0.1-1.5,0.1-2.3-0.3c-0.2-0.1-0.3-0.5-0.2-0.7
			c0.2-0.3,0.5-0.3,0.7-0.1c1,0.5,2.4,0,3.4-0.4c3.6-1.4,6.9-3.6,10.1-5.9c1.5-1.1,3.1-2.3,4.3-3.8c2-2.7,2.9-5.8,5-8.5
			c1.7-2.2,4.6-3.2,7.1-4.1c2.5-0.9,5-1.7,7.2-2.8c2-1.3,3.7-3.5,5.1-5.5c1.1-1.8,2.7-4.1,2.9-6.2l-0.1-0.3
			C630.1,422.3,630.5,421.9,630.8,422L630.8,422z"/>
	</g>
	<g>
		<path class="st0" d="M574.7,465c2.9-1,6-2,8.7-3.5c0.4-0.3,0.8-0.6,1-0.9c0.1-2.5,0.4-5.1,0.7-7.6c0.4-3.2,0.8-6.3,1.5-9.5
			c0.7-3.2,1.1-6.4,3-9.4c2.6-4.1,7.2-8,12.1-9.5c5.9-1.4,12-0.2,17.9-1.5c2.7-0.5,5.5-1.2,8.2-1.5c1,0,2-0.1,3,0.4
			c0.5,0.2,0.2,1-0.3,0.9c-5,0-10,1.9-14.9,2.3c-5.7,0.3-12.1-0.7-17.3,2.3c-4.4,2.6-8.2,6.4-9.4,11.5c-1.9,7.1-2.7,14.5-3.4,21.8
			c-0.3,0.8-0.9,1.1-1.5,1.5c-2.9,1.7-5.9,2.6-9,3.5C574.3,466.1,574,465.2,574.7,465L574.7,465z"/>
	</g>
	<g>
		<path class="st0" d="M552,391.3c0-0.1,0.1-0.2,0.2-0.3c0.1,0,0.2-0.1,0.3-0.2c0.2,0,0.4,0.1,0.5,0.1c0.4,0.5,0.4,0.9,0.5,1.5
			c0.5,3.7,0.6,7.6,1.1,11.3c0.7,4.1,2.4,8.2,4.7,11.7c2.3,3.7,5.8,6.4,8.2,10c2.5,3.5,4.3,7.5,6.2,11.5c2,12.9,3.1,26.3,0,39.1
			c-4,12.5-10.8,24.1-20,33.4c-4.5,4.7-9.3,9.2-14.5,13.2c-1.7,1.3-3.5,2.6-5.4,3.7c-0.3,0.2-0.7,0.1-0.8-0.2
			c-0.2-0.3-0.1-0.7,0.2-0.8c7.3-4.5,13.6-10.6,19.6-16.7c9-9.2,15.8-20.7,19.7-32.9c3.1-12.4,1.8-26.5,0.1-38.4
			c-1.8-3.9-3.5-7.8-6-11.3c-2.5-3.5-6-6.2-8.2-10c-2.4-3.6-4.1-7.8-4.9-12.1c-0.5-3.7-0.6-7.6-1.1-11.3c0-0.2-0.1-0.5-0.2-0.7
			c0-0.1-0.1-0.2,0-0.1c0,0,0.2,0.1,0.3,0.1c0.1,0,0.2-0.1,0.2-0.1c0,0,0,0,0,0C552.6,392.4,551.7,391.9,552,391.3L552,391.3z"/>
	</g>
	<g>
		<path class="st0" d="M573.3,442.7c-1.9-5.1-4.7-10.1-8.8-13.7c-2.2-1.8-4.1-3.9-5.8-6.2c-2.3-3.2-4.5-6.4-5.9-9.9
			c-2.1-5.9-1.9-12.3-1.2-18.5l0.5-3c0-0.3,0.3-0.5,0.6-0.4c0.3,0,0.5,0.3,0.4,0.6l-0.5,3c-0.7,6-0.9,12.2,1.2,18
			c2.6,5.9,6.5,11.4,11.4,15.6c2.2,1.9,4,4.1,5.5,6.5c1.5,2.4,2.7,4.9,3.7,7.6c0.1,0.3,0,0.6-0.3,0.7
			C573.7,443.1,573.4,443,573.3,442.7L573.3,442.7z"/>
	</g>
	<g>
		<path class="st0" d="M594,367.4c1.7,1.5-1.4,5.8-2.1,7.5c-1.1,2.2-2.3,4.4-3.1,6.6c-2.8,8.1-3.8,16.9-5.7,25.3
			c-1.3,3.6-3.5,6.8-5.9,9.7c-1.6,1.9-3.1,4-5.2,5.4c-0.4,0.3-1-0.3-0.7-0.7c3.6-4.8,8.3-9.1,10.2-14.9c1-3.5,1.2-7.2,2-10.8
			c1-4.9,2.1-9.7,3.7-14.5c1.3-3.6,3.3-6.7,4.9-10.1c0.4-0.8,0.9-2.2,1.1-2.8l0.5-0.7C593.9,367.3,594,367.3,594,367.4L594,367.4z"
			/>
	</g>
	<g>
		<path class="st0" d="M571.3,421.8c-2.3-2-3.5-4.8-5-7.4c-1.4-2.7-2.8-5.4-3.5-8.4c-1.2-7.5,0.2-15.7,5-21.7
			c2.9-3.5,5.4-7.1,8.8-10.1c2.6-2.2,5.5-4,8.7-5.3c2.5-1,5.2-1.6,7.7-2.4c1.1-0.2,2.3,0.8,1.4,1.9c-0.4,0.4-1.1,0.4-1.5,0
			c0.1,0,0.2,0,0.2,0c0,0,0-0.1-0.1-0.1c-1.6,0.1-5,1.1-7.2,2c-5.8,2.3-10.4,6.5-14.1,11.5c-1.7,2.3-3.8,4.4-5,7.1
			c-2.5,5.1-3.2,11.2-2.2,16.7c1,4.2,3.3,8,5.5,11.7C570.5,418.1,573.6,422.4,571.3,421.8L571.3,421.8z"/>
	</g>
	<ellipse class="st3" cx="606.8" cy="401" rx="2.5" ry="2.5"/>
	<ellipse class="st3" cx="548.9" cy="482" rx="2.4" ry="2.5"/>
	<ellipse class="st3" cx="573.2" cy="529" rx="2.5" ry="2.5"/>
	<ellipse class="st3" cx="535.7" cy="576" rx="2.5" ry="2.5"/>
	<ellipse class="st3" cx="422.1" cy="553" rx="2.5" ry="2.5"/>
	<g>
		<path class="st0" d="M465.1,574.8c2.5-0.8,5-0.7,7.5-0.8c5.1-0.1,10.1-0.3,15.2,0.1c2.7,0,5.2,1.5,7.2,3.2c5,3.9,9.6,8.3,14,12.8
			c2.8,2.3,6.6,3.5,10,5c0.3,0.1,0.4,0.4,0.3,0.7c-0.1,0.3-0.4,0.4-0.7,0.3c-3.5-1.7-7.1-2.8-10.2-5.2c-5.5-5-10.9-10.5-17.4-14.2
			c-1.1-0.6-2.2-0.6-3.4-0.7c-5-0.3-10,0-15,0.1C471.7,575.9,462.9,576.7,465.1,574.8L465.1,574.8z"/>
	</g>
	<g>
		<path class="st0" d="M493.9,544.4c8.7-4.3,17.8-8.9,27.7-9.4c9.8-0.1,19.6,0.1,29.2,2.1c0.6,0.1,0.5,1-0.1,1
			c-2.4,0-4.9-0.2-7.3-0.4c-7-0.7-14.8-1.6-21.8-1.5c-9.6,0.2-18.8,4.8-27.3,9C493.8,545.6,493.3,544.7,493.9,544.4L493.9,544.4z"/>
	</g>
	<path class="st1" d="M573.5,438.5c0.6-1.6,0.1-3.3-0.4-4.9c-0.4-1.4-0.8-2.8-1-4.1c-0.4-2.5-0.5-5.2-0.3-7.7"/>
</g>
<g id="Слой_6">
	<g>
		<path class="st0" d="M314.2,545.4c-0.5-2.7-0.4-9.9,3.1-10.4c0.7,0,0.7,1,0,1c-2.4,0.3-1.7,7.3-2.1,9.3
			C315.2,545.9,314.3,546,314.2,545.4L314.2,545.4z"/>
	</g>
	<g>
		<path class="st0" d="M319.5,561c-2.9,2.8-11.4-14.3-15.6-14c-0.3,0-0.5-0.2-0.6-0.5c0.1-1.4,2.8,0.4,3.2,0.7
			c3.4,2.6,6.4,6.6,9.2,9.8c1,1.1,1.9,2.3,3,3.2c0.1,0.1,0,0,0,0.1C319.2,559.9,319.9,560.6,319.5,561L319.5,561z"/>
	</g>
	<g>
		<path class="st0" d="M292.1,575.1c-1.3,4.3-3.6,6.3-8.2,6.3c-1.7,0.1-3.6,0-5,1c-1.3,1.4-2.6,2.5-4.1,3.6
			c-0.6,0.5-1.3-0.6-0.5-0.9c1.7-0.5,2.9-2.1,4.1-3.3c5.4-2.9,10.4,1.6,12.7-7C291.3,574.2,292.3,574.5,292.1,575.1L292.1,575.1z"/>
	</g>
	<g>
		<path class="st0" d="M275.1,575.4c-2.9,2.5-5.7,5-8.2,7.7c-0.8,0.9-1.7,1.8-2.2,2.9c-2.2,4.8-6.3,8-10.3,11.1
			c-0.6,0.5-1.2-0.5-0.6-0.8c4.4-2.2,8.1-6.1,10.2-10.5c0.2-0.6,0.6-1.2,1-1.7c2.8-3.4,6.2-6.4,9.4-9.4
			C274.9,574.2,275.6,575,275.1,575.4L275.1,575.4z"/>
	</g>
	<g>
		<path class="st0" d="M275.8,575c-2.7-4-8.3-5-12.8-4.5c-0.7,0.1-0.7-1,0-1c3.7,0.1,7.6,0.4,10.9,2.4c0.6,0.4,3.7,2.5,2.7,3.3
			C276.3,575.4,276,575.3,275.8,575L275.8,575z"/>
	</g>
	<g>
		<path class="st0" d="M252.1,537.8c-2.9-5.9-8.2-10.8-14.4-13c-0.6-0.2-0.3-1.1,0.3-0.9c3.3,1,6.2,3,8.7,5.4
			c2.5,2.4,4.4,5.2,6.3,8.1C253.4,538,252.3,538.6,252.1,537.8L252.1,537.8z"/>
	</g>
	<g>
		<path class="st0" d="M233.6,536c-1-1.8-3-3.1-4.8-4.1c-1.9-1.1-3.9-1.3-5.9-1.8c-0.5-0.1-0.5-0.9,0-1c3.4-0.4,6.6,1.8,9,4
			c0.8,0.7,1.5,1.6,2.4,2.3c0.2,0.2,0.3,0.5,0.1,0.7C234.3,536.4,233.7,536.4,233.6,536L233.6,536z"/>
	</g>
	<g>
		<path class="st0" d="M261,541.4c-3.8-0.5-7.6-0.4-11.4-0.5c-3.6,0.1-7.6-0.2-11,1.3c-0.4,0.2-0.9-0.3-0.6-0.7
			c0.4-0.7,0.9-0.8,1.4-1c1.4-0.4,2.9-0.5,4.4-0.6c3.9-0.2,7.7,0,11.5,0.2c1.9,0.1,3.8,0.3,5.8,0.3
			C261.8,540.4,261.7,541.5,261,541.4L261,541.4z"/>
	</g>
	<g>
		<path class="st0" d="M191.9,503.4c-0.8,0.2-1.9,0-2.7,0.1c-2.2,0-4.5-0.1-6.6,0.4c-0.3,0.1-0.8,0.2-0.8,0.4
			c-0.1,0.2-0.4,0.4-0.7,0.2c-0.7-0.4,0.1-1.2,0.5-1.3c2.9-1,6-0.9,9-0.9c0.5,0,0.9,0,1.4,0.2C192.4,502.5,192.4,503.2,191.9,503.4
			L191.9,503.4z"/>
	</g>
	<g>
		<path class="st0" d="M166.6,493.8c-2.1,0.6-4.3,1.5-5.8,3c-0.1,0.1-0.4,0.1-0.5,0s-0.1-0.4,0-0.5c1.8-1.6,3.9-2.4,6.2-3
			C166.8,493.1,166.9,493.7,166.6,493.8L166.6,493.8z"/>
	</g>
	<g>
		<path class="st0" d="M186,498.6c0,0.1-0.2,0.2-0.4,0.2c-0.3,0-0.3-0.1-0.4-0.2c-0.1-0.1-0.1-0.1-0.1-0.2c-0.8-2.3-1.5-4.7-2.7-6.8
			c-1.2-2-2.8-4.3-5.2-4.8c-0.6-0.1-0.5-1.1,0.2-1c5,2.1,7.1,7.4,8.7,12.2l0,0.1l0,0l0,0c-0.1-0.1-0.2-0.3-0.5-0.2
			c-0.2,0-0.3,0.2-0.4,0.2C185.6,497.5,186.4,498,186,498.6L186,498.6z"/>
	</g>
	<g>
		<path class="st0" d="M201.8,468.9c0.2-4.2,0.9-8.5,3.2-12.1c0.4-0.7,1.1-1.3,1.6-1.9c0.8-1.2,0.7-2.9,0.2-4.2
			c0-0.1-0.1-0.2,0.1-0.4c0.2-0.2,0.5-0.1,0.5,0.1c0.6,1.5,0.7,3.4-0.2,4.8c-1.1,1.2-2.1,2.5-2.6,4.1c-1.2,3-1.7,6.3-2,9.6
			C202.6,469.4,201.8,469.3,201.8,468.9L201.8,468.9z"/>
	</g>
	<g>
		<path class="st0" d="M211.1,459.6c3.2-2.1,6.4-4.7,10.5-4.6c0.3,0,0.5,0.2,0.5,0.5c0,0.4-0.5,0.6-0.8,0.4
			c-0.7-0.5-1.7-0.1-2.5,0.1c-2.6,1-4.9,2.6-7.1,4.3C211.2,460.8,210.6,460,211.1,459.6L211.1,459.6z"/>
	</g>
	<path class="st1" d="M175.2,453.6c0,0-6.7,0.8-8.7-1.6s-3-5.6-6-7.5s-3.1-0.5-3.1-0.5"/>
	<path class="st1" d="M168.8,442.9c0,0,2.5-12.7-4.4-17.1"/>
	<g>
		<path class="st0" d="M166.1,439.1c-4.1-2.8-8.8-5-13.9-4.8h-3.8c-3.9,0.1-7.5-1.8-10.9-3.3c-0.4-0.2-0.1-0.9,0.3-0.7
			c3.4,1.5,6.8,3.4,10.6,3.3c2.3,0,5.4-0.1,7.6,0.3c3.8,0.6,7.2,2.6,10.5,4.7C166.9,438.8,166.5,439.4,166.1,439.1L166.1,439.1z"/>
	</g>
	<g>
		<path class="st0" d="M191.9,413.9c-1.3-4.4-3.2-8.7-5.3-12.8c-2.1-4-4.4-7.9-7.9-10.7c-0.4-0.3-0.1-1,0.4-0.9
			c4.9,1,9.4,13.2,11.3,17.6c0.8,2.2,1.6,4.3,2.6,6.5C193.1,414.2,192.1,414.6,191.9,413.9L191.9,413.9z"/>
	</g>
	<g>
		<path class="st0" d="M190.6,402.4c2.7-5.6,3.6-11.8,4.4-17.9c0.1-0.5,0.9-0.5,1,0c0.5,4.8-1.4,9.4-2.8,13.9
			c-0.5,1.5-1.1,2.9-1.6,4.4c-0.1,0.3-0.4,0.4-0.6,0.3C190.6,403,190.5,402.7,190.6,402.4L190.6,402.4z"/>
	</g>
	<g>
		<path class="st0" d="M184.3,385.2c1.2-4.5,0.4-9.7-2.2-13.5c-0.4-0.6,0.5-1.1,0.9-0.5c1.9,3.2,2.6,6.9,2.6,10.6l-0.2,3.7
			C185.2,386.2,184.1,386,184.3,385.2L184.3,385.2z"/>
	</g>
	<path class="st1" d="M196.2,426.7c0,0,15.4-10.2,15.8-19.2"/>
	<path class="st1" d="M276.3,542c0,0,1.2-16.5-22.7-27.3"/>
	<g>
		<path class="st0" d="M343.9,586.7c-0.2,0.8-0.8,1.4-1.2,2c-1.3,1.8-3.2,3.7-3.7,5.9c-0.1,0.7-1.1,0.5-1-0.1
			c1.1-2.2,2.2-4.5,3.5-6.6c0.5-0.7,0.9-1.4,1.6-1.8C343.5,585.8,344.1,586.3,343.9,586.7L343.9,586.7z"/>
	</g>
	<g>
		<path class="st0" d="M338.4,588c-4.5-0.2-11.3-1.8-14.7,1.8c-0.4,0.5-1.2-0.1-0.8-0.6c2.4-1.5,5-2.4,7.8-2.7
			c2.7-0.3,5.4-0.2,8,0.5c0.3,0.1,0.4,0.4,0.3,0.6C338.9,587.9,338.6,588,338.4,588L338.4,588z"/>
	</g>
	<g>
		<path class="st0" d="M324.4,600.4c0.4,2.6,0.5,5.2,0,7.8c0,0.1-0.1,0.2-0.3,0.2c-0.1,0-0.2-0.1-0.2-0.3c0.5-2.5,0.4-5.1,0-7.6
			C324,600.2,324.4,600.2,324.4,600.4L324.4,600.4z"/>
	</g>
	<g>
		<path class="st0" d="M447.3,545.3c-0.4-2,0.4-9-2.1-9.3c-0.7,0-0.7-1,0-1c3.6,0.4,3.6,7.7,3.1,10.4
			C448.2,546,447.3,545.9,447.3,545.3L447.3,545.3z"/>
	</g>
	<g>
		<path class="st0" d="M443.7,560.4c1.9-1.8,4.8-5.2,6.6-7.4c2.5-2.6,4.8-6.1,8.5-7c0.7-0.1,0.8,1.1,0,1c-4.3-0.2-13,16.8-15.9,14
			C442.5,560.5,443.3,559.9,443.7,560.4L443.7,560.4z"/>
	</g>
	<g>
		<path class="st0" d="M471.7,574.9c2.4,8.5,7.5,4,12.9,6.9c1.3,1.2,2.5,2.8,4.2,3.3c0.8,0.3,0.2,1.4-0.5,0.9
			c-1.5-1.2-2.9-2.3-4.1-3.6c-3.1-1.9-7.5,0-10.5-2.4c-1.5-1.3-2.4-3-2.9-4.8c-0.1-0.3,0.1-0.5,0.3-0.6
			C471.4,574.4,471.6,574.6,471.7,574.9L471.7,574.9z"/>
	</g>
	<g>
		<path class="st0" d="M488.6,574.6c3.3,3,6.6,6,9.5,9.4c0.4,0.5,0.8,1.1,1,1.7c2.2,4.5,5.9,8.3,10.4,10.5c0.6,0.3,0.1,1.2-0.4,0.9
			c-2-1.6-4.2-3-6.1-4.9c-1.8-1.8-3.4-3.9-4.5-6.2c-0.5-1.1-1.4-2-2.2-2.9c-2.6-2.7-5.5-5.2-8.4-7.7
			C487.5,575,488.1,574.2,488.6,574.6L488.6,574.6z"/>
	</g>
	<g>
		<path class="st0" d="M486.3,574.5c3.2-4.4,9-4.9,13.9-5c0.7,0,0.7,1.1,0,1c-4.6-0.5-10.3,0.5-13,4.5
			C486.9,575.7,486,575.1,486.3,574.5L486.3,574.5z"/>
	</g>
	<g>
		<path class="st0" d="M510.5,537.4c3.7-5.7,8.4-11.4,15.2-13.5c0.3-0.1,0.5,0.1,0.6,0.3c0.1,0.3-0.1,0.5-0.3,0.6
			c-6.3,2.1-11.6,7.1-14.6,13C511.1,538.6,510,538,510.5,537.4L510.5,537.4z"/>
	</g>
	<g>
		<path class="st0" d="M529.3,535.4c3.2-2.9,6.8-6.7,11.6-6.3c0.3,0,0.5,0.3,0.4,0.6c0,0.2-0.2,0.4-0.4,0.4c-2.1,0.5-4.1,0.7-6,1.8
			c-1.8,1-3.8,2.2-4.8,4.1C529.7,536.8,528.6,536,529.3,535.4L529.3,535.4z"/>
	</g>
	<g>
		<path class="st0" d="M502.2,540.4c4.2,0.1,21.3-2,23.5,1.2c0.3,0.6-0.3,0.9-0.8,0.6c-3.4-1.3-7.3-1.1-11-1.2
			c-3.9,0-7.8,0-11.6,0.5C501.6,541.5,501.5,540.4,502.2,540.4L502.2,540.4z"/>
	</g>
	<g>
		<path class="st0" d="M572.3,502.4c0.5-0.2,0.9-0.2,1.4-0.2c1.4,0,2.8,0,4.2,0.1c1.7,0.1,3.4,0.2,4.9,0.8c0.2,0.1,0.5,0.2,0.8,0.6
			c0.3,0.6-0.6,1-0.9,0.4c-0.1-0.2-0.6-0.3-0.9-0.4c-2.2-0.5-4.5-0.4-6.8-0.4c-0.8,0-2,0.2-2.8-0.1
			C571.9,503.2,571.9,502.5,572.3,502.4L572.3,502.4z"/>
	</g>
	<g>
		<path class="st0" d="M598.2,493.2c2.3,0.6,4.5,1.4,6.3,3c0.1,0.1,0.2,0.4,0,0.5c-0.1,0.1-0.4,0.1-0.5,0c-1.6-1.5-3.8-2.4-5.9-3
			C597.7,493.7,597.9,493.1,598.2,493.2L598.2,493.2z"/>
	</g>
	<g>
		<path class="st0" d="M579.2,498c0-0.1-0.2-0.2-0.3-0.2c-0.3,0-0.4,0.1-0.5,0.2l0,0c0,0,0-0.1,0-0.1c1.6-4.8,3.8-9.9,8.7-12.1
			c0.6-0.3,1,0.6,0.4,0.9c-2.5,0.4-4.2,2.7-5.4,4.8c-1.2,2.1-2,4.5-2.8,6.9c-0.1,0.2-0.2,0.4-0.6,0.4
			C577.7,498.6,578.6,497.3,579.2,498L579.2,498z"/>
	</g>
	<g>
		<path class="st0" d="M561.5,468.9c-0.3-4-1-8.3-3.1-11.7c-0.3-0.5-0.7-1-1.1-1.4c-1.4-1.4-1.3-3.6-0.7-5.3c0-0.2,0.3-0.4,0.5-0.1
			c0.2,0.2,0.1,0.3,0.1,0.4c-0.5,1.3-0.6,3,0.2,4.2c1.1,1.2,2.2,2.6,2.8,4.2c1.3,3.1,1.9,6.5,2,9.9
			C562.3,469.3,561.6,469.4,561.5,468.9L561.5,468.9z"/>
	</g>
	<g>
		<path class="st0" d="M552.2,460.4c-2.4-1.9-5-3.6-7.9-4.5c-0.6-0.1-1.3-0.3-1.9,0.1c-0.3,0.2-0.6,0.1-0.8-0.2
			c-0.2-0.3,0.1-0.8,0.4-0.8c2.2-0.1,3.9,0.6,5.7,1.6c1.7,0.9,3.3,1.9,4.9,3c0.2,0.2,0.3,0.5,0.1,0.7
			C552.8,460.5,552.5,460.6,552.2,460.4L552.2,460.4z"/>
	</g>
	<path class="st1" d="M589.3,453.6c0,0,6.8,0.8,8.8-1.6c2-2.4,3-5.6,6.1-7.5c3-1.9,3.2-0.5,3.2-0.5"/>
	<path class="st1" d="M595.8,442.9c0,0-2.6-12.7,4.4-17.1"/>
	<g>
		<path class="st0" d="M598.1,438.5c4.3-2.8,9.2-5.1,14.5-4.9h3.8c3.9,0.1,7.3-1.8,10.8-3.3c0.4-0.2,0.7,0.5,0.3,0.7
			c-3.5,1.5-7.2,3.5-11.1,3.3c-2.2,0-5.5-0.1-7.6,0.2c-3.7,0.6-7.2,2.5-10.3,4.5C598.2,439.4,597.8,438.8,598.1,438.5L598.1,438.5z"
			/>
	</g>
	<g>
		<path class="st0" d="M571.5,413.6c2.5-5.6,7.9-22.6,14-24.1c0.4,0,0.7,0.5,0.4,0.9c-3.6,2.8-6,6.7-8.1,10.8
			c-2.1,4.1-4.1,8.3-5.4,12.8C572.2,414.6,571.2,414.3,571.5,413.6L571.5,413.6z"/>
	</g>
	<g>
		<path class="st0" d="M572.8,402.8c-2-5.9-5.1-11.9-4.5-18.3c0-0.3,0.3-0.5,0.6-0.4c0.2,0,0.4,0.2,0.4,0.4
			c0.8,6.1,1.7,12.3,4.5,17.9C574,403,573,403.5,572.8,402.8L572.8,402.8z"/>
	</g>
	<g>
		<path class="st0" d="M579.1,385.5c-0.4-4.8-0.3-10.1,2.4-14.3c0.1-0.2,0.5-0.3,0.7-0.2c0.3,0.1,0.3,0.5,0.1,0.7
			c-2.6,3.8-3.5,9-2.3,13.5C580.3,386,579.2,386.2,579.1,385.5L579.1,385.5z"/>
	</g>
	<path class="st1" d="M568,426.7c0,0-15.6-10.2-16-19.2"/>
	<path class="st1" d="M486.8,542c0,0-1.2-16.5,23.1-27.3"/>
	<g>
		<path class="st0" d="M419,586.1c1.9,1.5,2.8,4,4,6c0.4,0.7,0.7,1.5,1.1,2.2c0.1,0.2,0,0.6-0.2,0.7c-0.3,0.2-0.7,0-0.8-0.4
			c-0.1-0.8-0.5-1.5-0.9-2.1c-0.7-1.2-2-2.7-2.8-3.8c-0.4-0.6-2-2.2-0.9-2.7C418.7,586,418.9,586,419,586.1L419,586.1z"/>
	</g>
	<g>
		<path class="st0" d="M423.6,587c5.3-1.4,11-0.7,15.8,2c0.3,0.1,0.4,0.4,0.2,0.7c-0.1,0.3-0.7,0.4-0.9,0.1c-3.5-3.6-10.4-2-15-1.8
			C423.2,588.1,423,587.2,423.6,587L423.6,587z"/>
	</g>
	<g>
		<path class="st0" d="M438.3,600.5c-0.3,2.5-0.5,5.1,0,7.6c0,0.1,0,0.2-0.2,0.3C437.3,608.8,437.6,598.7,438.3,600.5L438.3,600.5z"
			/>
	</g>
</g>
<g id="Слой_5">
	<text transform="matrix(1 0 0 1 243.8779 424.6943)" class="st5 st6 st7">CM</text>
</g>
<g id="Слой_4">
	<g>
		<path class="st5" d="M239.2,467.4c0-0.3,0-0.6,0.1-0.9l0.1-0.2c-0.6,0.8-1.2,1.5-1.8,2c-0.6,0.5-1.2,0.7-1.8,0.7
			c-0.4,0-0.8-0.1-1-0.4s-0.4-0.7-0.4-1.4c0-0.1,0-0.3,0.1-0.6c0.1-1,0.5-1.9,1.1-2.8s1.2-1.6,2-2.2s1.5-0.8,2.2-0.8
			c0.2,0,0.5,0,0.7,0.2s0.4,0.3,0.5,0.5c0.5-0.2,0.8-0.5,0.9-0.8c0,0,0.1,0,0.1,0c0.1,0,0.1,0,0.2,0s0.1,0,0.1,0l-1,6
			c0,0.1-0.1,0.4-0.1,0.6c0,0.7,0.3,1,0.9,1c0.4,0,0.8-0.2,1.2-0.5s0.8-0.8,1.1-1.4c0.3-0.6,0.4-1.4,0.4-2.2c0-1.2-0.3-2.3-0.8-3.3
			s-1.3-1.8-2.2-2.4s-2-0.9-3.2-0.9c-1.3,0-2.4,0.3-3.3,1s-1.6,1.6-2.1,2.7s-0.7,2.4-0.7,3.8c0,1.5,0.3,2.8,0.9,3.9s1.4,2,2.4,2.5
			c1,0.6,2.2,0.9,3.6,0.9c0.8,0,1.5-0.1,2.2-0.3c0.7-0.2,1.3-0.5,2-1.1h0c0.1,0,0.1,0,0.1,0.1s0,0.1,0,0.1c-0.9,0.8-1.7,1.3-2.6,1.6
			c-0.9,0.3-1.7,0.5-2.7,0.5c-1.4,0-2.7-0.3-3.8-0.9s-2.1-1.5-2.7-2.6c-0.7-1.1-1-2.5-1-4c0-1.7,0.4-3.2,1.2-4.6s1.9-2.4,3.2-3.1
			c1.3-0.7,2.7-1.1,4.2-1.1c1.3,0,2.5,0.3,3.5,0.9c1,0.6,1.8,1.4,2.4,2.3c0.6,1,0.8,2,0.8,3.1c0,1-0.2,2-0.7,2.9
			c-0.5,0.9-1.1,1.5-1.9,2.1c-0.8,0.5-1.7,0.8-2.6,0.8C239.8,469,239.2,468.4,239.2,467.4z M238.1,466.7c0.4-0.4,0.8-1,1.1-1.6
			s0.6-1.3,0.7-2c0-0.2,0.1-0.4,0.1-0.5c0-0.3-0.1-0.6-0.2-0.8c-0.1-0.2-0.3-0.3-0.5-0.3c-0.6,0-1.1,0.4-1.7,1.1
			c-0.5,0.8-0.9,1.7-1.1,2.7c-0.1,0.4-0.1,0.7-0.1,1c0,0.3,0.1,0.5,0.1,0.7s0.2,0.3,0.4,0.3C237.3,467.3,237.7,467.1,238.1,466.7z"
			/>
		<path class="st5" d="M268.2,454.6c0.8,0.1,1.4,0.3,1.9,0.5c0.1,0,0.2,0.1,0.3,0.2c0,0.1,0.1,0.2,0.1,0.4l0.3,3.7
			c0,0,0,0.1-0.1,0.1c-0.1,0-0.1,0-0.1-0.1c-0.6-1.4-1.3-2.5-2.3-3.3s-2.1-1.1-3.3-1.1c-1.7,0-2.9,0.6-3.8,2
			c-0.9,1.3-1.4,3.1-1.4,5.2c0,1.6,0.2,3.1,0.7,4.5c0.5,1.4,1.2,2.4,2.1,3.2c0.9,0.8,1.9,1.2,3,1.2c1.1,0,2-0.4,2.9-1.1
			s1.6-1.9,2.3-3.5c0-0.1,0.1-0.1,0.2-0.1s0.1,0,0.1,0.1l-0.4,3.6c0,0.2-0.1,0.4-0.1,0.4c0,0.1-0.1,0.1-0.3,0.2
			c-1.5,0.6-3,0.9-4.6,0.9c-2,0-3.7-0.4-5.1-1.3c-1.4-0.9-2.4-2-3-3.3c-0.6-1.3-1-2.7-1-4.2c0-1.7,0.4-3.2,1.3-4.5
			c0.9-1.3,2-2.3,3.4-3c1.4-0.7,3-1.1,4.6-1.1C266.6,454.4,267.4,454.4,268.2,454.6z"/>
		<path class="st5" d="M291.5,467.1c0,0,0.1,0,0.1,0s0.1,0,0.1,0.1c-0.2,1.4-0.2,2.7-0.2,3.8c0,0.1,0,0.2-0.1,0.3s-0.1,0.1-0.3,0.1
			H280c0,0-0.1,0-0.1-0.2c0-0.1,0-0.2,0.1-0.2c0.5,0,0.9,0,1.2-0.1c0.2-0.1,0.4-0.3,0.5-0.5c0.1-0.3,0.1-0.7,0.1-1.2v-12.4
			c0-0.5,0-0.9-0.1-1.2c-0.1-0.2-0.2-0.4-0.5-0.5c-0.2-0.1-0.6-0.1-1.1-0.1c0,0-0.1,0-0.1-0.2s0-0.2,0.1-0.2h10.6
			c0.2,0,0.2,0.1,0.2,0.2l0,3.6c0,0,0,0.1-0.1,0.1s-0.1,0-0.2,0c-0.3-1-0.7-1.8-1.4-2.3s-1.5-0.8-2.5-0.8H286
			c-0.5,0-0.9,0.1-1.1,0.4s-0.4,0.6-0.4,1.1v5.5h2.1c1,0,1.7-0.2,2.2-0.5s0.8-0.9,0.8-1.5c0,0,0-0.1,0.1-0.1c0.1,0,0.1,0,0.1,0.1
			l0,2.4l0,1.3c0,0.6,0,1.1,0,1.5c0,0,0,0-0.1,0s-0.1,0-0.1,0c0-0.7-0.3-1.3-0.8-1.7s-1.3-0.6-2.3-0.6h-2.1v6.1
			c0,0.5,0.1,0.9,0.3,1.1c0.2,0.2,0.5,0.4,0.9,0.4h0.8c1.3,0,2.4-0.3,3.1-0.9C290.5,469.3,291,468.4,291.5,467.1
			C291.4,467.1,291.4,467.1,291.5,467.1z"/>
		<path class="st5" d="M308.2,454.8c0,0.1,0,0.2-0.1,0.2c-0.4,0-0.8,0-1,0.2c-0.2,0.1-0.4,0.3-0.4,0.5s-0.1,0.7-0.1,1.2v14.6
			c0,2-0.5,3.6-1.4,4.7s-2.2,1.7-3.9,1.7c-0.6,0-1.1-0.1-1.5-0.4c-0.4-0.3-0.6-0.7-0.6-1.2c0-0.4,0.1-0.7,0.3-1s0.5-0.4,1-0.4
			c0.4,0,0.7,0.1,1,0.4s0.4,0.6,0.6,1.1c0.1,0.3,0.2,0.5,0.3,0.7c0.1,0.1,0.2,0.2,0.4,0.2c0.4,0,0.6-0.3,0.8-0.9s0.2-1.6,0.2-3
			v-16.6c0-0.5,0-0.9-0.2-1.2c-0.1-0.2-0.3-0.4-0.6-0.5c-0.3-0.1-0.7-0.1-1.4-0.1c0,0,0,0,0-0.2s0-0.2,0-0.2l1.5,0
			c0.8,0,1.5,0,1.9,0c0.5,0,1,0,1.8,0l1.2,0C308.2,454.7,308.2,454.7,308.2,454.8z"/>
		<path class="st5" d="M334.1,471.2c0,0.1,0,0.2-0.1,0.2c-0.3,0-0.9,0-1.5,0c-0.7,0-1.3,0-1.6,0c-0.4,0-0.9,0-1.5,0
			c-0.6,0-1,0-1.4,0c-0.1,0-0.1,0-0.1-0.2c0-0.1,0-0.2,0.1-0.2c0.4,0,0.8,0,0.9-0.1s0.3-0.3,0.3-0.5c0-0.3-0.2-0.8-0.5-1.5l-2.6-5.5
			h-4.5l-1.8,4.2c-0.2,0.5-0.3,1-0.3,1.5c0,0.6,0.2,1.1,0.6,1.5s1,0.5,1.7,0.5c0.1,0,0.1,0,0.1,0.2c0,0.1,0,0.2-0.1,0.2
			c-0.3,0-0.7,0-1.3,0c-0.6,0-1.2,0-1.7,0c-0.5,0-1,0-1.6,0c-0.6,0-1,0-1.4,0c-0.1,0-0.1,0-0.1-0.2c0-0.1,0-0.2,0.1-0.2
			c0.5,0,0.9-0.1,1.2-0.3s0.6-0.6,1-1.1c0.3-0.5,0.7-1.3,1.1-2.4l5.4-12.8c0,0,0.1-0.1,0.2-0.1c0.1,0,0.2,0,0.2,0.1l6.3,13.2
			c0.6,1.3,1.1,2.1,1.5,2.6c0.4,0.5,0.8,0.7,1.2,0.7C334.1,471.1,334.1,471.1,334.1,471.2z M322,462.6h3.8l-2-4.2L322,462.6z"/>
		<path class="st5" d="M346.7,459.1c0.3,0.5,0.7,0.9,1.1,1.3c0.5,0.4,1.1,0.8,1.8,1.4c0.8,0.6,1.5,1.1,2,1.5c0.5,0.4,0.9,1,1.3,1.6
			s0.5,1.3,0.5,2.1c0,0.9-0.2,1.8-0.7,2.5s-1.1,1.3-1.9,1.7c-0.8,0.4-1.8,0.6-2.8,0.6c-0.8,0-1.5-0.1-2.4-0.3
			c-0.8-0.2-1.4-0.5-1.6-0.7c-0.1-0.1-0.1-0.1-0.2-0.2s-0.1-0.2-0.1-0.3l-0.1-4.3v0c0-0.1,0-0.1,0.1-0.1c0.1,0,0.1,0,0.1,0.1
			c0.5,1.1,0.9,2,1.3,2.6s0.9,1.3,1.4,1.8s1.2,0.8,2,0.8c0.7,0,1.2-0.2,1.7-0.6c0.4-0.4,0.6-1,0.6-2c0-0.8-0.2-1.5-0.5-2.1
			s-0.7-1.1-1.2-1.5s-1.1-0.9-1.9-1.5c-0.8-0.5-1.4-1-1.9-1.4s-0.8-0.9-1.1-1.4c-0.3-0.5-0.5-1.2-0.5-2c0-1,0.2-1.8,0.8-2.4
			c0.5-0.6,1.2-1.1,2-1.5s1.6-0.5,2.5-0.5c0.6,0,1.2,0.1,1.8,0.2c0.6,0.1,1.1,0.2,1.5,0.4c0.1,0.1,0.2,0.1,0.3,0.2
			c0,0.1,0.1,0.2,0.1,0.3v3.9c0,0,0,0.1-0.1,0.1c-0.1,0-0.1,0-0.1,0l-0.2-0.5c-0.4-1.1-0.9-2.1-1.5-2.9s-1.3-1.2-2.3-1.2
			c-0.7,0-1.2,0.2-1.6,0.6c-0.4,0.4-0.6,1-0.6,1.8C346.2,458,346.4,458.6,346.7,459.1z"/>
		<path class="st5" d="M363.4,473.4c0-0.1,0-0.3,0-0.5c0-0.2,0-0.3,0-0.4c0-0.1,0-0.2,0.1-0.2h8.3c0,0,0.1,0.1,0.1,0.2
			c0,0.1,0,0.3,0,0.5c0,0.2,0,0.3,0,0.4c0,0.1,0,0.2-0.1,0.2h-8.3C363.4,473.6,363.4,473.5,363.4,473.4z"/>
		<path class="st5" d="M400.4,471.2c0,0.1,0,0.2,0,0.2c-0.6,0-1,0-1.4,0l-1.9,0l-1.9,0c-0.3,0-0.8,0-1.3,0c0,0-0.1,0-0.1-0.2
			c0-0.1,0-0.2,0.1-0.2c0.7,0,1.2-0.1,1.4-0.3s0.4-0.5,0.4-1.1l0-0.5l-0.5-11l-5.2,13c0,0.1-0.1,0.1-0.2,0.1s-0.2,0-0.2-0.1
			l-6.3-12.9l-0.2,9.7c0,1,0.2,1.7,0.5,2.3c0.4,0.5,0.9,0.8,1.6,0.8c0,0,0.1,0,0.1,0.2c0,0.1,0,0.2-0.1,0.2c-0.5,0-0.8,0-1,0l-1.4,0
			l-1.6,0c-0.3,0-0.6,0-1.1,0c0,0-0.1,0-0.1-0.2c0-0.1,0-0.2,0.1-0.2c0.7,0,1.2-0.3,1.6-0.8s0.6-1.3,0.6-2.2l0.2-11.1l0,0
			c-0.3-0.7-0.7-1.1-1-1.5c-0.4-0.3-0.8-0.5-1.2-0.5c0,0-0.1,0-0.1-0.2s0-0.2,0.1-0.2l1.2,0c0.2,0,0.5,0,0.9,0l1.3,0
			c0.1,0,0.3,0,0.6,0c0.2,0,0.4,0.1,0.5,0.2s0.3,0.5,0.6,1.1l5.5,11l4.8-11.7c0.1-0.2,0.2-0.4,0.3-0.5c0.1-0.1,0.2-0.1,0.4-0.1
			c0.1,0,0.3,0,0.5,0s0.4,0,0.7,0l1.5,0c0.2,0,0.6,0,1,0c0,0,0.1,0,0.1,0.2s0,0.2-0.1,0.2c-0.8,0-1.4,0.2-1.7,0.5
			c-0.4,0.3-0.5,0.9-0.5,1.6l0.6,12.2c0,0.5,0.1,1,0.2,1.2s0.3,0.4,0.5,0.5s0.6,0.1,1.1,0.1C400.4,471.1,400.4,471.1,400.4,471.2z"
			/>
		<path class="st5" d="M427.9,471.2c0,0.1,0,0.2-0.1,0.2c-0.3,0-0.9,0-1.5,0c-0.7,0-1.3,0-1.6,0c-0.4,0-0.9,0-1.5,0
			c-0.6,0-1,0-1.4,0c-0.1,0-0.1,0-0.1-0.2c0-0.1,0-0.2,0.1-0.2c0.4,0,0.8,0,0.9-0.1s0.3-0.3,0.3-0.5c0-0.3-0.2-0.8-0.5-1.5l-2.6-5.5
			h-4.5l-1.8,4.2c-0.2,0.5-0.3,1-0.3,1.5c0,0.6,0.2,1.1,0.6,1.5c0.4,0.4,1,0.5,1.7,0.5c0.1,0,0.1,0,0.1,0.2c0,0.1,0,0.2-0.1,0.2
			c-0.3,0-0.7,0-1.3,0c-0.6,0-1.2,0-1.6,0c-0.5,0-1,0-1.6,0c-0.6,0-1,0-1.4,0c-0.1,0-0.1,0-0.1-0.2c0-0.1,0-0.2,0.1-0.2
			c0.5,0,0.9-0.1,1.2-0.3s0.6-0.6,1-1.1s0.7-1.3,1.1-2.4l5.4-12.8c0,0,0.1-0.1,0.2-0.1c0.1,0,0.2,0,0.2,0.1l6.3,13.2
			c0.6,1.3,1.1,2.1,1.5,2.6s0.8,0.7,1.2,0.7C427.9,471.1,427.9,471.1,427.9,471.2z M415.8,462.6h3.8l-2-4.2L415.8,462.6z"/>
		<path class="st5" d="M441,469.1c0,0.5,0,0.8,0.1,1c0.1,0.2,0.2,0.3,0.4,0.4s0.5,0.1,0.9,0.1h0.9c1.3,0,2.4-0.4,3.4-1.1
			c1-0.7,1.6-1.8,1.9-3c0,0,0,0,0.1,0c0,0,0.1,0,0.1,0c0,0,0.1,0,0.1,0.1c-0.1,1.8-0.2,3.2-0.2,4.4c0,0.1,0,0.2-0.1,0.3
			s-0.2,0.1-0.3,0.1h-11.8c0,0,0,0,0-0.2c0-0.1,0-0.2,0-0.2c0.5,0,0.9,0,1.2-0.1c0.2-0.1,0.4-0.3,0.5-0.5c0.1-0.3,0.1-0.7,0.1-1.2
			v-12.4c0-0.5,0-0.9-0.1-1.2s-0.3-0.4-0.5-0.5c-0.2-0.1-0.6-0.1-1.1-0.1c0,0,0,0,0-0.2s0-0.2,0-0.2l1.3,0c0.8,0,1.4,0,1.9,0
			c0.5,0,1.1,0,1.9,0l1.3,0c0,0,0.1,0,0.1,0.2s0,0.2-0.1,0.2c-0.5,0-0.9,0-1.1,0.1s-0.4,0.3-0.5,0.5s-0.1,0.7-0.1,1.2L441,469.1
			L441,469.1z"/>
		<path class="st5" d="M475.3,471.2c0,0.1,0,0.2-0.1,0.2c-0.3,0-0.9,0-1.5,0c-0.7,0-1.3,0-1.6,0c-0.4,0-0.9,0-1.5,0
			c-0.6,0-1,0-1.4,0c-0.1,0-0.1,0-0.1-0.2c0-0.1,0-0.2,0.1-0.2c0.4,0,0.8,0,0.9-0.1s0.3-0.3,0.3-0.5c0-0.3-0.2-0.8-0.5-1.5l-2.6-5.5
			h-4.5l-1.8,4.2c-0.2,0.5-0.3,1-0.3,1.5c0,0.6,0.2,1.1,0.6,1.5c0.4,0.4,1,0.5,1.7,0.5c0.1,0,0.1,0,0.1,0.2c0,0.1,0,0.2-0.1,0.2
			c-0.3,0-0.7,0-1.3,0c-0.6,0-1.2,0-1.6,0c-0.5,0-1,0-1.6,0c-0.6,0-1,0-1.4,0c-0.1,0-0.1,0-0.1-0.2c0-0.1,0-0.2,0.1-0.2
			c0.5,0,0.9-0.1,1.2-0.3s0.6-0.6,1-1.1s0.7-1.3,1.1-2.4l5.4-12.8c0,0,0.1-0.1,0.2-0.1c0.1,0,0.2,0,0.2,0.1l6.3,13.2
			c0.6,1.3,1.1,2.1,1.5,2.6s0.8,0.7,1.2,0.7C475.2,471.1,475.3,471.1,475.3,471.2z M463.1,462.6h3.8l-2-4.2L463.1,462.6z"/>
		<path class="st5" d="M488.4,470.6c-1.4-0.8-2.4-1.8-3.1-3.1c-0.7-1.3-1.1-2.7-1.1-4.3c0-1.7,0.4-3.2,1.2-4.6s2-2.4,3.4-3.1
			c1.5-0.7,3.1-1.1,4.9-1.1c0.8,0,1.6,0.1,2.4,0.2c0.8,0.1,1.5,0.3,1.9,0.5c0.1,0,0.2,0.1,0.3,0.2c0,0.1,0.1,0.2,0.1,0.4l0.3,3.7
			c0,0,0,0.1-0.1,0.1c-0.1,0-0.1,0-0.2-0.1c-0.6-1.4-1.4-2.5-2.4-3.2s-2.2-1.1-3.5-1.1c-1.7,0-3,0.6-3.9,1.9s-1.3,3-1.3,5.2
			c0,1.8,0.3,3.4,0.9,4.7s1.4,2.5,2.4,3.2s2.1,1.1,3.4,1.1c0.7,0,1.2-0.1,1.6-0.2s0.6-0.5,0.8-0.9c0.2-0.5,0.2-1.1,0.2-2.1
			c0-0.9,0-1.6-0.1-1.9c-0.1-0.4-0.3-0.6-0.6-0.7c-0.3-0.1-0.9-0.2-1.7-0.2c-0.1,0-0.1-0.1-0.1-0.2c0,0,0-0.1,0-0.1
			c0,0,0-0.1,0.1-0.1c1.4,0.1,2.6,0.1,3.4,0.1c0.9,0,1.7,0,2.7-0.1c0,0,0.1,0,0.1,0.1c0,0,0,0.1,0,0.1c0,0.1,0,0.2-0.1,0.2
			c-0.3,0-0.5,0-0.6,0.2s-0.2,0.4-0.2,0.8s0,1.1,0,2.2c0,0.8,0,1.4,0.1,1.7s0.1,0.5,0.1,0.6c0,0.1,0,0.2-0.1,0.2
			c0,0-0.1,0.1-0.2,0.1c-2.2,0.5-4.1,0.8-5.8,0.8C491.4,471.7,489.8,471.4,488.4,470.6z"/>
		<path class="st5" d="M527,471.2c0,0.1,0,0.2-0.1,0.2c-0.3,0-0.8,0-1.5,0c-0.7,0-1.3,0-1.6,0c-0.4,0-0.9,0-1.5,0c-0.6,0-1,0-1.3,0
			c-0.1,0-0.1,0-0.1-0.2c0-0.1,0-0.2,0.1-0.2c0.4,0,0.8,0,0.9-0.1s0.3-0.3,0.3-0.5c0-0.3-0.2-0.8-0.5-1.5l-2.6-5.5h-4.5l-1.8,4.2
			c-0.2,0.5-0.3,1-0.3,1.5c0,0.6,0.2,1.1,0.6,1.5s1,0.5,1.7,0.5c0.1,0,0.1,0,0.1,0.2c0,0.1,0,0.2-0.1,0.2c-0.3,0-0.7,0-1.3,0
			c-0.6,0-1.2,0-1.6,0c-0.5,0-1,0-1.6,0c-0.6,0-1,0-1.4,0c-0.1,0-0.1,0-0.1-0.2c0-0.1,0-0.2,0.1-0.2c0.5,0,0.9-0.1,1.2-0.3
			s0.6-0.6,1-1.1s0.7-1.3,1.1-2.4l5.4-12.8c0,0,0.1-0.1,0.2-0.1c0.1,0,0.2,0,0.2,0.1l6.3,13.2c0.6,1.3,1.1,2.1,1.5,2.6
			s0.8,0.7,1.2,0.7C527,471.1,527,471.1,527,471.2z M514.8,462.6h3.8l-2-4.2L514.8,462.6z"/>
	</g>
</g>
</svg>
