<?xml version="1.0" encoding="utf-8"?>
<!-- Generator: Adobe Illustrator 26.0.1, SVG Export Plug-In . SVG Version: 6.00 Build 0)  -->
<svg version="1.1" xmlns="http://www.w3.org/2000/svg" xmlns:xlink="http://www.w3.org/1999/xlink" x="0px" y="0px"
	 viewBox="0 0 768 768" style="enable-background:new 0 0 768 768;" xml:space="preserve">
<style type="text/css">
	.st0{fill:#503C3D;}
	.st1{fill:none;stroke:#503C3D;stroke-linecap:round;stroke-linejoin:round;stroke-miterlimit:10;}
	.st2{font-family:'CormorantSC-Medium';}
	.st3{font-size:170.7017px;}
</style>
<g id="Слой_2">
	<g>
		<path class="st0" d="M192,421.93c-0.06-10.61-0.65-21.69-5.2-31.43c-3.21-6.07-7.49-11.64-11.73-17.03
			c-1.59-1.99-3.45-3.58-4.84-5.6c-0.17-0.24-0.11-0.57,0.13-0.73c1.39-0.32,2.97,1.03,3.91,1.94c5.24,5.71,9.36,12.26,13.06,19.04
			c2.8,5.81,4.06,12.2,4.87,18.55c0.62,5.06,0.92,10.17,0.8,15.26C192.97,422.55,192.01,422.6,192,421.93L192,421.93z"/>
	</g>
	<path class="st1" d="M230.05,525.83"/>
	<path class="st1" d="M269.83,544.81"/>
	<g>
		<path class="st0" d="M381.19,563.87c-7.48,3.42-15.02,6.72-22.96,8.92c-1.15,0.29-2.69,0.6-3.83,0.72
			c-5.63,0.58-11.29,0.9-16.94,1.04c-5.05,0.04-10.14,0.24-15.11-0.91c-9.78-2.61-18.72-7.43-27.3-12.67
			c-4.26-2.63-8.27-5.71-12.35-8.58c-4.12-2.81-8.38-5.37-13.07-7.13c-0.26-0.1-0.39-0.39-0.29-0.64c0.1-0.27,0.42-0.4,0.68-0.28
			c7.08,2.66,13.32,7.16,19.34,11.62c10.08,7.16,21.11,13.72,33.22,16.6c4.83,0.99,9.9,0.67,14.82,0.51
			c6.18-0.35,12.41-0.79,18.51-1.86c8.36-2.21,16.2-6.22,23.9-10.09C381.63,560.19,383.08,562.93,381.19,563.87L381.19,563.87z"/>
	</g>
	<g>
		<path class="st0" d="M352.99,578.42c0.36,0.4,0.26,0.86,0.32,1.3c0.08,1.32,0.01,2.64-0.24,3.95c-0.27,1.76-1.19,3.51-2.49,4.7
			c-3.72,3.71-8.69,5.55-13.3,7.67c-1.47,0.77-2.79,1.76-3.97,2.94c-2.39,2.36-4.4,5.15-6.48,7.85c-4.63,4.46-10.87,7.22-17.33,7.17
			c-0.65,0-0.68-1,0-1c6.17,0.1,12.28-2.54,16.67-6.83c1.84-2.43,4.08-5.5,6.47-7.87c2.37-2.55,5.78-3.88,8.87-5.19
			c3.03-1.42,6.02-3.11,8.36-5.43c2.28-1.97,2.3-5.08,2.08-7.86c0-0.41-0.18-0.8,0.05-1.24
			C352.17,578.19,352.72,578.1,352.99,578.42L352.99,578.42z"/>
	</g>
	<g>
		<path class="st0" d="M310.95,613.36c-0.68,0.41-2.27,1.33-2.47,0.01c-0.01-0.34,0.07-0.51,0.14-0.7c0.75-1.72,1.92-3.21,2.98-4.72
			c2.91-4.35,6.85-7.99,8.92-12.85c1.72-3.57,2.21-7.87,4.84-11.01c2.84-3.05,6.72-5.02,10.95-5.3c4.65-0.02,9.19,0.24,13.81-0.04
			c0,0,0.93-0.04,0.93-0.04s0.42-0.02,0.42-0.02c0.06,0,0.12-0.01,0.14,0c0.04,0.01-0.07,0.03-0.08,0.31c-0.02-0.64,1.01-0.66,1,0
			c-0.02,0.45-0.28,0.59-0.38,0.67c-0.28,0.19-0.58,0.3-0.87,0.39c-4.91,0.74-10.02,0.08-14.93,0.17
			c-4.76,0.36-10.12,3.2-11.79,7.96c-1.45,3.68-2.49,7.66-4.75,11.03c-3.11,4.26-6.65,8.19-9.54,12.6
			c-0.27,0.41-0.66,1.11-0.74,1.48c0.01,0-0.04-0.18-0.19-0.24c-0.12-0.04-0.08-0.01-0.06-0.02c0.07-0.01,0.23-0.07,0.36-0.13
			c0.45-0.12,1.13-0.85,1.51-0.23C311.26,612.92,311.18,613.22,310.95,613.36L310.95,613.36z"/>
	</g>
	<g>
		<path class="st0" d="M351.85,579.85c-2.57,2.9-5.44,6.41-9.5,7.28c0,0-1.65,0.39-1.65,0.39c-3.13,0.85-6.69,1.29-9.08,3.56
			c-0.75,0.79-1.45,1.68-2.13,2.57c-1.98,2.58-4.01,5.59-5.88,8.28c-3.73,4.33-8.07,8.01-12.66,11.43c-0.57,0.38-1.15-0.54-0.5-0.87
			c4.82-2.71,9.17-6.62,12.61-10.96c1.82-2.75,3.77-5.77,5.71-8.43c0.68-0.92,1.35-1.83,2.14-2.69c2.52-2.53,6.28-3.06,9.52-3.99
			c2.23-0.47,4.16-1.15,5.89-2.62c1.72-1.36,3.16-3.05,4.82-4.66C351.59,578.71,352.31,579.38,351.85,579.85L351.85,579.85z"/>
	</g>
	<path class="st1" d="M353.5,572.5c0,0,0,5-2,7"/>
	<g>
		<path class="st0" d="M294.97,533.03c-0.04,0.02-0.1,0.02-0.11,0.04c0,0,0.08-0.04,0.09-0.08c0.06-0.06,0.09-0.23,0.05-0.31
			c0.15,0.14,0.37,0.33,0.62,0.49c2.34,1.62,4.8,3.28,6.36,5.74c3.09,5.35,1.97,12.45,6.17,17.24c3.68,4.35,7.31,10.28,13.54,10.65
			c0.49,0.01,1.38,0.06,1.79,0.21c0.26,0.09,0.51,0.07,0.35,0.1c-0.08,0.03-0.08,0.08-0.06,0.02c0.21-0.99-0.23-2.11-0.56-3.25
			c-0.66-2.1-1.55-4.29-1.5-6.77c0.11-4.46,1.31-8.91,0.37-13.28c-1.13-3.98-4.34-7.79-8.09-9.44c-2.07-0.63-4.31-1.12-6.42-1.59
			c-3.18-0.58-6.57-1.47-9.76-0.92c-1.04,0.31-2.12,0.71-3.16,1.1c-0.26,0.1-0.55-0.03-0.65-0.29c-0.1-0.26,0.03-0.55,0.29-0.65
			c1.1-0.31,2.15-0.66,3.28-1.01c3.44-0.68,6.85,0.09,10.23,0.58c2.19,0.4,4.53,0.82,6.67,1.45c4.41,1.76,7.4,6.05,8.54,10.55
			c0.79,4.48,0.44,9.08,0.29,13.53c-0.05,1.04,0.15,2.05,0.4,3.11c0.36,2.25,3.78,9.49-1.22,7.9c-2.65-0.06-5.31-0.73-7.61-2.13
			c-4.07-2.43-6.42-6.63-8.8-10.52c-1.99-4.16-2.33-8.72-3.91-12.97c-0.89-3.17-3.46-5.38-5.96-7.38c-0.69-0.57-1.39-1.02-2-1.74
			c-0.22-0.24-0.36-0.73-0.13-1.01c0.38-0.4,0.54-0.29,0.73-0.36c0.25-0.09,0.53,0.04,0.62,0.3
			C295.57,532.69,295.28,532.95,294.97,533.03L294.97,533.03z"/>
	</g>
	<g>
		<path class="st0" d="M323.24,568.08c-2.87-3.02-4.73-6.9-6.09-10.8c-2.84-9.04-1.7-15.11-11.14-20.19
			c-2.59-1.54-5.29-2.98-8.19-3.83c-0.94-0.29-1.97-0.46-2.84-0.24c-0.74,0.23-0.95-0.98-0.15-0.99c2.22,0.07,4.14,0.72,6.12,1.52
			c3.82,1.61,7.44,3.57,10.62,6.3c4.89,4.32,4.89,11.27,6.71,17.04c0.92,2.86,2.18,5.63,3.84,8.13c0.48,0.79,1.25,1.69,1.87,2.37
			C324.4,567.88,323.68,568.56,323.24,568.08L323.24,568.08z"/>
	</g>
	<g>
		<path class="st0" d="M333.32,573.97c-3.65-1.52-6.92-3.58-10.09-5.89c-0.25-0.13-0.35-0.45-0.22-0.7
			c0.18-0.36,0.72-0.37,0.91-0.02c0.49,0.84,1.33,1.34,2.09,1.9c2.36,1.59,4.98,2.84,7.66,3.78
			C334.33,573.24,333.96,574.24,333.32,573.97L333.32,573.97z"/>
	</g>
	<g>
		<path class="st0" d="M244.04,596.22c-0.16-0.36-0.01-0.71,0.17-1c2.54-3.38,6.07-6.04,8.32-9.63c0.85-1.25,0.96-2.63,1.44-4
			c0.93-2.86,2.14-5.66,3.92-8.19c1.67-2.62,4.67-4.48,7.65-5.09c5.14-1.17,10.64-2.25,15.87-1.11c3.9,1.57,10.34,4.83,14.2,6.39
			c0.53,0.26,2.41,1.02,2.95,1.25c0.15,0.05,0.31,0.12,0.44,0.15c0.15,0.05,0.24,0.03,0.21,0.11c0.5-0.37,1.13,0.42,0.58,0.81
			c-0.36,0.25-0.65,0.26-0.87,0.27c-2.91-0.05-5.51-1.59-8.11-2.69c0,0-8.03-3.78-8.03-3.78c-1.33-0.61-2.42-1.12-3.92-1.17
			c-4.3-0.22-8.74,0.39-12.91,1.4c-2.89,0.61-5.15,1.96-6.82,4.38c-2.09,2.87-3.49,6.34-4.45,9.79c-0.7,2.29-2.4,4.01-3.92,5.71
			c-1.86,2.1-4.15,3.83-5.78,6.09c-0.02,0.06,0.01-0.09-0.04-0.13C245.23,596.36,244.32,596.81,244.04,596.22L244.04,596.22z"/>
	</g>
	<g>
		<path class="st0" d="M300.64,575.79c-0.3,0.11-0.63,0.2-0.96,0.24c-0.02-0.01-0.24,0.05,0.05-0.03c0.28-0.2,0.09-0.06,0.1-0.04
			c-3.57,4.58-7.91,9.07-13.61,10.83c-2.03,0.03-3.96-0.31-5.91-0.37c-1.87-0.11-3.75-0.2-5.59-0.15c-1.92-0.01-3.34,0.32-4.8,1.67
			c-2.92,2.39-5.49,5.17-8.54,7.47c-0.8,0.59-1.74,1.21-2.74,1.41c-4.51,0.75-9.21,1.02-13.69,0.02c-0.38-0.18-0.6-0.13-0.92-0.63
			c-0.27-0.6,0.6-1.02,0.9-0.44c-0.08-0.14-0.03-0.06,0.04-0.06c0.08,0.02,0.17,0.05,0.27,0.07c3.42,0.4,6.94,0.28,10.37,0.05
			c1.8-0.14,3.53-0.35,4.94-1.56c2.98-2.25,5.59-5.01,8.53-7.39c0.77-0.59,1.5-1.22,2.61-1.61c4.37-0.94,10.65-0.15,14.08-0.08
			c5.3-1.75,9.55-5.84,13.21-9.94c0,0,0.04-0.05,0.04-0.05c-0.02,0.02,0.09-0.13,0.25-0.2c0.52-0.14,0.58-0.02,1.05-0.18
			C300.91,574.67,301.25,575.55,300.64,575.79L300.64,575.79z"/>
	</g>
	<g>
		<path class="st0" d="M309.85,568.85c-2.19,1.86-4.2,3.93-6.66,5.44c-0.84,0.56-1.74,0.85-2.55,1.49c-0.22,0.2-0.57,0.18-0.77-0.05
			c-0.33-0.35-0.02-0.95,0.45-0.9c0.94,0.01,1.71-0.67,2.45-1.17c2.25-1.68,4.48-3.43,6.37-5.52
			C309.61,567.66,310.35,568.38,309.85,568.85L309.85,568.85z"/>
	</g>
	<path class="st1" d="M252.5,514.5c2,2,11,7,14,11s5,6,8,13s9.39,13.86,9.39,13.86"/>
	<path class="st1" d="M288.5,555.5c0,0-7-8-8-12s-3-10-6-14s-10-13-22-15"/>
	<g>
		<path class="st0" d="M212.6,537.01c7.98,1.22,16.39,0.68,24.12,3.44c6.14,2.87,12.67,5.19,19.36,6.15
			c1.21,0.15,2.39,0.23,3.58,0.12c3.69-0.23,7.08-1.86,10.65-2.67c0.51-0.11,0.83,0.63,0.39,0.92c-3.29,1.94-7.15,2.73-10.92,3.21
			c-6.38,0.2-12.52-2.06-18.41-4.23c-2.32-0.85-4.47-2.18-6.84-2.86c-4.74-1.31-9.74-1.7-14.65-2.2c-2.48-0.25-4.96-0.42-7.48-0.89
			c-0.27-0.05-0.45-0.31-0.4-0.58C212.05,537.13,212.32,536.95,212.6,537.01L212.6,537.01z"/>
	</g>
	<g>
		<path class="st0" d="M271.05,545.72c-0.64-0.49-1-1.12-1.37-1.76c-1.11-1.91-2.32-3.76-3.62-5.54c-3.42-4.6-7.6-9.13-12.98-11.25
			c-2.7-1.02-5.7-1.22-8.55-1.62c-5.82-0.76-11.71-0.05-17.01,2.54c-5.44,2.39-9.9,6.4-14.72,9.8c-3.39,0.43,5.63-6.25,6.22-6.62
			c10.42-7.75,19.88-9.24,32.42-6.45c6.87,1.65,11.95,7.15,16,12.59C268.05,538.26,274.21,546.65,271.05,545.72L271.05,545.72z"/>
	</g>
	<g>
		<path class="st0" d="M200.92,506.78c-0.1,0.86-0.71,1.22-1.2,1.68c-1.82,1.51-4.03,2.45-6.35,2.83c-2.42,0.19-4.6-1.24-6.55-2.42
			c-3.21-2.06-6.06-4.48-9.16-6.63c-1.25-0.83-2.47-1.7-3.87-2.03c-0.9-0.06-1.86-0.05-2.76-0.14c-3.85-0.37-7.62-0.89-11.19-2.63
			c-2.26-1.38-4.03-3.06-6.02-4.71c-1.91-1.64-3.79-3.3-5.65-4.99c-0.2-0.19-0.22-0.5-0.04-0.71c0.18-0.2,0.5-0.22,0.7-0.04
			c1.89,1.64,3.8,3.26,5.73,4.86c1.88,1.51,3.85,3.25,5.89,4.45c3.93,1.84,8.63,2.38,12.98,2.49c1.89,0.08,3.55,1.33,5.03,2.27
			c3.1,2.11,6.03,4.55,9.16,6.54c1.97,1.13,4.03,2.66,6.39,1.98c1.72-0.43,3.34-1.2,4.69-2.34c0.47-0.35,0.75-0.87,1.39-1.03
			C200.47,506.05,200.98,506.32,200.92,506.78L200.92,506.78z"/>
	</g>
	<g>
		<path class="st0" d="M148,486.5c-0.01-1.88,6.18-0.38,7.48-0.37c4.66,0.59,9.37,1.21,14.06,1.06c2.3-0.1,4.66-0.38,6.62-1.35
			c1.5-0.53,3.08-0.54,4.57-0.36c4.54,0.41,7.82,3.7,10.69,6.93c3.53,3.44,5.15,8.28,8.32,12.01c0.33,0.45,1.12,1.04,1.11,1.73
			c0.04,0.36-0.23,0.7-0.6,0.71c-0.84,0.01-1.3-0.88-1.78-1.39c-3.19-3.71-4.7-8.5-8.23-11.99c-1.37-1.44-2.78-3.05-4.33-4.31
			c-2.55-1.87-6.19-2.83-9.18-1.97c-1.81,0.94-4.89,1.35-7.14,1.38c-6.87,0.28-13.54-1.63-20.33-1.98
			c-0.12,0.01-0.25,0.03-0.31,0.06c-0.04,0.01-0.05,0.03-0.02,0c0.01-0.02,0.08-0.11,0.06-0.17c0,0.28-0.22,0.5-0.5,0.5
			S148,486.78,148,486.5L148,486.5z"/>
	</g>
	<g>
		<path class="st0" d="M207.61,505.99c-3.73,0.76-7.61,1.6-11.38,0.58c-0.95-0.27-1.76-0.97-2.56-1.53
			c-5.23-3.71-10.09-8.39-16.29-10.32c-3.48-1.25-7.24-1.76-10.88-0.98c-4.99-0.34-9.69-2.19-14.27-4.08
			c-1.33-0.65-2.78-1.22-3.84-2.31c-0.16-0.18-0.35-0.43-0.39-0.85c0,0-0.03-0.34-0.03-0.34c0.02-1.15,1.7-0.58,1.03,0.34
			c0.09,0.43,0.96,1.03,1.41,1.35c4.84,2.86,10.46,4.96,16.09,5.41c3.45-0.77,7.6-0.38,11.1,0.81c6.85,1.91,12.41,6.51,18,10.67
			c1.8,1.23,4.22,1.02,6.33,0.95c1.82-0.11,3.67-0.34,5.47-0.68C208.01,504.88,208.25,505.85,207.61,505.99L207.61,505.99z"/>
	</g>
	<g>
		<path class="st0" d="M196.26,477.06c3.97-2.25,7.76-4.71,11.41-7.49c3.74-2.63,7.57-5.17,10.42-8.58
			c4.52-5.23,2.97-12.92,0.75-18.82c-0.83-1.97-2.01-3.85-3.59-5.25c-0.21-0.18-0.24-0.5-0.06-0.71c0.13-0.16,0.35-0.21,0.53-0.16
			c1.28,0.39,2.18,1.38,2.86,2.36c3.15,5.01,4.25,11.15,3.65,17c-1.23,7.29-8.42,11.33-13.82,15.22c-3.68,2.7-7.64,5.13-11.68,7.31
			C196.18,478.23,195.68,477.39,196.26,477.06L196.26,477.06z"/>
	</g>
	<g>
		<path class="st0" d="M215.62,437.06c0.18,0.78-0.33,2.09-0.47,2.88c-0.75,3.03-1.67,6.24-4.37,8.27c-3.18,2.4-6.3,4.93-9.13,7.7
			c-3,2.63-4.48,6.34-5.45,10.13c-0.71,2.98-1.5,6.3-0.26,9.19c0.22,0.48,0.78,1.58,1,2.06c0.12,0.25,0.02,0.55-0.23,0.67
			c-0.25,0.12-0.55,0.01-0.67-0.24c0,0-0.68-1.32-0.68-1.32c-1.91-3.25-1.17-7.22-0.4-10.67c0.81-2.96,1.72-6.03,3.64-8.5
			c3.29-3.9,7.3-7.07,11.29-10.19c1.46-1.08,2.35-2.79,2.97-4.62c0.46-1.34,0.79-2.9,1.11-4.3c0.12-0.5,0.24-1,0.72-1.47
			C215.05,436.3,215.62,436.59,215.62,437.06L215.62,437.06z"/>
	</g>
	<g>
		<path class="st0" d="M196.14,477.9c0.04-2,1.62-4.11,2.58-5.78c3.84-6.76,11.38-10.44,15.6-16.76c1.87-4.13,4.54-15.03,0.88-18.46
			c-0.01-0.01,0.3,0.1,0.3,0.1c0.17-0.01,0.2-0.09,0.18-0.06c-0.11,0.29-0.41,0.52-0.73,0.37c-0.78-0.38,0.19-1.69,0.84-1.21
			c4.03,3.65,1.6,15.28-0.21,19.86c-2.83,4.98-7.9,8.41-11.7,12.46c-2.08,2.03-3.9,4.72-5.57,7.12c-0.62,0.73-0.94,1.62-1.2,2.55
			C196.98,478.65,196.07,478.51,196.14,477.9L196.14,477.9z"/>
	</g>
	<g>
		<path class="st0" d="M196,488.55c-0.21-3.59,0.13-7.08,0.14-10.65c-0.04-0.29,0.16-0.56,0.45-0.6c0.42-0.07,0.75,0.42,0.53,0.78
			c-0.45,0.79-0.48,1.68-0.53,2.54c-0.13,2.61,0.01,5.25,0.41,7.83C197.11,489.14,196.03,489.26,196,488.55L196,488.55z"/>
	</g>
	<g>
		<path class="st0" d="M179,460.5c-0.17-0.48-0.71-0.67-1.08-1.11c-1.03-0.98-2.41-3.84-3.2-5.04c0,0-3.98-6.69-3.98-6.69
			l-3.95-6.71c-0.65-1.11-1.3-2.27-1.95-3.35c-1.29-2.13-3.48-3.59-5.69-4.72c-8.04-4.13-18.86-2.51-25.04-10.07
			c-0.4-0.49,0.35-1.16,0.78-0.62c1.55,1.98,3.61,3.54,5.95,4.56c4.74,2.08,10.08,2.3,15,3.95c2.49,0.8,4.97,1.79,7.16,3.36
			c2.25,1.47,3.54,4,4.96,6.2c4.07,6.55,8.51,13.24,12.04,20.25c0.12,0.24,0.02,0.53-0.21,0.65
			C179.28,461.36,179.09,460.91,179,460.5L179,460.5z"/>
	</g>
	<g>
		<path class="st0" d="M134.72,422.95c0,0.32,0.08,0.81,0.24,1.18c1.11,2.9,2.85,5.65,4.88,8.01c2.47,3.15,6.18,3.9,9.85,5.29
			c2.49,0.93,5.36,1.89,7.04,4.12c2.14,2.74,3.05,5.83,4.95,8.49c1.15,1.46,2.75,2.61,4.24,3.76c3.11,2.27,6.38,4.46,9.96,5.89
			c1.03,0.35,2.44,0.87,3.38,0.36c0.24-0.14,0.54-0.06,0.68,0.18c0.14,0.24,0.06,0.54-0.17,0.68c-0.78,0.47-1.58,0.41-2.27,0.32
			c-2.02-0.34-3.87-1.24-5.65-2.15c-4.06-2.28-8.18-4.68-11.32-8.17c-1.95-2.63-3.07-5.98-5.02-8.38c-1.54-1.96-4.08-2.72-6.38-3.59
			c-2.46-0.89-4.95-1.63-7.44-2.95c-2.39-1.55-4-3.71-5.56-5.97c-1.1-1.71-2.21-3.48-2.62-5.53c-0.09-0.58-0.16-1.24,0.13-1.85
			c0.1-0.35,0.91-0.98,1.05-0.33C134.7,422.32,134.72,422.95,134.72,422.95L134.72,422.95z"/>
	</g>
	<g>
		<path class="st0" d="M189.36,465.98c-3.1-0.98-6.13-1.91-8.96-3.6c-0.62-0.43-1.44-0.98-1.48-1.89c0,0-0.01-0.14-0.01-0.14
			s-0.01-0.28-0.01-0.28c-0.65-7.04-1.52-14.14-3.29-20.99c-1.2-5.07-4.9-8.89-9.26-11.47c-5.07-3.01-11.35-2.1-17.04-2.35
			c-4.93-0.38-9.86-2.25-14.75-2.29c-0.5,0.07-0.74-0.69-0.28-0.91c1.01-0.54,1.97-0.46,3.01-0.43c2.76,0.27,5.45,0.97,8.14,1.49
			c5.37,1.21,10.87,0.28,16.3,1.24c5.52,0.94,10.58,5.29,13.32,9.73c1.81,2.95,2.2,6.09,2.92,9.32c1.03,5.6,1.77,11.23,2.11,16.92
			c0,0,0,0.16,0,0.16c0,0.03,0.01,0.02,0.01,0.03c0,0.04,0.05,0.15,0.15,0.26c2.59,2.19,6.22,3.11,9.4,4.25
			C190.24,465.19,190.01,466.17,189.36,465.98L189.36,465.98z"/>
	</g>
	<g>
		<path class="st0" d="M211.05,391.72c-0.02-0.03-0.05-0.07-0.02-0.04c0.01,0,0.05,0.06,0.19,0.09c0.14,0.03,0.29-0.05,0.32-0.09
			c-0.31,1.15-0.49,4.2-0.62,5.63c-0.21,10.72-3.98,18.67-11.59,26.11c-3.51,4.05-5.71,8.98-7.9,13.83
			c-1.72,11.88-2.95,25.96,0.07,38.28c3.83,12.23,10.47,23.74,19.41,32.97c4.44,4.68,9.15,9.12,14.2,13.13
			c1.69,1.32,3.41,2.6,5.24,3.66c0.28,0.16,0.38,0.53,0.22,0.81c-0.16,0.29-0.53,0.38-0.82,0.21c-1.91-1.11-3.66-2.42-5.37-3.76
			c-5.1-4.06-9.84-8.53-14.31-13.26c-9.05-9.38-15.76-21.03-19.64-33.48c-3-12.78-1.94-26.19,0.04-39.01
			c1.79-3.93,3.56-7.93,6.07-11.48c2.46-3.54,5.92-6.26,8.15-9.98c3.69-5.35,5.01-11.73,5.23-18.12c0,0,0.27-3.23,0.27-3.23
			c0.17-1.01,0.06-2.22,0.7-3.08c0.08-0.08,0.29-0.19,0.5-0.15c0.33,0.06,0.45,0.3,0.56,0.49
			C212.27,391.89,211.33,392.34,211.05,391.72L211.05,391.72z"/>
	</g>
	<g>
		<path class="st0" d="M189.98,442.33c1.98-5.29,4.76-10.36,9.06-14.13c2.09-1.76,3.94-3.79,5.59-5.99
			c2.21-3.04,4.29-6.14,5.69-9.65c2-5.72,1.86-12.01,1.16-17.96c0,0-0.46-3.01-0.46-3.01c-0.05-0.28,0.13-0.55,0.42-0.59
			c0.27-0.04,0.53,0.14,0.57,0.42c0,0,0.47,3.05,0.47,3.05c0.73,6.11,0.88,12.55-1.18,18.44c-1.37,3.52-3.52,6.76-5.82,9.94
			c-3.18,4.57-8.18,7.49-10.91,12.44c-1.42,2.34-2.63,4.85-3.54,7.41C190.79,443.35,189.73,443.02,189.98,442.33L189.98,442.33z"/>
	</g>
	<g>
		<path class="st0" d="M171.23,368.06c1.34,4.46,4.35,8.4,5.89,12.88c1.59,4.76,2.66,9.59,3.64,14.45
			c0.81,3.57,1.04,7.28,1.97,10.81c1.94,5.81,6.5,10.18,10.12,14.94c0.29,0.43-0.27,1-0.71,0.71c-2.08-1.45-3.49-3.55-5.11-5.45
			c-2.3-2.95-4.56-6.12-5.79-9.72c-1.82-8.37-2.82-17.1-5.58-25.23c-1.21-3.41-3.17-6.63-4.73-9.95c-0.47-1.26-1.61-2.89-0.42-4.15
			c0.07-0.05,0.16-0.04,0.22,0.03C170.73,367.39,171.23,368.06,171.23,368.06L171.23,368.06z"/>
	</g>
	<g>
		<path class="st0" d="M192.09,421.21c2.73-5.03,6.38-9.82,7.65-15.49c0.96-5.58,0.22-11.64-2.22-16.76
			c-1.21-2.66-3.24-4.75-4.98-7.07c-3.65-4.98-8.15-9.25-13.94-11.54c-2.09-0.83-5.52-1.91-7.1-1.96c-0.16,0.09,0.01,0.13,0.14,0.05
			c-0.41,0.42-1.09,0.43-1.52,0.02c-0.93-1.01,0.27-2.13,1.37-1.88c2.55,0.79,5.18,1.37,7.66,2.4c5.97,2.36,10.81,6.92,14.5,12.03
			c1.78,2.37,3.87,4.59,5.11,7.33c3.1,6.76,3.95,15.04,0.9,21.95C199.4,411.33,192.26,425.19,192.09,421.21L192.09,421.21z"/>
	</g>
	<circle class="st1" cx="152" cy="401" r="2.5"/>
	<circle class="st1" cx="221" cy="479" r="2.5"/>
	<circle class="st1" cx="196" cy="528" r="2.5"/>
	<circle class="st1" cx="234" cy="568" r="2.5"/>
	<circle class="st1" cx="341" cy="555" r="2.5"/>
	<circle class="st1" cx="382" cy="580" r="2.5"/>
	<g>
		<path class="st0" d="M297.63,575.8c-2.52,0.52-4.99,0.22-7.48,0.15c-5.51-0.13-11.14-0.56-16.6,0.09
			c-1.73,0.37-3.11,1.48-4.58,2.47c-4.92,3.61-9.57,7.96-14.02,12.21c-3.08,2.35-6.68,3.5-10.1,5.2c-0.25,0.11-0.55,0-0.66-0.25
			c-0.12-0.26,0.01-0.57,0.28-0.67c3.31-1.39,7.04-2.68,9.82-4.94c4.38-4.44,8.83-8.89,13.77-12.77c2.02-1.61,4.42-3.14,7.11-3.18
			C276.53,573.82,301.56,573.17,297.63,575.8L297.63,575.8z"/>
	</g>
	<g>
		<path class="st0" d="M268.76,545.25c-4.21-2.25-8.58-4.27-13.05-5.95c-4.48-1.65-9.06-3.12-13.82-3.09
			c-6.89-0.13-14.56,0.75-21.46,1.48c-2.39,0.21-4.78,0.4-7.19,0.44c-0.57,0.02-0.72-0.85-0.13-0.99c4.71-1.15,9.53-1.52,14.34-1.82
			c4.81-0.3,9.64-0.5,14.48-0.3c4.87,0.15,9.62,1.59,14.13,3.33c4.51,1.75,8.87,3.8,13.16,6.03
			C269.81,544.67,269.36,545.57,268.76,545.25L268.76,545.25z"/>
	</g>
	<path class="st1" d="M190.8,438.5c-0.6-1.57-0.07-3.32,0.4-4.93c0.39-1.37,0.73-2.75,0.98-4.15c0.44-2.55,0.54-5.16,0.29-7.73"/>
	<g>
		<path class="st0" d="M571.27,421.94c-0.07-10.82,0.82-22,4.98-32.1c3.67-7.53,8.41-14.57,14.04-20.77
			c0.94-0.96,2.19-1.84,3.57-2.01c0.44-0.06,0.76,0.48,0.49,0.83c-1.41,2.02-3.29,3.59-4.9,5.58c-4.47,5.62-9.04,11.4-12.3,17.82
			c-4.2,9.58-4.85,20.3-4.88,30.65C572.27,422.53,571.29,422.62,571.27,421.94L571.27,421.94z"/>
	</g>
	<path class="st1" d="M533.67,525.83"/>
	<path class="st1" d="M493.32,544.81"/>
	<g>
		<path class="st0" d="M381.74,561.12c7.26,3.64,14.68,7.25,22.47,9.63c1.08,0.3,2.47,0.63,3.57,0.79
			c5.62,0.75,11.29,1.27,16.96,1.54c4.98,0.16,10.11,0.48,15.01-0.49c4.89-1.06,9.63-2.91,14.21-5.02
			c5.68-2.66,11.21-5.92,16.42-9.41c7.29-5.04,14.37-10.75,22.8-13.82c0.26-0.1,0.55,0.04,0.64,0.29s-0.04,0.55-0.29,0.64
			c-8.39,3.05-15.29,8.75-22.61,13.69c-9.63,6.15-19.8,11.76-30.92,14.71c-5.04,1.13-10.19,0.93-15.3,0.89
			c-5.09-0.13-10.16-0.4-15.24-0.86c-5.14-0.31-10.15-2.14-14.94-3.9c-4.79-1.8-9.47-3.79-14.12-5.93
			c-0.77-0.35-1.11-1.27-0.76-2.04C379.99,561.04,380.96,560.71,381.74,561.12L381.74,561.12z"/>
	</g>
	<g>
		<path class="st0" d="M409.95,578.58c0.23,0.44,0.05,0.83,0.05,1.25c-0.12,1.99-0.22,4.18,0.66,6c3.33,4.97,9.46,6.89,14.68,9.36
			c1.56,0.81,3,1.88,4.24,3.1c2.42,2.37,4.71,5.45,6.58,7.88c2.22,2.18,4.94,3.85,7.81,5.07c2.88,1.3,6,1.73,9.12,1.76
			c0.28,0,0.5,0.23,0.49,0.51c0,0.28-0.23,0.5-0.51,0.49c-3.23-0.05-6.53-0.54-9.48-1.9c-2.96-1.29-5.76-2.99-8.1-5.27
			c-2.11-2.7-4.16-5.5-6.58-7.86c-2.41-2.51-5.54-3.64-8.7-4.97c-3.85-1.86-8.03-3.95-10.46-7.7c-1.03-2.04-1.22-4.33-1.12-6.57
			c0.06-0.44-0.04-0.9,0.32-1.31C409.24,578.1,409.79,578.19,409.95,578.58L409.95,578.58z"/>
	</g>
	<g>
		<path class="st0" d="M452.11,612.49c0.39,0.21,0.82,0.44,1.21,0.54c0.02,0.01,0.07-0.01-0.04,0.02c-0.13,0.04-0.21,0.23-0.2,0.24
			c-0.63-1.67-1.99-3.2-3.05-4.68c-2.41-3.19-5.01-6.2-7.41-9.42c-2.28-3.39-3.34-7.4-4.83-11.1c-1.71-4.72-7.25-7.55-12.02-7.86
			c-4.63,0-9.36,0.34-14.02,0.02c-0.65-0.08-1.33-0.19-1.92-0.58c-0.19-0.13-0.39-0.34-0.38-0.67c0-0.28,0.22-0.5,0.5-0.5
			s0.5,0.22,0.5,0.5c-0.01-0.29-0.12-0.3-0.08-0.31c0.02-0.01,0.08,0,0.14,0c0,0,0.42,0.02,0.42,0.02
			c4.96,0.31,9.86,0.08,14.85,0.07c4.26,0.25,8.18,2.18,11.1,5.19c2.73,3.11,3.23,7.48,4.98,11.06c2.1,4.9,6.1,8.53,9.06,12.9
			c1.07,1.52,2.27,3.01,3.03,4.73c0.06,0.19,0.15,0.36,0.14,0.71c-0.23,1.32-1.81,0.37-2.5-0.02
			C451.05,613.03,451.55,612.18,452.11,612.49L452.11,612.49z"/>
	</g>
	<g>
		<path class="st0" d="M410.83,579.14c2.47,2.35,4.56,4.99,7.67,6.36c3.15,1.12,6.65,1.54,9.81,2.92c2.24,0.78,3.85,2.77,5.2,4.65
			c1.97,2.66,3.97,5.7,5.82,8.46c3.5,4.35,7.92,8.25,12.79,10.96c0.62,0.29,0.11,1.27-0.49,0.87c-4.65-3.42-9.05-7.09-12.84-11.44
			c-1.9-2.71-3.97-5.71-5.98-8.31c-1.37-1.77-2.68-3.49-4.88-4.25c-3.11-1.3-6.66-1.66-9.87-2.77c-3.28-1.34-5.65-4.25-7.91-6.73
			C409.69,579.41,410.35,578.69,410.83,579.14L410.83,579.14z"/>
	</g>
	<path class="st1" d="M408.45,572.5c0,0,0,5,2.03,7"/>
	<g>
		<path class="st0" d="M467.97,532.04c0.19,0.07,0.36-0.04,0.73,0.35c0.07,0.09,0.13,0.27,0.13,0.41c-0.2,1.04-1.57,1.68-2.28,2.35
			c-2.53,2-5.14,4.2-6.05,7.38c-1.61,4.27-1.94,8.87-4,13.03c-2.43,3.9-4.82,8.11-8.95,10.5c-2.33,1.38-5,2.02-7.66,2.09
			c-0.3-0.01-0.77,0.19-1.16,0.23c-0.2,0.02-0.48,0.04-0.81-0.12c-0.33-0.18-0.48-0.46-0.57-0.67c-0.45-1.43,0.08-2.83,0.43-4.17
			c0.58-2.1,1.37-4.2,1.3-6.35c-0.33-8.19-1.34-16.64,5.96-22.32c2.72-2.28,6.56-2.47,9.85-3.17c2.24-0.37,4.49-0.71,6.78-0.81
			c2.28-0.26,4.59,0.58,6.76,1.24c0.27,0.07,0.42,0.35,0.35,0.61c-0.08,0.28-0.39,0.44-0.66,0.34c-1.05-0.39-2.13-0.79-3.18-1.1
			c-3.21-0.56-6.63,0.33-9.83,0.9c-2.11,0.46-4.43,0.96-6.48,1.57c-1.94,0.7-3.64,2.15-5.07,3.76c-5.41,5.39-3.22,12.18-2.9,18.94
			c0.2,3.57-2.16,7.02-2.14,10.06c-0.07-0.03-0.05-0.01,0.02-0.02c0.09-0.02,0.2-0.04,0.33-0.08c0.41-0.13,1.3-0.21,1.8-0.21
			c4.48-0.16,7.73-3.5,10.52-6.7c1.36-1.67,2.91-3.43,4.17-5.19c3.86-5.61,2.01-14.08,7.67-18.68c1.41-1.31,3.2-2.34,4.69-3.51
			c0.04-0.04,0.03-0.04,0.05-0.05c-0.02,0.03-0.02,0.07-0.02,0.1c-0.02,0.11,0.07,0.26,0.15,0.29c-0.02-0.02-0.08-0.02-0.12-0.04
			C467.06,532.88,467.23,531.87,467.97,532.04L467.97,532.04z"/>
	</g>
	<g>
		<path class="st0" d="M438.45,567.35c2.73-2.95,4.48-6.7,5.75-10.48c1.85-5.79,1.87-12.82,6.88-17.08
			c3.22-2.7,6.88-4.66,10.73-6.25c2-0.79,3.93-1.43,6.16-1.5c0.77,0.02,0.61,1.2-0.15,0.99c-1.88-0.4-3.94,0.57-5.71,1.24
			c-3.66,1.63-7.34,3.64-10.35,6.27c-4.62,4.35-4.36,10.94-6.43,16.71c-0.68,1.97-1.51,3.89-2.52,5.71c-1,1.82-2.2,3.63-3.67,5.11
			C438.67,568.57,437.92,567.83,438.45,567.35L438.45,567.35z"/>
	</g>
	<g>
		<path class="st0" d="M428.56,573.03c2.71-0.93,5.37-2.18,7.76-3.78c0.77-0.56,1.62-1.05,2.12-1.9c0.15-0.25,0.46-0.33,0.71-0.19
			c0.25,0.15,0.33,0.46,0.19,0.71c-3.21,2.47-6.68,4.51-10.44,6.09C428.28,574.23,427.9,573.25,428.56,573.03L428.56,573.03z"/>
	</g>
	<g>
		<path class="st0" d="M518.58,595.78c-0.06,0.05-0.02,0.19-0.04,0.13c-1.67-2.27-3.99-4-5.88-6.11c-1.54-1.7-3.29-3.44-3.97-5.74
			c-0.98-3.48-2.43-6.97-4.57-9.84c-1.72-2.43-4.05-3.71-6.97-4.31c-4.22-0.99-8.71-1.59-13.04-1.36c-1.51,0.05-2.63,0.58-3.97,1.19
			c0,0-8.13,3.77-8.13,3.77c-2.43,1.05-4.85,2.34-7.53,2.67c-0.55,0.01-0.93,0.12-1.53-0.26c-0.51-0.37,0.02-1.2,0.58-0.82
			c-0.02-0.08,0.07-0.05,0.22-0.11c0.13-0.03,0.3-0.09,0.45-0.15c0.57-0.23,2.38-0.98,2.99-1.24c3.89-1.55,10.44-4.81,14.36-6.37
			c2.33-0.7,4.69-0.49,7.03-0.37c4.58,0.47,9.23,0.89,13.38,3.13c3.94,2.67,5.95,7.24,7.44,11.53c1,5.64,6.07,9.02,9.56,13.19
			c0.31,0.42,0.77,0.93,0.53,1.52C519.17,596.8,518.3,596.37,518.58,595.78L518.58,595.78z"/>
	</g>
	<g>
		<path class="st0" d="M462.38,574.84c0.44,0.15,0.59,0.07,1.04,0.17c0.23,0.1,0.26,0.21,0.32,0.26c3.4,4.02,8.92,8.55,13.18,9.91
			c3.72-0.07,7.6-0.45,11.47-0.29c2.05-0.02,4.16,0.59,5.66,1.99c2.99,2.38,5.65,5.16,8.69,7.41c0.73,0.51,1.4,0.98,2.28,1.17
			c3.65,0.69,7.5,0.6,11.21,0.51c0.78-0.05,1.57-0.06,2.31-0.25c0.08-0.01,0.13-0.09,0.04,0.05c0.12-0.25,0.42-0.35,0.67-0.23
			c1.65,1.73-4.96,1.88-5.82,1.9c-2.93,0.02-5.83-0.03-8.73-0.62c-1.01-0.2-1.97-0.81-2.79-1.4c-3.1-2.31-5.73-5.11-8.7-7.5
			c-1.48-1.36-2.94-1.67-4.88-1.66c-1.87-0.04-3.77,0.04-5.66,0.15c-1.98,0.06-3.93,0.39-5.98,0.37
			c-5.76-1.75-10.17-6.24-13.81-10.83c0-0.04-0.16-0.13,0.12,0.05c0.12,0.04,0.17,0.03,0.11,0.03c-0.36-0.02-0.72-0.12-1.05-0.24
			C461.49,575.58,461.76,574.66,462.38,574.84L462.38,574.84z"/>
	</g>
	<g>
		<path class="st0" d="M453.43,568.14c2.2,2.35,4.92,4.56,7.64,6.29c0.41,0.22,0.84,0.44,1.33,0.4c0.71-0.03,0.76,1.05,0.05,1.08
			c-1.83-0.95-3.74-1.93-5.33-3.3c-1.45-1.28-2.96-2.46-4.39-3.77c-0.2-0.19-0.22-0.5-0.03-0.71
			C452.89,567.93,453.23,567.93,453.43,568.14L453.43,568.14z"/>
	</g>
	<path class="st1" d="M510.9,514.5c-2.03,2-11.16,7-14.2,11s-5.07,6-8.12,13c-3.04,7-9.53,13.86-9.53,13.86"/>
	<path class="st1" d="M474.38,555.5c0,0,7.1-8,8.12-12c1.01-4,3.04-10,6.09-14c3.04-4,10.14-13,22.32-15"/>
	<g>
		<path class="st0" d="M551.57,537.99c-7.47,1.23-15.13,1.1-22.43,3.09c-2.41,0.68-4.59,2.01-6.94,2.86
			c-5.98,2.17-12.21,4.42-18.67,4.23c-3.82-0.48-7.73-1.26-11.08-3.21c-0.23-0.17-0.28-0.49-0.12-0.72
			c0.12-0.16,0.31-0.23,0.49-0.21c1.27,0.18,2.42,0.66,3.61,1.05c2.34,0.76,4.77,1.42,7.21,1.63c6.18,0.2,12.26-1.97,18.06-4.03
			c2.4-0.86,4.6-2.18,7.08-2.86c2.5-0.69,5.02-1.07,7.54-1.38c4.99-0.63,10.12-0.69,15.05-1.43
			C552,536.88,552.24,537.86,551.57,537.99L551.57,537.99z"/>
	</g>
	<g>
		<path class="st0" d="M491.18,545.27c0.06-0.85,0.42-1.52,0.82-2.18c1.16-1.98,2.42-3.89,3.78-5.74c3.69-4.9,8.09-9.61,13.98-11.89
			c1.43-0.58,3.06-0.86,4.56-1.1c4.54-0.73,9.16-1.23,13.77-0.53c6.13,0.9,11.77,3.86,16.74,7.42c2.49,1.76,4.91,3.62,6.98,5.87
			c0.19,0.2,0.18,0.52-0.03,0.71c-0.18,0.16-0.44,0.17-0.63,0.04c-4.87-3.41-9.41-7.41-14.91-9.79c-6.75-3.36-14.37-3.25-21.64-1.94
			c-4.4,0.48-8.25,2.65-11.53,5.64c-3.28,2.97-6.05,6.55-8.45,10.27C494.07,542.76,491.84,547.51,491.18,545.27L491.18,545.27z"/>
	</g>
	<g>
		<path class="st0" d="M564.06,506.22c0.65,0.16,0.94,0.68,1.41,1.03c1.74,1.38,4.12,2.55,6.36,2.5c4.2-0.92,7.55-4.08,11.06-6.48
			c2.56-1.68,5.01-4.13,8.21-4.48c4.4-0.11,9.15-0.65,13.14-2.48c4.2-2.63,7.98-6.16,11.81-9.32c0.21-0.18,0.52-0.16,0.71,0.05
			c0.18,0.21,0.16,0.52-0.05,0.7c-2.85,2.53-5.72,5.04-8.69,7.43c-4.41,4.02-10.73,4.68-16.43,4.99c-0.57-0.01-1.09,0.04-1.63,0.26
			c-2.21,0.95-4.25,2.57-6.22,4c-3.67,2.54-7.19,5.9-11.73,6.83c-2.07,0.17-4.08-0.7-5.89-1.66c-0.59-0.33-1.15-0.72-1.67-1.15
			c-0.5-0.46-1.12-0.83-1.23-1.69C563.19,506.31,563.65,506.05,564.06,506.22L564.06,506.22z"/>
	</g>
	<g>
		<path class="st0" d="M615.9,486.5c-0.02,0.06,0.05,0.16,0.06,0.17c0.03,0.02,0.01,0-0.03,0c-2.13-0.23-4.33,0.36-6.46,0.6
			c-4.79,0.71-9.59,1.43-14.47,1.32c-2.28-0.04-5.4-0.44-7.24-1.38c-3.03-0.85-6.69,0.1-9.29,1.94c-1.58,1.25-3,2.86-4.4,4.3
			c-3.07,2.98-4.63,6.91-7.05,10.32c-0.62,0.85-1.34,1.73-2.04,2.51c-0.24,0.27-0.52,0.51-0.99,0.57c-0.41,0.06-0.76-0.31-0.7-0.71
			c0.02-0.72,0.75-1.23,1.13-1.74c3.22-3.73,4.88-8.61,8.47-12.04c2.93-3.25,6.23-6.48,10.83-6.89c1.5-0.18,3.08-0.17,4.6,0.36
			c1.99,0.97,4.39,1.25,6.72,1.35c4.76,0.15,9.53-0.47,14.27-1.06c2.13-0.23,4.25-0.65,6.41-0.53c0.48,0.03,1.18,0.27,1.18,0.9
			C616.88,487.16,615.91,487.15,615.9,486.5L615.9,486.5z"/>
	</g>
	<g>
		<path class="st0" d="M556.65,505.01c2.72,0.48,5.52,0.81,8.28,0.71c1.34-0.08,2.59-0.21,3.68-0.98c0.74-0.48,2.64-1.93,3.39-2.48
			c4.49-3.48,9.38-6.62,14.9-8.2c3.54-1.18,7.74-1.56,11.23-0.8c3.27-0.13,6.52-1.17,9.61-2.26c2.66-1.02,5.43-2.07,7.65-3.87
			c0.28-0.22,0.53-0.61,0.5-0.64c-0.24-0.24-0.25-0.62-0.01-0.86c0.37-0.41,1.12-0.07,1.05,0.48c0,0.47-0.16,1.01-0.43,1.24
			c-1.09,1.09-2.55,1.66-3.9,2.31c-4.64,1.89-9.41,3.73-14.46,4.07c-1.85-0.35-3.73-0.49-5.6-0.28c-5.6,0.64-10.77,3.15-15.17,6.59
			c-2.62,1.86-5.35,3.97-7.99,5.83c-2.13,1.42-4.88,1.18-7.29,1.04c-1.91-0.18-3.78-0.5-5.65-0.93c-0.27-0.06-0.44-0.33-0.38-0.6
			C556.12,505.12,556.39,504.96,556.65,505.01L556.65,505.01z"/>
	</g>
	<g>
		<path class="st0" d="M567.47,477.94c-4.07-2.17-8.07-4.59-11.79-7.28c-3.77-2.59-7.75-5.1-10.89-8.7
			c-3.4-3.59-3.82-8.86-3.05-13.56c0.56-3.5,1.56-7.02,3.58-10c0.7-0.98,1.61-1.97,2.9-2.35c0.27-0.08,0.55,0.07,0.63,0.34
			c0.06,0.2-0.01,0.41-0.16,0.53c-1.6,1.4-2.81,3.28-3.65,5.26c-2.28,5.94-3.82,13.66,0.82,18.88c2.91,3.4,6.78,5.92,10.56,8.54
			c3.69,2.77,7.53,5.21,11.53,7.45C568.5,477.35,568.06,478.26,567.47,477.94L567.47,477.94z"/>
	</g>
	<g>
		<path class="st0" d="M549.23,436.64c0.78,0.75,0.79,2.01,1.07,2.95c0.64,2.71,1.54,5.79,3.81,7.45c3.24,2.45,6.38,5,9.31,7.86
			c3.17,2.78,4.83,6.78,5.82,10.79c0.79,3.46,1.55,7.46-0.39,10.71c0,0-0.69,1.32-0.69,1.32c-0.12,0.25-0.43,0.36-0.68,0.23
			c-0.24-0.13-0.34-0.42-0.22-0.66c0.25-0.48,0.78-1.61,1.02-2.06c0.5-1.05,0.66-2.21,0.65-3.41c-0.11-3.88-1.31-7.84-2.92-11.36
			c-0.82-1.81-2.13-3.19-3.54-4.57c-2.87-2.76-6.01-5.28-9.22-7.66c-2.65-1.92-3.7-5.24-4.44-8.27c-0.15-0.83-0.68-2.18-0.45-3.03
			C548.41,436.52,548.94,436.35,549.23,436.64L549.23,436.64z"/>
	</g>
	<g>
		<path class="st0" d="M567.08,478.08c-0.28-0.96-0.56-1.78-1.21-2.55c0,0-1.79-2.52-1.79-2.52c-4.29-6.48-11.63-10.3-15.7-17
			c-1.87-4.58-4.34-16.26-0.24-19.92c0.65-0.46,1.62,0.81,0.86,1.21c-0.32,0.17-0.63-0.08-0.74-0.37c-0.02-0.03,0.02,0.05,0.18,0.06
			c0,0,0.31-0.1,0.3-0.1c-3.57,3.32-1.15,13.03,0.32,17.16c0.62,1.91,1.97,3.32,3.39,4.71c4.28,4.32,9.8,7.96,13,13.34
			c0,0,1.6,2.64,1.6,2.64c0.62,0.93,0.93,2.06,1.03,3.14c0.03,0.28-0.17,0.52-0.44,0.55C567.37,478.48,567.15,478.31,567.08,478.08
			L567.08,478.08z"/>
	</g>
	<g>
		<path class="st0" d="M567.21,488.45c0.4-2.57,0.55-5.22,0.41-7.83c-0.05-0.86-0.09-1.75-0.54-2.54c-0.14-0.25-0.06-0.58,0.2-0.72
			c0.25-0.14,0.58-0.06,0.72,0.2c0.18,3.66,0.37,7.3,0.2,10.99C568.17,489.25,567.09,489.15,567.21,488.45L567.21,488.45z"/>
	</g>
	<g>
		<path class="st0" d="M584.45,460.5c4.28-8.24,9.49-15.93,14.42-23.65c6.01-7.7,17.07-6.66,25.31-10.11
			c2.36-1.01,4.45-2.57,6.03-4.55c0.17-0.22,0.49-0.25,0.7-0.08c0.22,0.17,0.25,0.5,0.07,0.71c-3.48,4.24-8.97,5.82-14.12,6.78
			c-5.02,0.98-10.31,2.12-14.45,5.23c-2.16,1.52-3.21,3.86-4.54,6.05c-1.99,3.36-6.05,10.11-8.08,13.46
			c-0.78,1.18-2.21,4.06-3.25,5.06c-0.37,0.43-0.92,0.63-1.1,1.11c0,0-0.11,0.36-0.11,0.36
			C585.15,461.49,584.14,461.14,584.45,460.5L584.45,460.5z"/>
	</g>
	<g>
		<path class="st0" d="M630.82,422.05c2.39,1.44-0.89,6.4-1.93,8.02c-1.6,2.27-3.24,4.44-5.67,5.96c-2.51,1.3-5.02,2.04-7.51,2.92
			c-2.32,0.87-4.88,1.62-6.45,3.59c-1.98,2.41-3.13,5.79-5.12,8.41c-1.33,1.61-3.02,2.76-4.66,3.97c-3.87,2.59-7.89,5.33-12.53,6.3
			c-0.69,0.08-1.49,0.15-2.28-0.32c-0.24-0.14-0.32-0.45-0.18-0.68c0.15-0.26,0.48-0.32,0.72-0.15c0.95,0.46,2.36-0.03,3.38-0.38
			c3.62-1.42,6.94-3.6,10.09-5.87c1.51-1.14,3.14-2.29,4.32-3.75c1.95-2.67,2.87-5.77,5.04-8.53c1.71-2.23,4.6-3.18,7.12-4.11
			c2.48-0.89,5.04-1.69,7.22-2.83c2.05-1.29,3.71-3.46,5.1-5.48c1.12-1.81,2.67-4.14,2.88-6.19c0,0-0.14-0.3-0.14-0.3
			C630.06,422.3,630.47,421.89,630.82,422.05L630.82,422.05z"/>
	</g>
	<g>
		<path class="st0" d="M574.66,465.02c2.94-0.96,6.05-1.97,8.68-3.55c0.38-0.26,0.84-0.57,1.01-0.94c0.12-2.53,0.4-5.09,0.7-7.62
			c0.38-3.17,0.85-6.34,1.45-9.49c0.73-3.24,1.13-6.4,2.97-9.35c2.56-4.15,7.17-8.01,12.14-9.46c5.92-1.38,12.02-0.21,17.92-1.51
			c2.72-0.52,5.45-1.22,8.24-1.48c1.05-0.04,2.02-0.11,3.04,0.43c0.45,0.24,0.24,0.97-0.28,0.91c-4.96,0.04-9.95,1.9-14.94,2.29
			c-5.73,0.26-12.14-0.66-17.27,2.33c-4.42,2.57-8.21,6.38-9.44,11.51c-1.88,7.11-2.71,14.5-3.43,21.81
			c-0.29,0.75-0.92,1.14-1.51,1.53c-2.86,1.66-5.9,2.58-9.01,3.55C574.34,466.14,574.02,465.22,574.66,465.02L574.66,465.02z"/>
	</g>
	<g>
		<path class="st0" d="M552.04,391.27c0.05-0.09,0.08-0.17,0.21-0.3c0.06-0.05,0.15-0.15,0.35-0.19c0.2-0.05,0.42,0.06,0.5,0.14
			c0.44,0.52,0.39,0.9,0.52,1.46c0.49,3.67,0.57,7.65,1.08,11.29c0.69,4.15,2.36,8.2,4.72,11.72c2.26,3.71,5.76,6.41,8.25,9.95
			c2.55,3.55,4.35,7.54,6.16,11.48c2.01,12.86,3.1,26.33,0.01,39.15c-3.98,12.47-10.81,24.1-19.97,33.44
			c-4.53,4.71-9.32,9.16-14.47,13.2c-1.72,1.33-3.5,2.64-5.42,3.73c-0.28,0.17-0.65,0.07-0.81-0.21c-0.17-0.28-0.07-0.65,0.22-0.81
			c7.32-4.51,13.62-10.6,19.64-16.71c9.05-9.19,15.81-20.68,19.74-32.93c3.11-12.35,1.85-26.5,0.1-38.4
			c-1.8-3.91-3.55-7.83-6.05-11.33c-2.49-3.53-5.98-6.25-8.25-9.98c-2.43-3.65-4.14-7.78-4.86-12.15c-0.51-3.69-0.58-7.6-1.06-11.28
			c-0.04-0.25-0.09-0.51-0.15-0.73c-0.01-0.09-0.12-0.24-0.02-0.12c0.03,0.04,0.18,0.11,0.32,0.08c0.13-0.03,0.17-0.08,0.18-0.09
			c0.03-0.03,0,0.01-0.02,0.04C552.64,392.35,551.71,391.87,552.04,391.27L552.04,391.27z"/>
	</g>
	<g>
		<path class="st0" d="M573.27,442.68c-1.9-5.06-4.7-10.1-8.84-13.66c-2.18-1.82-4.11-3.92-5.81-6.16
			c-2.33-3.18-4.51-6.41-5.91-9.94c-2.08-5.88-1.94-12.33-1.2-18.45c0,0,0.48-3.05,0.48-3.05c0.04-0.27,0.3-0.46,0.57-0.42
			c0.28,0.04,0.47,0.31,0.41,0.59c0,0-0.47,3.01-0.47,3.01c-0.71,5.95-0.86,12.25,1.18,17.96c2.6,5.93,6.52,11.4,11.43,15.63
			c2.2,1.85,3.98,4.11,5.48,6.51c1.49,2.41,2.74,4.94,3.72,7.62c0.1,0.29-0.04,0.6-0.33,0.71
			C573.69,443.14,573.36,442.98,573.27,442.68L573.27,442.68z"/>
	</g>
	<g>
		<path class="st0" d="M594.05,367.36c1.69,1.51-1.44,5.81-2.13,7.49c-1.14,2.19-2.29,4.36-3.09,6.61
			c-2.81,8.14-3.81,16.9-5.67,25.28c-1.26,3.61-3.54,6.75-5.87,9.7c-1.64,1.9-3.07,3.98-5.18,5.41c-0.44,0.28-1-0.27-0.7-0.71
			c3.64-4.77,8.26-9.11,10.24-14.91c0.96-3.53,1.19-7.25,2.01-10.83c1-4.87,2.08-9.7,3.7-14.47c1.31-3.58,3.28-6.7,4.91-10.06
			c0.43-0.79,0.86-2.17,1.06-2.82c0,0,0.51-0.68,0.51-0.68C593.9,367.32,593.99,367.31,594.05,367.36L594.05,367.36z"/>
	</g>
	<g>
		<path class="st0" d="M571.35,421.79c-2.33-1.99-3.48-4.83-5.05-7.38c-1.44-2.69-2.82-5.37-3.47-8.41
			c-1.24-7.48,0.23-15.66,5-21.68c2.87-3.45,5.4-7.08,8.83-10.07c2.57-2.25,5.55-3.98,8.69-5.29c2.5-1.02,5.15-1.59,7.71-2.37
			c1.08-0.22,2.33,0.81,1.39,1.88c-0.42,0.42-1.1,0.41-1.52-0.01c0.1,0.05,0.18,0.04,0.2,0.02c0.02-0.02-0.01-0.06-0.07-0.08
			c-1.63,0.07-5.03,1.11-7.15,1.95c-5.82,2.27-10.4,6.49-14.07,11.5c-1.74,2.32-3.78,4.42-5.01,7.07
			c-2.47,5.1-3.19,11.17-2.23,16.72c0.95,4.17,3.28,8.02,5.48,11.68C570.5,418.07,573.63,422.37,571.35,421.79L571.35,421.79z"/>
	</g>
	<ellipse class="st1" cx="606.85" cy="401" rx="2.54" ry="2.5"/>
	<ellipse class="st1" cx="548.94" cy="482" rx="2.44" ry="2.5"/>
	<ellipse class="st1" cx="573.21" cy="529" rx="2.54" ry="2.5"/>
	<ellipse class="st1" cx="535.67" cy="576" rx="2.54" ry="2.5"/>
	<ellipse class="st1" cx="422.13" cy="553" rx="2.54" ry="2.5"/>
	<g>
		<path class="st0" d="M465.06,574.8c2.49-0.81,5.02-0.73,7.55-0.84c5.09-0.13,10.13-0.3,15.23,0.13c2.72,0.03,5.16,1.52,7.21,3.15
			c5.03,3.88,9.57,8.35,14.02,12.81c2.83,2.27,6.61,3.55,9.97,4.95c0.26,0.1,0.39,0.39,0.29,0.65c-0.1,0.27-0.41,0.39-0.67,0.28
			c-3.47-1.7-7.11-2.84-10.25-5.2c-5.48-5.01-10.93-10.49-17.37-14.16c-1.08-0.58-2.16-0.63-3.35-0.73
			c-4.96-0.26-10.03-0.05-15.01,0.12C471.73,575.94,462.85,576.72,465.06,574.8L465.06,574.8z"/>
	</g>
	<g>
		<path class="st0" d="M493.93,544.37c8.73-4.26,17.82-8.87,27.7-9.36c9.78-0.14,19.62,0.08,29.21,2.12
			c0.56,0.13,0.48,1.01-0.13,0.99c-2.44-0.04-4.86-0.23-7.28-0.44c-7.01-0.73-14.75-1.61-21.75-1.48
			c-9.59,0.25-18.8,4.85-27.28,9.05C493.84,545.56,493.32,544.68,493.93,544.37L493.93,544.37z"/>
	</g>
	<path class="st1" d="M573.48,438.5c0.61-1.57,0.07-3.32-0.4-4.93c-0.4-1.37-0.75-2.75-0.99-4.15c-0.44-2.55-0.55-5.16-0.3-7.73"/>
</g>
<g id="Слой_6">
	<g>
		<path class="st0" d="M314.2,545.42c-0.47-2.66-0.43-9.9,3.11-10.36c0.7-0.02,0.68,1.05-0.02,1c-2.44,0.29-1.74,7.28-2.09,9.29
			C315.19,545.94,314.29,545.99,314.2,545.42L314.2,545.42z"/>
	</g>
	<g>
		<path class="st0" d="M319.48,561.04c-2.86,2.85-11.37-14.26-15.64-14c-0.29,0.04-0.55-0.17-0.57-0.46
			c0.13-1.42,2.79,0.37,3.24,0.69c3.37,2.57,6.4,6.64,9.18,9.82c0.98,1.07,1.88,2.27,3,3.15c0.12,0.06,0.05,0.05,0.04,0.14
			C319.16,559.88,319.93,560.56,319.48,561.04L319.48,561.04z"/>
	</g>
	<g>
		<path class="st0" d="M292.1,575.13c-1.31,4.33-3.64,6.35-8.23,6.28c-1.68,0.13-3.63,0.02-5.04,0.98
			c-1.26,1.36-2.63,2.46-4.09,3.64c-0.65,0.52-1.28-0.61-0.48-0.88c1.73-0.55,2.87-2.11,4.14-3.31c5.39-2.92,10.38,1.56,12.73-6.95
			C291.26,574.22,292.29,574.46,292.1,575.13L292.1,575.13z"/>
	</g>
	<g>
		<path class="st0" d="M275.09,575.39c-2.85,2.45-5.68,4.96-8.25,7.7c-0.82,0.93-1.72,1.82-2.17,2.93
			c-2.21,4.75-6.26,8.03-10.34,11.07c-0.56,0.45-1.21-0.49-0.55-0.84c4.44-2.25,8.06-6.11,10.23-10.54c0.22-0.56,0.63-1.2,1.02-1.68
			c2.84-3.41,6.16-6.37,9.4-9.39C274.91,574.2,275.6,574.95,275.09,575.39L275.09,575.39z"/>
	</g>
	<g>
		<path class="st0" d="M275.83,575c-2.67-4.02-8.32-4.97-12.84-4.5c-0.71,0.06-0.73-1.04-0.02-1c3.72,0.12,7.63,0.38,10.89,2.39
			c0.6,0.38,3.7,2.53,2.71,3.33C276.31,575.4,275.96,575.28,275.83,575L275.83,575z"/>
	</g>
	<g>
		<path class="st0" d="M252.05,537.83c-2.89-5.86-8.16-10.85-14.38-12.99c-0.59-0.22-0.29-1.13,0.32-0.94
			c3.31,1.01,6.22,3.02,8.68,5.41c2.52,2.36,4.36,5.22,6.27,8.07C253.42,538.02,252.3,538.6,252.05,537.83L252.05,537.83z"/>
	</g>
	<g>
		<path class="st0" d="M233.6,536c-1.01-1.85-2.98-3.07-4.76-4.1c-1.85-1.08-3.87-1.35-5.91-1.8c-0.53-0.11-0.51-0.92,0.02-1
			c3.44-0.38,6.57,1.85,9.02,4c0.83,0.74,1.5,1.58,2.43,2.3c0.23,0.17,0.27,0.5,0.09,0.73C234.26,536.43,233.74,536.36,233.6,536
			L233.6,536z"/>
	</g>
	<g>
		<path class="st0" d="M260.97,541.43c-3.78-0.5-7.63-0.44-11.44-0.48c-3.63,0.14-7.62-0.15-10.99,1.34
			c-0.41,0.24-0.89-0.28-0.63-0.67c0.4-0.66,0.95-0.85,1.44-1.03c1.44-0.43,2.94-0.52,4.41-0.62c3.86-0.19,7.69-0.03,11.54,0.18
			c1.92,0.11,3.82,0.29,5.75,0.28C261.75,540.44,261.68,541.53,260.97,541.43L260.97,541.43z"/>
	</g>
	<g>
		<path class="st0" d="M191.89,503.35c-0.77,0.23-1.91,0.05-2.7,0.07c-2.21-0.02-4.49-0.15-6.65,0.36c-0.26,0.06-0.76,0.24-0.84,0.4
			c-0.12,0.25-0.42,0.35-0.67,0.23c-0.74-0.43,0.14-1.19,0.53-1.3c2.88-0.96,6-0.87,9-0.94c0.46,0,0.92,0,1.37,0.18
			C192.39,502.52,192.35,503.23,191.89,503.35L191.89,503.35z"/>
	</g>
	<g>
		<path class="st0" d="M166.56,493.76c-2.07,0.62-4.26,1.48-5.83,2.99c-0.14,0.14-0.35,0.14-0.49,0s-0.13-0.35,0-0.49
			c1.75-1.6,3.95-2.4,6.19-3.02C166.77,493.15,166.9,493.68,166.56,493.76L166.56,493.76z"/>
	</g>
	<g>
		<path class="st0" d="M186.04,498.59c-0.04,0.07-0.16,0.2-0.36,0.23c-0.27,0.01-0.34-0.07-0.44-0.17
			c-0.09-0.11-0.09-0.15-0.15-0.25c-0.79-2.32-1.5-4.71-2.73-6.84c-1.18-2.02-2.76-4.33-5.19-4.79c-0.64-0.11-0.49-1.1,0.17-0.99
			c4.96,2.14,7.1,7.41,8.67,12.17c0,0,0.03,0.1,0.03,0.1l0.01,0.03c0,0-0.01-0.01-0.01-0.01c-0.08-0.12-0.18-0.26-0.49-0.24
			c-0.2,0.03-0.32,0.16-0.36,0.23C185.55,497.5,186.39,498.04,186.04,498.59L186.04,498.59z"/>
	</g>
	<g>
		<path class="st0" d="M201.84,468.85c0.25-4.18,0.94-8.5,3.22-12.09c0.42-0.7,1.07-1.3,1.56-1.94c0.84-1.2,0.68-2.86,0.22-4.2
			c-0.04-0.1-0.1-0.21,0.06-0.36c0.2-0.2,0.49-0.07,0.52,0.15c0.55,1.54,0.72,3.35-0.25,4.79c-1.07,1.23-2.06,2.54-2.65,4.1
			c-1.21,3.02-1.74,6.34-1.96,9.58C202.57,469.35,201.82,469.34,201.84,468.85L201.84,468.85z"/>
	</g>
	<g>
		<path class="st0" d="M211.14,459.6c3.24-2.08,6.45-4.68,10.52-4.58c0.29,0.01,0.51,0.25,0.5,0.54c-0.01,0.4-0.49,0.64-0.82,0.41
			c-0.74-0.49-1.72-0.11-2.5,0.12c-2.6,0.95-4.95,2.58-7.09,4.3C211.23,460.83,210.58,460.01,211.14,459.6L211.14,459.6z"/>
	</g>
	<path class="st1" d="M175.23,453.56c0,0-6.73,0.81-8.73-1.63c-2-2.44-3-5.63-6-7.53c-3-1.9-3.11-0.51-3.11-0.51"/>
	<path class="st1" d="M168.79,442.92c0,0,2.54-12.73-4.37-17.08"/>
	<g>
		<path class="st0" d="M166.11,439.13c-4.15-2.75-8.83-5.01-13.92-4.79c0,0-3.8,0-3.8,0c-3.87,0.14-7.47-1.84-10.93-3.32
			c-0.43-0.19-0.13-0.88,0.31-0.67c3.44,1.47,6.79,3.38,10.63,3.27c2.26,0.02,5.4-0.09,7.63,0.27c3.82,0.65,7.25,2.61,10.47,4.66
			C166.88,438.8,166.49,439.4,166.11,439.13L166.11,439.13z"/>
	</g>
	<g>
		<path class="st0" d="M191.85,413.93c-1.28-4.42-3.25-8.66-5.32-12.76c-2.08-3.98-4.36-7.92-7.92-10.7
			c-0.36-0.32-0.12-0.96,0.37-0.93c4.87,1.03,9.39,13.18,11.26,17.58c0.84,2.17,1.65,4.34,2.56,6.49
			C193.06,414.25,192.05,414.62,191.85,413.93L191.85,413.93z"/>
	</g>
	<g>
		<path class="st0" d="M190.62,402.39c2.72-5.58,3.56-11.83,4.38-17.9c0.1-0.53,0.92-0.52,1,0.02c0.49,4.77-1.35,9.42-2.83,13.86
			c-0.54,1.48-1.15,2.91-1.63,4.43c-0.08,0.26-0.37,0.41-0.63,0.33C190.6,403.02,190.46,402.66,190.62,402.39L190.62,402.39z"/>
	</g>
	<g>
		<path class="st0" d="M184.31,385.24c1.19-4.48,0.37-9.71-2.25-13.55c-0.37-0.56,0.5-1.11,0.85-0.53
			c1.95,3.17,2.65,6.93,2.57,10.61c0,0-0.18,3.68-0.18,3.68C185.23,386.21,184.05,385.97,184.31,385.24L184.31,385.24z"/>
	</g>
	<path class="st1" d="M196.24,426.74c0,0,15.38-10.18,15.82-19.21"/>
	<path class="st1" d="M276.28,542.02c0,0,1.22-16.52-22.74-27.33"/>
	<g>
		<path class="st0" d="M343.89,586.74c-0.24,0.8-0.77,1.38-1.25,2.01c-1.3,1.8-3.24,3.69-3.67,5.92c-0.09,0.66-1.09,0.53-1.01-0.13
			c1.13-2.25,2.17-4.49,3.55-6.6c0.45-0.67,0.86-1.36,1.59-1.82C343.51,585.85,344.06,586.29,343.89,586.74L343.89,586.74z"/>
	</g>
	<g>
		<path class="st0" d="M338.4,587.99c-4.46-0.23-11.3-1.77-14.72,1.81c-0.39,0.54-1.23-0.06-0.84-0.61c2.4-1.49,5.02-2.42,7.81-2.72
			c2.66-0.29,5.36-0.21,7.95,0.54c0.26,0.08,0.41,0.36,0.33,0.63C338.86,587.87,338.63,588.02,338.4,587.99L338.4,587.99z"/>
	</g>
	<g>
		<path class="st0" d="M324.38,600.41c0.37,2.57,0.52,5.19,0.04,7.76c-0.02,0.12-0.14,0.2-0.26,0.17c-0.12-0.02-0.2-0.14-0.17-0.26
			c0.5-2.49,0.38-5.1,0.04-7.61C323.99,600.25,324.35,600.19,324.38,600.41L324.38,600.41z"/>
	</g>
	<g>
		<path class="st0" d="M447.3,545.35c-0.35-2.01,0.35-9.02-2.13-9.29c-0.69,0.05-0.72-1.02-0.02-1c3.57,0.44,3.62,7.67,3.15,10.36
			C448.21,546,447.31,545.93,447.3,545.35L447.3,545.35z"/>
	</g>
	<g>
		<path class="st0" d="M443.7,560.37c1.92-1.8,4.79-5.25,6.61-7.36c2.49-2.58,4.81-6.06,8.5-6.97c0.74-0.09,0.76,1.08,0.01,1
			c-4.33-0.25-12.98,16.84-15.85,14.01C442.53,560.55,443.26,559.89,443.7,560.37L443.7,560.37z"/>
	</g>
	<g>
		<path class="st0" d="M471.71,574.89c2.38,8.49,7.46,4.04,12.9,6.94c1.3,1.21,2.46,2.77,4.21,3.32c0.79,0.26,0.19,1.4-0.47,0.88
			c-1.48-1.18-2.87-2.28-4.15-3.64c-3.15-1.86-7.54,0.02-10.53-2.41c-1.5-1.29-2.36-3.03-2.93-4.85c-0.08-0.26,0.06-0.54,0.33-0.63
			C471.35,574.41,471.65,574.6,471.71,574.89L471.71,574.89z"/>
	</g>
	<g>
		<path class="st0" d="M488.65,574.63c3.28,3.02,6.64,5.98,9.53,9.39c0.4,0.49,0.81,1.13,1.04,1.69c2.21,4.45,5.89,8.29,10.38,10.54
			c0.58,0.28,0.15,1.2-0.44,0.91c-2.04-1.64-4.23-3.02-6.07-4.92c-1.78-1.84-3.39-3.88-4.52-6.22c-0.45-1.12-1.37-2-2.2-2.93
			c-2.62-2.74-5.48-5.24-8.37-7.69C487.5,574.97,488.14,574.18,488.65,574.63L488.65,574.63z"/>
	</g>
	<g>
		<path class="st0" d="M486.34,574.53c3.18-4.38,8.97-4.88,13.93-5.03c0.71-0.04,0.7,1.06-0.01,1c-4.57-0.47-10.3,0.46-13.04,4.5
			C486.93,575.65,485.96,575.14,486.34,574.53L486.34,574.53z"/>
	</g>
	<g>
		<path class="st0" d="M510.46,537.37c3.68-5.74,8.39-11.43,15.16-13.48c0.26-0.08,0.54,0.07,0.62,0.33
			c0.08,0.27-0.07,0.54-0.33,0.62c-6.27,2.13-11.62,7.11-14.57,12.99C511.07,538.59,509.98,538.02,510.46,537.37L510.46,537.37z"/>
	</g>
	<g>
		<path class="st0" d="M529.27,535.39c3.23-2.94,6.84-6.73,11.6-6.29c0.28,0.05,0.46,0.32,0.41,0.59c-0.04,0.21-0.2,0.36-0.39,0.41
			c-2.06,0.46-4.1,0.72-5.99,1.8c-1.81,1.03-3.8,2.25-4.84,4.11C529.68,536.77,528.62,535.96,529.27,535.39L529.27,535.39z"/>
	</g>
	<g>
		<path class="st0" d="M502.23,540.43c4.23,0.12,21.33-2.01,23.46,1.18c0.28,0.57-0.35,0.94-0.82,0.58
			c-3.4-1.35-7.34-1.12-10.97-1.24c-3.86,0.04-7.76-0.01-11.6,0.48C501.62,541.53,501.51,540.44,502.23,540.43L502.23,540.43z"/>
	</g>
	<g>
		<path class="st0" d="M572.34,502.36c0.46-0.18,0.93-0.17,1.39-0.18c1.36-0.01,2.83,0.03,4.18,0.12c1.65,0.15,3.36,0.21,4.94,0.81
			c0.24,0.12,0.54,0.22,0.78,0.64c0.28,0.59-0.6,1.03-0.9,0.44c-0.09-0.16-0.59-0.34-0.86-0.4c-2.19-0.51-4.51-0.38-6.75-0.36
			c-0.81-0.02-1.96,0.16-2.75-0.07C571.91,503.22,571.89,502.51,572.34,502.36L572.34,502.36z"/>
	</g>
	<g>
		<path class="st0" d="M598.2,493.24c2.26,0.61,4.49,1.41,6.27,3.01c0.14,0.13,0.15,0.35,0.02,0.49c-0.13,0.14-0.36,0.15-0.49,0.01
			c-1.59-1.52-3.82-2.38-5.91-3C597.74,493.68,597.86,493.15,598.2,493.24L598.2,493.24z"/>
	</g>
	<g>
		<path class="st0" d="M579.17,498.05c-0.04-0.07-0.15-0.2-0.35-0.22c-0.29-0.02-0.41,0.12-0.49,0.24c0,0-0.01,0.01-0.01,0.01
			c0-0.01,0.03-0.12,0.04-0.13c1.58-4.76,3.75-9.92,8.66-12.13c0.6-0.27,1.02,0.65,0.41,0.92c-2.5,0.44-4.15,2.73-5.37,4.81
			c-1.25,2.13-1.97,4.53-2.78,6.86c-0.11,0.24-0.21,0.44-0.59,0.42C577.71,498.57,578.58,497.29,579.17,498.05L579.17,498.05z"/>
	</g>
	<g>
		<path class="st0" d="M561.55,468.88c-0.31-4.02-0.95-8.27-3.12-11.74c-0.31-0.5-0.73-0.98-1.12-1.41
			c-1.4-1.41-1.34-3.59-0.69-5.32c0.03-0.21,0.3-0.36,0.52-0.15c0.17,0.16,0.1,0.26,0.06,0.36c-0.47,1.33-0.63,3,0.22,4.2
			c1.14,1.24,2.16,2.61,2.79,4.18c1.33,3.13,1.88,6.48,2.05,9.85C562.3,469.33,561.56,469.37,561.55,468.88L561.55,468.88z"/>
	</g>
	<g>
		<path class="st0" d="M552.24,460.39c-2.36-1.85-4.95-3.65-7.86-4.5c-0.59-0.13-1.35-0.29-1.88,0.08
			c-0.26,0.17-0.61,0.09-0.75-0.19c-0.18-0.33,0.07-0.76,0.44-0.76c2.19-0.13,3.9,0.63,5.73,1.56c1.71,0.9,3.34,1.91,4.93,3.01
			c0.23,0.16,0.28,0.47,0.12,0.7C552.81,460.54,552.46,460.58,552.24,460.39L552.24,460.39z"/>
	</g>
	<path class="st1" d="M589.29,453.56c0,0,6.82,0.81,8.85-1.63c2.03-2.44,3.04-5.63,6.09-7.53c3.04-1.9,3.15-0.51,3.15-0.51"/>
	<path class="st1" d="M595.82,442.92c0,0-2.58-12.73,4.44-17.08"/>
	<g>
		<path class="st0" d="M598.14,438.55c4.32-2.83,9.23-5.15,14.51-4.93c0,0,3.84,0,3.84,0c3.9,0.11,7.3-1.81,10.8-3.28
			c0.42-0.2,0.74,0.48,0.3,0.67c-3.52,1.49-7.17,3.46-11.09,3.32c-2.24,0.02-5.45-0.09-7.63,0.25c-3.74,0.62-7.16,2.54-10.35,4.54
			C598.16,439.39,597.75,438.8,598.14,438.55L598.14,438.55z"/>
	</g>
	<g>
		<path class="st0" d="M571.47,413.61c2.5-5.57,7.93-22.62,14.01-24.06c0.44-0.03,0.71,0.53,0.43,0.86
			c-3.6,2.81-5.98,6.72-8.09,10.76c-2.1,4.1-4.1,8.34-5.41,12.78C572.23,414.6,571.19,414.27,571.47,413.61L571.47,413.61z"/>
	</g>
	<g>
		<path class="st0" d="M572.75,402.79c-2-5.91-5.07-11.89-4.53-18.29c0.05-0.28,0.31-0.46,0.59-0.41c0.21,0.04,0.37,0.21,0.41,0.41
			c0.82,6.08,1.7,12.33,4.45,17.89C574,403.02,572.98,403.48,572.75,402.79L572.75,402.79z"/>
	</g>
	<g>
		<path class="st0" d="M579.09,385.45c-0.42-4.82-0.29-10.1,2.42-14.29c0.14-0.24,0.45-0.31,0.69-0.17c0.26,0.15,0.32,0.5,0.14,0.73
			c-2.63,3.82-3.47,9.05-2.27,13.52C580.33,385.96,579.15,386.22,579.09,385.45L579.09,385.45z"/>
	</g>
	<path class="st1" d="M567.97,426.74c0,0-15.6-10.18-16.05-19.21"/>
	<path class="st1" d="M486.78,542.02c0,0-1.24-16.52,23.07-27.33"/>
	<g>
		<path class="st0" d="M418.98,586.11c1.93,1.53,2.81,3.95,4.01,6.03c0.35,0.74,0.72,1.45,1.14,2.2c0.14,0.25,0.05,0.56-0.2,0.69
			c-0.3,0.18-0.71-0.03-0.75-0.38c-0.1-0.76-0.47-1.47-0.89-2.13c-0.7-1.18-1.98-2.7-2.83-3.79c-0.38-0.56-2-2.17-0.92-2.68
			C418.7,586.01,418.86,586.04,418.98,586.11L418.98,586.11z"/>
	</g>
	<g>
		<path class="st0" d="M423.56,587.01c5.29-1.42,11.02-0.71,15.78,2.02c0.26,0.12,0.37,0.43,0.25,0.69
			c-0.15,0.35-0.66,0.4-0.88,0.09c-3.5-3.59-10.41-2.04-14.95-1.81C423.17,588.06,422.98,587.18,423.56,587.01L423.56,587.01z"/>
	</g>
	<g>
		<path class="st0" d="M438.33,600.47c-0.34,2.51-0.46,5.12,0.04,7.61c0.03,0.12-0.05,0.24-0.17,0.26
			C437.33,608.81,437.61,598.74,438.33,600.47L438.33,600.47z"/>
	</g>
</g>
<g id="Слой_5">
	<text transform="matrix(1 0 0 1 243.8779 424.6943)" class="st0 st2 st3">CM</text>
</g>
<g id="Слой_4">
	<g>
		<path class="st0" d="M239.23,467.38c0-0.29,0.03-0.57,0.1-0.86l0.05-0.19c-0.57,0.82-1.17,1.47-1.82,1.96
			c-0.64,0.48-1.25,0.72-1.82,0.72c-0.42,0-0.77-0.14-1.04-0.43s-0.41-0.74-0.41-1.37c0-0.11,0.02-0.3,0.05-0.59
			c0.13-0.96,0.49-1.89,1.07-2.79s1.25-1.62,2.03-2.18s1.51-0.84,2.19-0.84c0.25,0,0.49,0.05,0.71,0.16s0.41,0.27,0.54,0.48
			c0.47-0.2,0.75-0.47,0.85-0.83c0.03-0.04,0.08-0.05,0.15-0.05c0.07,0,0.12,0.01,0.18,0.03s0.08,0.04,0.1,0.05l-1.03,6
			c-0.03,0.14-0.05,0.35-0.05,0.62c0,0.66,0.31,0.99,0.93,0.99c0.4,0,0.81-0.16,1.23-0.47c0.42-0.31,0.77-0.78,1.05-1.41
			c0.28-0.62,0.43-1.38,0.43-2.25c0-1.2-0.27-2.3-0.81-3.3c-0.54-1-1.29-1.79-2.23-2.37c-0.94-0.58-2.01-0.87-3.2-0.87
			c-1.27,0-2.37,0.33-3.3,1s-1.64,1.58-2.13,2.72c-0.49,1.14-0.74,2.39-0.74,3.75c0,1.47,0.28,2.75,0.85,3.85
			c0.57,1.1,1.37,1.95,2.41,2.55c1.04,0.6,2.25,0.9,3.64,0.9c0.79,0,1.51-0.1,2.17-0.29c0.66-0.2,1.33-0.55,2.02-1.07h0.02
			c0.05,0,0.1,0.03,0.14,0.09c0.04,0.06,0.04,0.1-0.01,0.12c-0.87,0.79-1.73,1.33-2.58,1.63c-0.85,0.3-1.74,0.46-2.66,0.46
			c-1.4,0-2.68-0.3-3.82-0.9s-2.05-1.46-2.72-2.6c-0.67-1.13-1-2.48-1-4.03c0-1.7,0.4-3.22,1.19-4.56s1.85-2.38,3.17-3.12
			c1.32-0.74,2.73-1.11,4.24-1.11c1.34,0,2.52,0.29,3.54,0.87c1.02,0.58,1.81,1.35,2.37,2.3c0.56,0.96,0.84,2,0.84,3.12
			c0,1.04-0.23,1.99-0.7,2.85c-0.47,0.87-1.1,1.55-1.91,2.06c-0.8,0.51-1.68,0.76-2.63,0.76
			C239.77,468.96,239.23,468.44,239.23,467.38z M238.08,466.67c0.41-0.42,0.79-0.96,1.14-1.62s0.58-1.31,0.7-1.96
			c0.03-0.25,0.05-0.43,0.05-0.54c0-0.34-0.05-0.61-0.16-0.82c-0.11-0.21-0.26-0.31-0.46-0.31c-0.59,0-1.15,0.38-1.68,1.15
			c-0.54,0.77-0.9,1.66-1.1,2.68c-0.08,0.39-0.13,0.74-0.13,1.04c0,0.29,0.05,0.52,0.14,0.71c0.09,0.19,0.23,0.28,0.41,0.28
			C237.31,467.3,237.67,467.09,238.08,466.67z"/>
		<path class="st0" d="M268.16,454.57c0.8,0.13,1.43,0.31,1.88,0.52c0.15,0.05,0.25,0.12,0.29,0.2c0.04,0.08,0.08,0.22,0.11,0.42
			l0.3,3.73c0,0.05-0.04,0.09-0.13,0.11c-0.08,0.02-0.13-0.01-0.15-0.08c-0.57-1.41-1.33-2.5-2.28-3.27
			c-0.95-0.77-2.06-1.15-3.31-1.15c-1.66,0-2.93,0.65-3.84,1.96c-0.9,1.3-1.35,3.06-1.35,5.25c0,1.64,0.25,3.15,0.74,4.5
			c0.49,1.36,1.19,2.44,2.08,3.23c0.89,0.79,1.91,1.19,3.05,1.19c1.07,0,2.03-0.38,2.87-1.14c0.84-0.76,1.6-1.92,2.27-3.47
			c0.02-0.07,0.07-0.1,0.16-0.08s0.14,0.05,0.14,0.11l-0.38,3.64c-0.03,0.21-0.07,0.35-0.11,0.42c-0.04,0.06-0.14,0.13-0.29,0.2
			c-1.49,0.59-3.02,0.88-4.59,0.88c-2.04,0-3.74-0.43-5.12-1.3c-1.37-0.87-2.38-1.96-3.02-3.3c-0.64-1.33-0.97-2.72-0.97-4.17
			c0-1.7,0.43-3.2,1.29-4.5c0.86-1.3,2.01-2.31,3.44-3.03c1.43-0.71,2.96-1.07,4.6-1.07C266.58,454.37,267.35,454.44,268.16,454.57z
			"/>
		<path class="st0" d="M291.47,467.1c0.05,0,0.1,0.01,0.14,0.04c0.04,0.03,0.06,0.05,0.06,0.07c-0.17,1.39-0.25,2.66-0.25,3.81
			c0,0.14-0.02,0.25-0.08,0.31s-0.15,0.09-0.3,0.09h-11.08c-0.05,0-0.08-0.05-0.08-0.16c0-0.11,0.02-0.16,0.08-0.16
			c0.53,0,0.92-0.04,1.17-0.13c0.24-0.09,0.4-0.26,0.49-0.52c0.08-0.26,0.13-0.66,0.13-1.19v-12.41c0-0.54-0.04-0.93-0.13-1.18
			c-0.08-0.25-0.25-0.42-0.5-0.52c-0.25-0.1-0.64-0.15-1.15-0.15c-0.05,0-0.08-0.05-0.08-0.16s0.02-0.16,0.08-0.16h10.63
			c0.17,0,0.25,0.08,0.25,0.24l0.05,3.57c0,0.04-0.05,0.06-0.14,0.08s-0.15,0-0.16-0.05c-0.27-1.04-0.72-1.8-1.35-2.3
			s-1.47-0.75-2.51-0.75h-0.75c-0.5,0-0.87,0.12-1.1,0.35c-0.23,0.23-0.35,0.59-0.35,1.07v5.47h2.08c0.97,0,1.71-0.18,2.23-0.54
			s0.78-0.86,0.78-1.5c0-0.05,0.05-0.08,0.14-0.08c0.09,0,0.14,0.03,0.14,0.08l-0.02,2.41l0.02,1.29c0.03,0.61,0.05,1.09,0.05,1.45
			c0,0.04-0.05,0.05-0.15,0.05s-0.15-0.02-0.15-0.05c0-0.73-0.26-1.31-0.79-1.73c-0.53-0.42-1.28-0.63-2.27-0.63h-2.06v6.06
			c0,0.52,0.09,0.9,0.28,1.15c0.18,0.25,0.48,0.38,0.88,0.38h0.83c1.3,0,2.35-0.29,3.13-0.86c0.79-0.57,1.36-1.46,1.73-2.65
			C291.37,467.12,291.41,467.1,291.47,467.1z"/>
		<path class="st0" d="M308.19,454.82c0,0.11-0.02,0.16-0.08,0.16c-0.44,0-0.76,0.05-0.97,0.16c-0.21,0.11-0.35,0.29-0.41,0.55
			s-0.1,0.66-0.1,1.19v14.63c0,2-0.46,3.56-1.39,4.69s-2.22,1.69-3.87,1.69c-0.64,0-1.15-0.14-1.55-0.43
			c-0.4-0.29-0.6-0.68-0.6-1.18c0-0.36,0.11-0.67,0.33-0.95c0.22-0.28,0.54-0.42,0.98-0.42c0.42,0,0.74,0.13,0.97,0.4
			c0.23,0.27,0.43,0.64,0.61,1.13c0.1,0.29,0.2,0.5,0.3,0.66c0.1,0.15,0.23,0.23,0.38,0.23c0.35,0,0.61-0.3,0.78-0.91
			s0.25-1.62,0.25-3.03v-16.56c0-0.54-0.05-0.93-0.16-1.18c-0.11-0.25-0.31-0.42-0.59-0.52c-0.28-0.1-0.74-0.15-1.35-0.15
			c-0.03,0-0.05-0.05-0.05-0.16s0.02-0.16,0.05-0.16l1.55,0.03c0.8,0.04,1.45,0.05,1.93,0.05c0.47,0,1.05-0.02,1.76-0.05l1.18-0.03
			C308.17,454.66,308.19,454.72,308.19,454.82z"/>
		<path class="st0" d="M334.12,471.25c0,0.11-0.04,0.16-0.13,0.16c-0.33,0-0.85-0.02-1.55-0.05c-0.74-0.04-1.26-0.05-1.58-0.05
			c-0.42,0-0.93,0.02-1.53,0.05c-0.57,0.04-1.02,0.05-1.35,0.05c-0.07,0-0.1-0.05-0.1-0.16c0-0.11,0.03-0.16,0.1-0.16
			c0.43,0,0.75-0.05,0.94-0.15c0.19-0.1,0.29-0.27,0.29-0.52c0-0.3-0.17-0.81-0.5-1.53l-2.61-5.49h-4.46l-1.78,4.21
			c-0.22,0.52-0.33,1-0.33,1.45c0,0.64,0.21,1.14,0.64,1.5s1,0.54,1.72,0.54c0.08,0,0.13,0.05,0.13,0.16c0,0.11-0.04,0.16-0.13,0.16
			c-0.3,0-0.74-0.02-1.3-0.05c-0.64-0.04-1.19-0.05-1.66-0.05c-0.45,0-0.99,0.02-1.63,0.05c-0.57,0.04-1.03,0.05-1.38,0.05
			c-0.07,0-0.1-0.05-0.1-0.16c0-0.11,0.03-0.16,0.1-0.16c0.47,0,0.86-0.1,1.18-0.31c0.32-0.21,0.64-0.57,0.95-1.1
			c0.32-0.53,0.69-1.31,1.13-2.35l5.44-12.79c0.03-0.05,0.11-0.08,0.23-0.08c0.13,0,0.21,0.03,0.23,0.08l6.27,13.19
			c0.58,1.27,1.07,2.14,1.45,2.63c0.38,0.48,0.79,0.72,1.2,0.72C334.08,471.09,334.12,471.15,334.12,471.25z M321.96,462.65h3.79
			l-2.01-4.23L321.96,462.65z"/>
		<path class="st0" d="M346.66,459.09c0.31,0.5,0.69,0.94,1.14,1.31c0.45,0.38,1.06,0.83,1.83,1.37c0.84,0.57,1.5,1.07,2.01,1.5
			c0.5,0.43,0.93,0.95,1.28,1.57s0.53,1.33,0.53,2.13c0,0.93-0.23,1.76-0.7,2.48c-0.47,0.72-1.12,1.29-1.94,1.69
			c-0.83,0.4-1.75,0.6-2.77,0.6c-0.75,0-1.54-0.11-2.36-0.33c-0.82-0.22-1.37-0.47-1.65-0.74c-0.08-0.07-0.15-0.14-0.19-0.2
			c-0.04-0.06-0.06-0.17-0.06-0.31l-0.08-4.26v-0.03c0-0.07,0.04-0.11,0.13-0.12c0.08-0.01,0.13,0.02,0.15,0.09
			c0.5,1.09,0.94,1.97,1.32,2.65c0.38,0.68,0.85,1.28,1.43,1.8c0.58,0.52,1.23,0.78,1.97,0.78c0.67,0,1.22-0.19,1.66-0.58
			c0.43-0.38,0.65-1.04,0.65-1.97c0-0.79-0.16-1.47-0.49-2.06c-0.33-0.59-0.72-1.09-1.19-1.5c-0.47-0.41-1.11-0.9-1.93-1.47
			c-0.8-0.55-1.43-1.03-1.87-1.42c-0.44-0.39-0.82-0.87-1.14-1.42c-0.32-0.55-0.48-1.21-0.48-1.96c0-0.95,0.25-1.75,0.77-2.4
			c0.51-0.65,1.17-1.13,1.97-1.45s1.65-0.47,2.53-0.47c0.58,0,1.18,0.06,1.78,0.17c0.6,0.12,1.09,0.25,1.45,0.42
			c0.15,0.07,0.25,0.15,0.3,0.23c0.05,0.08,0.08,0.18,0.08,0.31v3.94c0,0.05-0.04,0.09-0.13,0.12c-0.08,0.03-0.13,0.01-0.15-0.04
			l-0.2-0.51c-0.42-1.12-0.91-2.08-1.47-2.87c-0.56-0.79-1.34-1.18-2.34-1.18c-0.67,0-1.22,0.21-1.64,0.62
			c-0.43,0.41-0.64,1.01-0.64,1.8C346.2,458.01,346.35,458.59,346.66,459.09z"/>
		<path class="st0" d="M363.38,473.37c-0.02-0.14-0.04-0.3-0.04-0.48c0-0.16,0.01-0.3,0.03-0.43c0.02-0.12,0.04-0.19,0.08-0.19h8.3
			c0.03,0,0.06,0.07,0.09,0.21c0.03,0.14,0.04,0.29,0.04,0.46c0,0.16-0.01,0.31-0.04,0.44c-0.02,0.13-0.05,0.2-0.09,0.2h-8.27
			C363.44,473.59,363.41,473.51,363.38,473.37z"/>
		<path class="st0" d="M400.4,471.25c0,0.11-0.02,0.16-0.05,0.16c-0.57,0-1.02-0.01-1.35-0.03l-1.86-0.03l-1.88,0.03
			c-0.32,0.02-0.75,0.03-1.3,0.03c-0.05,0-0.08-0.05-0.08-0.16c0-0.11,0.03-0.16,0.08-0.16c0.7,0,1.18-0.09,1.43-0.27
			c0.25-0.18,0.38-0.55,0.38-1.13l-0.03-0.46l-0.53-10.96l-5.17,12.95c-0.03,0.07-0.1,0.11-0.2,0.11c-0.1,0-0.17-0.04-0.2-0.11
			l-6.34-12.89l-0.2,9.68c-0.02,0.96,0.16,1.72,0.54,2.27c0.38,0.54,0.91,0.82,1.59,0.82c0.05,0,0.08,0.05,0.08,0.16
			c0,0.11-0.03,0.16-0.08,0.16c-0.45,0-0.8-0.01-1.05-0.03l-1.38-0.03l-1.58,0.03c-0.27,0.02-0.63,0.03-1.08,0.03
			c-0.05,0-0.08-0.05-0.08-0.16c0-0.11,0.02-0.16,0.08-0.16c0.69,0,1.23-0.28,1.63-0.83c0.4-0.55,0.61-1.3,0.63-2.25l0.23-11.1
			l-0.03-0.03c-0.33-0.66-0.68-1.14-1.04-1.45c-0.36-0.3-0.77-0.46-1.24-0.46c-0.05,0-0.08-0.05-0.08-0.16s0.02-0.16,0.08-0.16
			l1.18,0.03c0.23,0.02,0.53,0.03,0.9,0.03l1.33-0.03c0.15-0.02,0.34-0.03,0.58-0.03c0.22,0,0.38,0.08,0.5,0.24
			c0.12,0.16,0.33,0.55,0.65,1.15l5.47,10.96l4.77-11.69c0.1-0.25,0.2-0.42,0.31-0.52c0.11-0.1,0.25-0.15,0.44-0.15
			c0.15,0,0.32,0.01,0.51,0.03s0.41,0.03,0.67,0.03l1.48-0.03c0.23-0.02,0.57-0.03,1-0.03c0.05,0,0.08,0.05,0.08,0.16
			s-0.03,0.16-0.08,0.16c-0.79,0-1.35,0.17-1.71,0.51c-0.35,0.34-0.51,0.87-0.48,1.58l0.6,12.17c0.03,0.55,0.1,0.96,0.19,1.21
			c0.09,0.25,0.26,0.42,0.5,0.51c0.24,0.09,0.62,0.13,1.14,0.13C400.39,471.09,400.4,471.15,400.4,471.25z"/>
		<path class="st0" d="M427.93,471.25c0,0.11-0.04,0.16-0.12,0.16c-0.33,0-0.85-0.02-1.55-0.05c-0.74-0.04-1.26-0.05-1.58-0.05
			c-0.42,0-0.93,0.02-1.53,0.05c-0.57,0.04-1.02,0.05-1.35,0.05c-0.07,0-0.1-0.05-0.1-0.16c0-0.11,0.03-0.16,0.1-0.16
			c0.43,0,0.75-0.05,0.94-0.15c0.19-0.1,0.29-0.27,0.29-0.52c0-0.3-0.17-0.81-0.5-1.53l-2.61-5.49h-4.46l-1.78,4.21
			c-0.22,0.52-0.33,1-0.33,1.45c0,0.64,0.21,1.14,0.64,1.5c0.43,0.36,1,0.54,1.72,0.54c0.08,0,0.12,0.05,0.12,0.16
			c0,0.11-0.04,0.16-0.12,0.16c-0.3,0-0.74-0.02-1.3-0.05c-0.63-0.04-1.19-0.05-1.65-0.05c-0.45,0-1,0.02-1.63,0.05
			c-0.57,0.04-1.03,0.05-1.38,0.05c-0.07,0-0.1-0.05-0.1-0.16c0-0.11,0.03-0.16,0.1-0.16c0.47,0,0.86-0.1,1.18-0.31
			c0.32-0.21,0.64-0.57,0.95-1.1s0.69-1.31,1.13-2.35l5.44-12.79c0.03-0.05,0.11-0.08,0.23-0.08c0.13,0,0.21,0.03,0.23,0.08
			l6.27,13.19c0.58,1.27,1.07,2.14,1.45,2.63s0.79,0.72,1.2,0.72C427.88,471.09,427.93,471.15,427.93,471.25z M415.76,462.65h3.79
			l-2.01-4.23L415.76,462.65z"/>
		<path class="st0" d="M440.98,469.14c0,0.46,0.03,0.8,0.1,1c0.07,0.21,0.2,0.34,0.39,0.42s0.51,0.11,0.94,0.11h0.85
			c1.3,0,2.43-0.37,3.39-1.11c0.95-0.74,1.59-1.75,1.91-3.02c0-0.04,0.03-0.05,0.1-0.05c0.03,0,0.07,0.01,0.11,0.04
			c0.04,0.03,0.06,0.05,0.06,0.07c-0.15,1.77-0.23,3.24-0.23,4.42c0,0.14-0.03,0.25-0.09,0.31c-0.06,0.06-0.16,0.09-0.29,0.09
			h-11.84c-0.03,0-0.05-0.05-0.05-0.16c0-0.11,0.02-0.16,0.05-0.16c0.54,0,0.92-0.04,1.17-0.13c0.24-0.09,0.41-0.26,0.5-0.52
			c0.09-0.26,0.14-0.66,0.14-1.19v-12.41c0-0.54-0.05-0.93-0.14-1.18s-0.26-0.42-0.51-0.52c-0.25-0.1-0.64-0.15-1.15-0.15
			c-0.03,0-0.05-0.05-0.05-0.16s0.02-0.16,0.05-0.16l1.28,0.03c0.77,0.04,1.4,0.05,1.91,0.05c0.5,0,1.14-0.02,1.91-0.05l1.28-0.03
			c0.05,0,0.08,0.05,0.08,0.16s-0.03,0.16-0.08,0.16c-0.52,0-0.9,0.05-1.15,0.15c-0.25,0.1-0.42,0.28-0.5,0.54
			c-0.08,0.26-0.13,0.66-0.13,1.19V469.14z"/>
		<path class="st0" d="M475.28,471.25c0,0.11-0.04,0.16-0.12,0.16c-0.33,0-0.85-0.02-1.55-0.05c-0.74-0.04-1.26-0.05-1.58-0.05
			c-0.42,0-0.93,0.02-1.53,0.05c-0.57,0.04-1.02,0.05-1.35,0.05c-0.07,0-0.1-0.05-0.1-0.16c0-0.11,0.03-0.16,0.1-0.16
			c0.43,0,0.75-0.05,0.94-0.15c0.19-0.1,0.29-0.27,0.29-0.52c0-0.3-0.17-0.81-0.5-1.53l-2.61-5.49h-4.46l-1.78,4.21
			c-0.22,0.52-0.33,1-0.33,1.45c0,0.64,0.21,1.14,0.64,1.5c0.43,0.36,1,0.54,1.72,0.54c0.08,0,0.12,0.05,0.12,0.16
			c0,0.11-0.04,0.16-0.12,0.16c-0.3,0-0.74-0.02-1.3-0.05c-0.63-0.04-1.19-0.05-1.65-0.05c-0.45,0-1,0.02-1.63,0.05
			c-0.57,0.04-1.03,0.05-1.38,0.05c-0.07,0-0.1-0.05-0.1-0.16c0-0.11,0.03-0.16,0.1-0.16c0.47,0,0.86-0.1,1.18-0.31
			c0.32-0.21,0.64-0.57,0.95-1.1s0.69-1.31,1.13-2.35l5.44-12.79c0.03-0.05,0.11-0.08,0.23-0.08c0.13,0,0.21,0.03,0.23,0.08
			l6.27,13.19c0.58,1.27,1.07,2.14,1.45,2.63s0.79,0.72,1.2,0.72C475.24,471.09,475.28,471.15,475.28,471.25z M463.12,462.65h3.79
			l-2.01-4.23L463.12,462.65z"/>
		<path class="st0" d="M488.44,470.61c-1.37-0.75-2.42-1.77-3.13-3.07c-0.72-1.29-1.08-2.74-1.08-4.33c0-1.72,0.41-3.25,1.24-4.6
			c0.83-1.35,1.96-2.39,3.41-3.14c1.45-0.74,3.06-1.11,4.85-1.11c0.79,0,1.58,0.07,2.38,0.2c0.8,0.13,1.45,0.31,1.93,0.52
			c0.15,0.05,0.25,0.12,0.29,0.2c0.04,0.08,0.07,0.22,0.09,0.42l0.33,3.73c0,0.05-0.04,0.09-0.13,0.11
			c-0.08,0.02-0.14-0.01-0.17-0.08c-0.59-1.38-1.39-2.45-2.42-3.22c-1.03-0.77-2.2-1.15-3.52-1.15c-1.71,0-3,0.63-3.9,1.9
			s-1.34,3-1.34,5.2c0,1.77,0.28,3.35,0.85,4.73s1.36,2.46,2.37,3.22c1.01,0.76,2.14,1.14,3.4,1.14c0.69,0,1.21-0.08,1.58-0.24
			c0.37-0.16,0.63-0.47,0.8-0.94c0.17-0.46,0.25-1.15,0.25-2.06c0-0.93-0.05-1.58-0.15-1.94c-0.1-0.37-0.31-0.61-0.64-0.74
			c-0.33-0.12-0.89-0.19-1.69-0.19c-0.1,0-0.15-0.07-0.15-0.21c0-0.05,0.01-0.1,0.04-0.15c0.02-0.04,0.05-0.07,0.09-0.07
			c1.42,0.09,2.57,0.13,3.43,0.13c0.85,0,1.74-0.03,2.66-0.08c0.03,0,0.06,0.02,0.09,0.07c0.03,0.04,0.04,0.08,0.04,0.12
			c0,0.12-0.04,0.19-0.13,0.19c-0.3-0.02-0.51,0.04-0.63,0.17c-0.12,0.13-0.19,0.4-0.23,0.8s-0.05,1.12-0.05,2.16
			c0,0.8,0.03,1.38,0.09,1.72s0.09,0.55,0.09,0.64c0,0.11-0.02,0.18-0.06,0.21c-0.04,0.04-0.12,0.07-0.24,0.11
			c-2.16,0.5-4.1,0.75-5.82,0.75C491.42,471.74,489.81,471.36,488.44,470.61z"/>
		<path class="st0" d="M527,471.25c0,0.11-0.04,0.16-0.12,0.16c-0.33,0-0.85-0.02-1.55-0.05c-0.74-0.04-1.26-0.05-1.58-0.05
			c-0.42,0-0.93,0.02-1.53,0.05c-0.57,0.04-1.02,0.05-1.35,0.05c-0.07,0-0.1-0.05-0.1-0.16c0-0.11,0.03-0.16,0.1-0.16
			c0.43,0,0.75-0.05,0.94-0.15c0.19-0.1,0.29-0.27,0.29-0.52c0-0.3-0.17-0.81-0.5-1.53l-2.61-5.49h-4.46l-1.78,4.21
			c-0.22,0.52-0.33,1-0.33,1.45c0,0.64,0.21,1.14,0.64,1.5c0.43,0.36,1,0.54,1.72,0.54c0.08,0,0.12,0.05,0.12,0.16
			c0,0.11-0.04,0.16-0.12,0.16c-0.3,0-0.74-0.02-1.3-0.05c-0.63-0.04-1.19-0.05-1.65-0.05c-0.45,0-1,0.02-1.63,0.05
			c-0.57,0.04-1.03,0.05-1.38,0.05c-0.07,0-0.1-0.05-0.1-0.16c0-0.11,0.03-0.16,0.1-0.16c0.47,0,0.86-0.1,1.18-0.31
			c0.32-0.21,0.64-0.57,0.95-1.1s0.69-1.31,1.13-2.35l5.44-12.79c0.03-0.05,0.11-0.08,0.23-0.08c0.13,0,0.21,0.03,0.23,0.08
			l6.27,13.19c0.58,1.27,1.07,2.14,1.45,2.63s0.79,0.72,1.2,0.72C526.96,471.09,527,471.15,527,471.25z M514.84,462.65h3.79
			l-2.01-4.23L514.84,462.65z"/>
	</g>
</g>
</svg>
