<?xml version="1.0" encoding="utf-8"?>
<!-- Generator: Adobe Illustrator 26.0.1, SVG Export Plug-In . SVG Version: 6.00 Build 0)  -->
<svg version="1.1" id="Слой_1" xmlns="http://www.w3.org/2000/svg" xmlns:xlink="http://www.w3.org/1999/xlink" x="0px" y="0px"
	 viewBox="0 0 501.3 302.5" style="enable-background:new 0 0 501.3 302.5;" xml:space="preserve">
<style type="text/css">
	.st0{fill:#FFB4B7;}
	.st1{fill:none;stroke:#FFB4B7;stroke-linecap:round;stroke-linejoin:round;stroke-miterlimit:10;}
	.st2{fill:none;stroke:#200F0D;stroke-linecap:round;stroke-linejoin:round;stroke-miterlimit:10;}
	.st3{fill:none;stroke:#000000;stroke-linecap:round;stroke-linejoin:round;stroke-miterlimit:10;}
	.st4{fill:none;stroke:#050505;stroke-linecap:round;stroke-linejoin:round;stroke-miterlimit:10;}
	.st5{fill:#0E0300;}
	.st6{font-family:'CormorantSC-Medium';}
	.st7{font-size:170.7017px;}
</style>
<g id="Слой_2_00000129166271865766022050000009994798577866888065_">
	<g>
		<path class="st0" d="M59.9,108.9c-0.1-10.6-0.6-21.7-5.2-31.4c-3.2-6.1-7.5-11.6-11.7-17c-1.6-2-3.4-3.6-4.8-5.6
			c-0.2-0.2-0.1-0.6,0.1-0.7c1.4-0.3,3,1,3.9,1.9c5.2,5.7,9.4,12.3,13.1,19c2.8,5.8,4.1,12.2,4.9,18.5c0.6,5.1,0.9,10.2,0.8,15.3
			C60.9,109.5,59.9,109.6,59.9,108.9L59.9,108.9z"/>
	</g>
	<path class="st1" d="M98,212.8"/>
	<path class="st1" d="M137.7,231.8"/>
	<g>
		<path class="st0" d="M249.1,250.9c-7.5,3.4-15,6.7-23,8.9c-1.1,0.3-2.7,0.6-3.8,0.7c-5.6,0.6-11.3,0.9-16.9,1
			c-5,0-10.1,0.2-15.1-0.9c-9.8-2.6-18.7-7.4-27.3-12.7c-4.3-2.6-8.3-5.7-12.4-8.6c-4.1-2.8-8.4-5.4-13.1-7.1
			c-0.3-0.1-0.4-0.4-0.3-0.6c0.1-0.3,0.4-0.4,0.7-0.3c7.1,2.7,13.3,7.2,19.3,11.6c10.1,7.2,21.1,13.7,33.2,16.6
			c4.8,1,9.9,0.7,14.8,0.5c6.2-0.3,12.4-0.8,18.5-1.9c8.4-2.2,16.2-6.2,23.9-10.1C249.5,247.2,251,249.9,249.1,250.9L249.1,250.9z"
			/>
	</g>
	<g>
		<path class="st0" d="M220.9,265.4c0.4,0.4,0.3,0.9,0.3,1.3c0.1,1.3,0,2.6-0.2,4c-0.3,1.8-1.2,3.5-2.5,4.7
			c-3.7,3.7-8.7,5.5-13.3,7.7c-1.5,0.8-2.8,1.8-4,2.9c-2.4,2.4-4.4,5.2-6.5,7.8c-4.6,4.5-10.9,7.2-17.3,7.2c-0.6,0-0.7-1,0-1
			c6.2,0.1,12.3-2.5,16.7-6.8c1.8-2.4,4.1-5.5,6.5-7.9c2.4-2.5,5.8-3.9,8.9-5.2c3-1.4,6-3.1,8.4-5.4c2.3-2,2.3-5.1,2.1-7.9
			c0-0.4-0.2-0.8,0-1.2C220.1,265.2,220.6,265.1,220.9,265.4L220.9,265.4z"/>
	</g>
	<g>
		<path class="st0" d="M178.9,300.4c-0.7,0.4-2.3,1.3-2.5,0c0-0.3,0.1-0.5,0.1-0.7c0.8-1.7,1.9-3.2,3-4.7c2.9-4.3,6.9-8,8.9-12.8
			c1.7-3.6,2.2-7.9,4.8-11c2.8-3,6.7-5,11-5.3c4.6,0,9.2,0.2,13.8,0h0.9h0.4c0.1,0,0.1,0,0.1,0s-0.1,0-0.1,0.3c0-0.6,1-0.7,1,0
			c0,0.5-0.3,0.6-0.4,0.7c-0.3,0.2-0.6,0.3-0.9,0.4c-4.9,0.7-10,0.1-14.9,0.2c-4.8,0.4-10.1,3.2-11.8,8c-1.5,3.7-2.5,7.7-4.8,11
			c-3.1,4.3-6.6,8.2-9.5,12.6c-0.3,0.4-0.7,1.1-0.7,1.5c0,0,0-0.2-0.2-0.2c-0.1,0-0.1,0-0.1,0c0.1,0,0.2-0.1,0.4-0.1
			c0.5-0.1,1.1-0.8,1.5-0.2C179.2,299.9,179.1,300.2,178.9,300.4L178.9,300.4z"/>
	</g>
	<g>
		<path class="st0" d="M219.8,266.8c-2.6,2.9-5.4,6.4-9.5,7.3l-1.6,0.4c-3.1,0.8-6.7,1.3-9.1,3.6c-0.8,0.8-1.5,1.7-2.1,2.6
			c-2,2.6-4,5.6-5.9,8.3c-3.7,4.3-8.1,8-12.7,11.4c-0.6,0.4-1.1-0.5-0.5-0.9c4.8-2.7,9.2-6.6,12.6-11c1.8-2.8,3.8-5.8,5.7-8.4
			c0.7-0.9,1.4-1.8,2.1-2.7c2.5-2.5,6.3-3.1,9.5-4c2.2-0.5,4.2-1.2,5.9-2.6c1.7-1.4,3.2-3,4.8-4.7
			C219.5,265.7,220.2,266.4,219.8,266.8L219.8,266.8z"/>
	</g>
	<path class="st1" d="M221.4,259.5c0,0,0,5-2,7"/>
	<g>
		<path class="st0" d="M162.9,220h-0.1C162.8,220.1,162.8,220,162.9,220c0-0.1,0.1-0.3,0-0.4c0.1,0.1,0.4,0.3,0.6,0.5
			c2.3,1.6,4.8,3.3,6.4,5.7c3.1,5.3,2,12.5,6.2,17.2c3.7,4.3,7.3,10.3,13.5,10.7c0.5,0,1.4,0.1,1.8,0.2c0.3,0.1,0.5,0.1,0.4,0.1
			s-0.1,0.1-0.1,0c0.2-1-0.2-2.1-0.6-3.2c-0.7-2.1-1.5-4.3-1.5-6.8c0.1-4.5,1.3-8.9,0.4-13.3c-1.1-4-4.3-7.8-8.1-9.4
			c-2.1-0.6-4.3-1.1-6.4-1.6c-3.2-0.6-6.6-1.5-9.8-0.9c-1,0.3-2.1,0.7-3.2,1.1c-0.3,0.1-0.5,0-0.6-0.3s0-0.5,0.3-0.7
			c1.1-0.3,2.1-0.7,3.3-1c3.4-0.7,6.9,0.1,10.2,0.6c2.2,0.4,4.5,0.8,6.7,1.5c4.4,1.8,7.4,6,8.5,10.5c0.8,4.5,0.4,9.1,0.3,13.5
			c0,1,0.1,2,0.4,3.1c0.4,2.2,3.8,9.5-1.2,7.9c-2.6-0.1-5.3-0.7-7.6-2.1c-4.1-2.4-6.4-6.6-8.8-10.5c-2-4.2-2.3-8.7-3.9-13
			c-0.9-3.2-3.5-5.4-6-7.4c-0.7-0.6-1.4-1-2-1.7c-0.2-0.2-0.4-0.7-0.1-1c0.4-0.4,0.5-0.3,0.7-0.4c0.2-0.1,0.5,0,0.6,0.3
			C163.5,219.7,163.2,220,162.9,220L162.9,220z"/>
	</g>
	<g>
		<path class="st0" d="M191.1,255.1c-2.9-3-4.7-6.9-6.1-10.8c-2.8-9-1.7-15.1-11.1-20.2c-2.6-1.5-5.3-3-8.2-3.8
			c-0.9-0.3-2-0.5-2.8-0.2c-0.7,0.2-1-1-0.1-1c2.2,0.1,4.1,0.7,6.1,1.5c3.8,1.6,7.4,3.6,10.6,6.3c4.9,4.3,4.9,11.3,6.7,17
			c0.9,2.9,2.2,5.6,3.8,8.1c0.5,0.8,1.2,1.7,1.9,2.4C192.3,254.9,191.6,255.6,191.1,255.1L191.1,255.1z"/>
	</g>
	<g>
		<path class="st0" d="M201.2,261c-3.6-1.5-6.9-3.6-10.1-5.9c-0.2-0.1-0.4-0.5-0.2-0.7c0.2-0.4,0.7-0.4,0.9,0
			c0.5,0.8,1.3,1.3,2.1,1.9c2.4,1.6,5,2.8,7.7,3.8C202.2,260.2,201.9,261.2,201.2,261L201.2,261z"/>
	</g>
	<g>
		<path class="st0" d="M111.9,283.2c-0.2-0.4,0-0.7,0.2-1c2.5-3.4,6.1-6,8.3-9.6c0.9-1.2,1-2.6,1.4-4c0.9-2.9,2.1-5.7,3.9-8.2
			c1.7-2.6,4.7-4.5,7.6-5.1c5.1-1.2,10.6-2.2,15.9-1.1c3.9,1.6,10.3,4.8,14.2,6.4c0.5,0.3,2.4,1,3,1.2c0.1,0,0.3,0.1,0.4,0.2
			c0.1,0,0.2,0,0.2,0.1c0.5-0.4,1.1,0.4,0.6,0.8c-0.4,0.2-0.6,0.3-0.9,0.3c-2.9,0-5.5-1.6-8.1-2.7l-8-3.8c-1.3-0.6-2.4-1.1-3.9-1.2
			c-4.3-0.2-8.7,0.4-12.9,1.4c-2.9,0.6-5.1,2-6.8,4.4c-2.1,2.9-3.5,6.3-4.4,9.8c-0.7,2.3-2.4,4-3.9,5.7c-1.9,2.1-4.1,3.8-5.8,6.1
			c0,0.1,0-0.1,0-0.1C113.1,283.4,112.2,283.8,111.9,283.2L111.9,283.2z"/>
	</g>
	<g>
		<path class="st0" d="M168.5,262.8c-0.3,0.1-0.6,0.2-1,0.2c0,0-0.2,0,0,0c0.3-0.2,0.1-0.1,0.1,0c-3.6,4.6-7.9,9.1-13.6,10.8
			c-2,0-4-0.3-5.9-0.4c-1.9-0.1-3.8-0.2-5.6-0.2c-1.9,0-3.3,0.3-4.8,1.7c-2.9,2.4-5.5,5.2-8.5,7.5c-0.8,0.6-1.7,1.2-2.7,1.4
			c-4.5,0.8-9.2,1-13.7,0c-0.4-0.2-0.6-0.1-0.9-0.6c-0.3-0.6,0.6-1,0.9-0.4c-0.1-0.1,0-0.1,0-0.1c0.1,0,0.2,0,0.3,0.1
			c3.4,0.4,6.9,0.3,10.4,0c1.8-0.1,3.5-0.3,4.9-1.6c3-2.2,5.6-5,8.5-7.4c0.8-0.6,1.5-1.2,2.6-1.6c4.4-0.9,10.6-0.2,14.1-0.1
			c5.3-1.8,9.5-5.8,13.2-9.9l0,0c0,0,0.1-0.1,0.2-0.2c0.5-0.1,0.6,0,1-0.2C168.8,261.7,169.1,262.5,168.5,262.8L168.5,262.8z"/>
	</g>
	<g>
		<path class="st0" d="M177.8,255.8c-2.2,1.9-4.2,3.9-6.7,5.4c-0.8,0.6-1.7,0.8-2.5,1.5c-0.2,0.2-0.6,0.2-0.8,0
			c-0.3-0.3,0-1,0.5-0.9c0.9,0,1.7-0.7,2.5-1.2c2.2-1.7,4.5-3.4,6.4-5.5C177.5,254.7,178.3,255.4,177.8,255.8L177.8,255.8z"/>
	</g>
	<path class="st1" d="M120.4,201.5c2,2,11,7,14,11s5,6,8,13s9.4,13.9,9.4,13.9"/>
	<path class="st1" d="M156.4,242.5c0,0-7-8-8-12s-3-10-6-14s-10-13-22-15"/>
	<g>
		<path class="st0" d="M80.5,224c8,1.2,16.4,0.7,24.1,3.4c6.1,2.9,12.7,5.2,19.4,6.2c1.2,0.2,2.4,0.2,3.6,0.1
			c3.7-0.2,7.1-1.9,10.6-2.7c0.5-0.1,0.8,0.6,0.4,0.9c-3.3,1.9-7.1,2.7-10.9,3.2c-6.4,0.2-12.5-2.1-18.4-4.2
			c-2.3-0.8-4.5-2.2-6.8-2.9c-4.7-1.3-9.7-1.7-14.6-2.2c-2.5-0.2-5-0.4-7.5-0.9c-0.3,0-0.4-0.3-0.4-0.6C80,224.1,80.2,224,80.5,224
			L80.5,224z"/>
	</g>
	<g>
		<path class="st0" d="M138.9,232.7c-0.6-0.5-1-1.1-1.4-1.8c-1.1-1.9-2.3-3.8-3.6-5.5c-3.4-4.6-7.6-9.1-13-11.2
			c-2.7-1-5.7-1.2-8.6-1.6c-5.8-0.8-11.7,0-17,2.5c-5.4,2.4-9.9,6.4-14.7,9.8c-3.4,0.4,5.6-6.2,6.2-6.6c10.4-7.8,19.9-9.2,32.4-6.5
			c6.9,1.7,12,7.2,16,12.6C135.9,225.3,142.1,233.7,138.9,232.7L138.9,232.7z"/>
	</g>
	<g>
		<path class="st0" d="M68.8,193.8c-0.1,0.9-0.7,1.2-1.2,1.7c-1.8,1.5-4,2.5-6.4,2.8c-2.4,0.2-4.6-1.2-6.6-2.4
			c-3.2-2.1-6.1-4.5-9.2-6.6c-1.2-0.8-2.5-1.7-3.9-2c-0.9-0.1-1.9,0-2.8-0.1c-3.9-0.4-7.6-0.9-11.2-2.6c-2.3-1.4-4-3.1-6-4.7
			c-1.9-1.6-3.8-3.3-5.6-5c-0.2-0.2-0.2-0.5,0-0.7c0.2-0.2,0.5-0.2,0.7,0c1.9,1.6,3.8,3.3,5.7,4.9c1.9,1.5,3.9,3.2,5.9,4.5
			c3.9,1.8,8.6,2.4,13,2.5c1.9,0.1,3.6,1.3,5,2.3c3.1,2.1,6,4.5,9.2,6.5c2,1.1,4,2.7,6.4,2c1.7-0.4,3.3-1.2,4.7-2.3
			c0.5-0.4,0.8-0.9,1.4-1C68.4,193,68.9,193.3,68.8,193.8L68.8,193.8z"/>
	</g>
	<g>
		<path class="st0" d="M15.9,173.5c0-1.9,6.2-0.4,7.5-0.4c4.7,0.6,9.4,1.2,14.1,1.1c2.3-0.1,4.7-0.4,6.6-1.4
			c1.5-0.5,3.1-0.5,4.6-0.4c4.5,0.4,7.8,3.7,10.7,6.9c3.5,3.4,5.1,8.3,8.3,12c0.3,0.5,1.1,1,1.1,1.7c0,0.4-0.2,0.7-0.6,0.7
			c-0.8,0-1.3-0.9-1.8-1.4c-3.2-3.7-4.7-8.5-8.2-12c-1.4-1.4-2.8-3-4.3-4.3c-2.6-1.9-6.2-2.8-9.2-2c-1.8,0.9-4.9,1.4-7.1,1.4
			c-6.9,0.3-13.5-1.6-20.3-2c-0.1,0-0.2,0-0.3,0.1c0,0-0.1,0,0,0c0,0,0.1-0.1,0.1-0.2c0,0.3-0.2,0.5-0.5,0.5S15.9,173.8,15.9,173.5
			L15.9,173.5z"/>
	</g>
	<g>
		<path class="st0" d="M75.5,193c-3.7,0.8-7.6,1.6-11.4,0.6c-0.9-0.3-1.8-1-2.6-1.5c-5.2-3.7-10.1-8.4-16.3-10.3
			c-3.5-1.2-7.2-1.8-10.9-1c-5-0.3-9.7-2.2-14.3-4.1c-1.3-0.6-2.8-1.2-3.8-2.3c-0.2-0.2-0.4-0.4-0.4-0.9v-0.3c0-1.1,1.7-0.6,1,0.3
			c0.1,0.4,1,1,1.4,1.4c4.8,2.9,10.5,5,16.1,5.4c3.4-0.8,7.6-0.4,11.1,0.8c6.9,1.9,12.4,6.5,18,10.7c1.8,1.2,4.2,1,6.3,1
			c1.8-0.1,3.7-0.3,5.5-0.7C75.9,191.9,76.1,192.9,75.5,193L75.5,193z"/>
	</g>
	<g>
		<path class="st0" d="M64.2,164.1c4-2.2,7.8-4.7,11.4-7.5c3.7-2.6,7.6-5.2,10.4-8.6c4.5-5.2,3-12.9,0.8-18.8c-0.8-2-2-3.9-3.6-5.2
			c-0.2-0.2-0.2-0.5-0.1-0.7c0.1-0.2,0.4-0.2,0.5-0.2c1.3,0.4,2.2,1.4,2.9,2.4c3.1,5,4.2,11.1,3.6,17c-1.2,7.3-8.4,11.3-13.8,15.2
			c-3.7,2.7-7.6,5.1-11.7,7.3C64.1,165.2,63.6,164.4,64.2,164.1L64.2,164.1z"/>
	</g>
	<g>
		<path class="st0" d="M83.5,124.1c0.2,0.8-0.3,2.1-0.5,2.9c-0.8,3-1.7,6.2-4.4,8.3c-3.2,2.4-6.3,4.9-9.1,7.7
			c-3,2.6-4.5,6.3-5.4,10.1c-0.7,3-1.5,6.3-0.3,9.2c0.2,0.5,0.8,1.6,1,2.1c0.1,0.2,0,0.5-0.2,0.7c-0.2,0.1-0.6,0-0.7-0.2l-0.7-1.3
			c-1.9-3.2-1.2-7.2-0.4-10.7c0.8-3,1.7-6,3.6-8.5c3.3-3.9,7.3-7.1,11.3-10.2c1.5-1.1,2.4-2.8,3-4.6c0.5-1.3,0.8-2.9,1.1-4.3
			c0.1-0.5,0.2-1,0.7-1.5C83,123.3,83.5,123.6,83.5,124.1L83.5,124.1z"/>
	</g>
	<g>
		<path class="st0" d="M64,164.9c0-2,1.6-4.1,2.6-5.8c3.8-6.8,11.4-10.4,15.6-16.8c1.9-4.1,4.5-15,0.9-18.5l0.3,0.1
			c0.2,0,0.2-0.1,0.2-0.1c-0.1,0.3-0.4,0.5-0.7,0.4c-0.8-0.4,0.2-1.7,0.8-1.2c4,3.6,1.6,15.3-0.2,19.9c-2.8,5-7.9,8.4-11.7,12.5
			c-2.1,2-3.9,4.7-5.6,7.1c-0.6,0.7-0.9,1.6-1.2,2.5C64.9,165.6,64,165.5,64,164.9L64,164.9z"/>
	</g>
	<g>
		<path class="st0" d="M63.9,175.5c-0.2-3.6,0.1-7.1,0.1-10.6c0-0.3,0.2-0.6,0.4-0.6c0.4-0.1,0.8,0.4,0.5,0.8
			c-0.4,0.8-0.5,1.7-0.5,2.5c-0.1,2.6,0,5.2,0.4,7.8C65,176.1,63.9,176.3,63.9,175.5L63.9,175.5z"/>
	</g>
	<g>
		<path class="st0" d="M46.9,147.5c-0.2-0.5-0.7-0.7-1.1-1.1c-1-1-2.4-3.8-3.2-5l-4-6.7l-3.9-6.7c-0.6-1.1-1.3-2.3-1.9-3.4
			c-1.3-2.1-3.5-3.6-5.7-4.7c-8-4.1-18.9-2.5-25-10.1c-0.4-0.5,0.4-1.2,0.8-0.6c1.6,2,3.6,3.5,5.9,4.6c4.7,2.1,10.1,2.3,15,4
			c2.5,0.8,5,1.8,7.2,3.4c2.2,1.5,3.5,4,5,6.2c4.1,6.5,8.5,13.2,12,20.2c0.1,0.2,0,0.5-0.2,0.6C47.2,148.4,47,147.9,46.9,147.5
			L46.9,147.5z"/>
	</g>
	<g>
		<path class="st0" d="M2.6,110c0,0.3,0.1,0.8,0.2,1.2c1.1,2.9,2.9,5.6,4.9,8c2.5,3.1,6.2,3.9,9.9,5.3c2.5,0.9,5.4,1.9,7,4.1
			c2.1,2.7,3.1,5.8,4.9,8.5c1.1,1.5,2.8,2.6,4.2,3.8c3.1,2.3,6.4,4.5,10,5.9c1,0.4,2.4,0.9,3.4,0.4c0.2-0.1,0.5-0.1,0.7,0.2
			s0.1,0.5-0.2,0.7c-0.8,0.5-1.6,0.4-2.3,0.3c-2-0.3-3.9-1.2-5.6-2.1c-4.1-2.3-8.2-4.7-11.3-8.2c-1.9-2.6-3.1-6-5-8.4
			c-1.5-2-4.1-2.7-6.4-3.6c-2.5-0.9-4.9-1.6-7.4-3c-2.4-1.5-4-3.7-5.6-6c-1.1-1.7-2.2-3.5-2.6-5.5c-0.1-0.6-0.2-1.2,0.1-1.9
			c0.1-0.4,0.9-1,1.1-0.3C2.6,109.3,2.6,110,2.6,110L2.6,110z"/>
	</g>
	<g>
		<path class="st0" d="M57.3,153c-3.1-1-6.1-1.9-9-3.6c-0.6-0.4-1.4-1-1.5-1.9v-0.1v-0.3c-0.6-7-1.5-14.1-3.3-21
			c-1.2-5.1-4.9-8.9-9.3-11.5c-5.1-3-11.4-2.1-17-2.4c-4.9-0.4-9.9-2.2-14.8-2.3c-0.5,0.1-0.7-0.7-0.3-0.9c1-0.5,2-0.5,3-0.4
			c2.8,0.3,5.4,1,8.1,1.5c5.4,1.2,10.9,0.3,16.3,1.2c5.5,0.9,10.6,5.3,13.3,9.7c1.8,3,2.2,6.1,2.9,9.3c1,5.6,1.8,11.2,2.1,16.9v0.2
			l0,0c0,0,0.1,0.1,0.1,0.3c2.6,2.2,6.2,3.1,9.4,4.2C58.1,152.2,57.9,153.2,57.3,153L57.3,153z"/>
	</g>
	<g>
		<path class="st0" d="M79,78.7C78.9,78.7,78.9,78.6,79,78.7c0,0,0,0,0.2,0s0.3,0,0.3-0.1c-0.3,1.1-0.5,4.2-0.6,5.6
			c-0.2,10.7-4,18.7-11.6,26.1c-3.5,4-5.7,9-7.9,13.8c-1.7,11.9-2.9,26,0.1,38.3c3.8,12.2,10.5,23.7,19.4,33
			c4.4,4.7,9.1,9.1,14.2,13.1c1.7,1.3,3.4,2.6,5.2,3.7c0.3,0.2,0.4,0.5,0.2,0.8s-0.5,0.4-0.8,0.2c-1.9-1.1-3.7-2.4-5.4-3.8
			c-5.1-4.1-9.8-8.5-14.3-13.3c-9.1-9.4-15.8-21-19.6-33.5c-3-12.8-1.9-26.2,0-39c1.8-3.9,3.6-7.9,6.1-11.5c2.5-3.5,5.9-6.3,8.1-10
			c3.7-5.4,5-11.7,5.2-18.1l0.3-3.2c0.2-1,0.1-2.2,0.7-3.1c0.1-0.1,0.3-0.2,0.5-0.1c0.3,0.1,0.4,0.3,0.6,0.5
			C80.2,78.9,79.2,79.3,79,78.7L79,78.7z"/>
	</g>
	<g>
		<path class="st0" d="M57.9,129.3c2-5.3,4.8-10.4,9.1-14.1c2.1-1.8,3.9-3.8,5.6-6c2.2-3,4.3-6.1,5.7-9.6c2-5.7,1.9-12,1.2-18
			l-0.5-3c-0.1-0.3,0.1-0.5,0.4-0.6c0.3,0,0.5,0.1,0.6,0.4l0.5,3c0.7,6.1,0.9,12.5-1.2,18.4c-1.4,3.5-3.5,6.8-5.8,9.9
			c-3.2,4.6-8.2,7.5-10.9,12.4c-1.4,2.3-2.6,4.9-3.5,7.4C58.7,130.4,57.6,130,57.9,129.3L57.9,129.3z"/>
	</g>
	<g>
		<path class="st0" d="M39.1,55.1c1.3,4.5,4.4,8.4,5.9,12.9c1.6,4.8,2.7,9.6,3.6,14.5c0.8,3.6,1,7.3,2,10.8
			c1.9,5.8,6.5,10.2,10.1,14.9c0.3,0.4-0.3,1-0.7,0.7c-2.1-1.5-3.5-3.5-5.1-5.5c-2.3-3-4.6-6.1-5.8-9.7c-1.8-8.4-2.8-17.1-5.6-25.2
			c-1.2-3.4-3.2-6.6-4.7-10c-0.5-1.3-1.6-2.9-0.4-4.1c0.1,0,0.2,0,0.2,0C38.6,54.4,39.1,55.1,39.1,55.1L39.1,55.1z"/>
	</g>
	<g>
		<path class="st0" d="M60,108.2c2.7-5,6.4-9.8,7.6-15.5c1-5.6,0.2-11.6-2.2-16.8c-1.2-2.7-3.2-4.8-5-7.1c-3.6-5-8.1-9.2-13.9-11.5
			c-2.1-0.8-5.5-1.9-7.1-2c-0.2,0.1,0,0.1,0.1,0c-0.4,0.4-1.1,0.4-1.5,0c-0.9-1,0.3-2.1,1.4-1.9c2.6,0.8,5.2,1.4,7.7,2.4
			c6,2.4,10.8,6.9,14.5,12c1.8,2.4,3.9,4.6,5.1,7.3c3.1,6.8,3.9,15,0.9,22C67.3,98.3,60.2,112.2,60,108.2L60,108.2z"/>
	</g>
	<circle class="st2" cx="19.9" cy="88" r="2.5"/>
	<circle class="st3" cx="88.9" cy="166" r="2.5"/>
	<circle class="st3" cx="63.9" cy="215" r="2.5"/>
	<circle class="st4" cx="101.9" cy="255" r="2.5"/>
	<circle class="st4" cx="208.9" cy="242" r="2.5"/>
	<circle class="st3" cx="249.9" cy="267" r="2.5"/>
	<g>
		<path class="st0" d="M165.5,262.8c-2.5,0.5-5,0.2-7.5,0.2c-5.5-0.1-11.1-0.6-16.6,0.1c-1.7,0.4-3.1,1.5-4.6,2.5
			c-4.9,3.6-9.6,8-14,12.2c-3.1,2.3-6.7,3.5-10.1,5.2c-0.2,0.1-0.6,0-0.7-0.2c-0.1-0.3,0-0.6,0.3-0.7c3.3-1.4,7-2.7,9.8-4.9
			c4.4-4.4,8.8-8.9,13.8-12.8c2-1.6,4.4-3.1,7.1-3.2C144.4,260.8,169.5,260.2,165.5,262.8L165.5,262.8z"/>
	</g>
	<g>
		<path class="st0" d="M136.7,232.2c-4.2-2.2-8.6-4.3-13.1-6c-4.5-1.7-9.1-3.1-13.8-3.1c-6.9-0.1-14.6,0.8-21.5,1.5
			c-2.4,0.2-4.8,0.4-7.2,0.4c-0.6,0-0.7-0.8-0.1-1c4.7-1.2,9.5-1.5,14.3-1.8s9.6-0.5,14.5-0.3s9.6,1.6,14.1,3.3
			c4.5,1.8,8.9,3.8,13.2,6C137.7,231.7,137.3,232.6,136.7,232.2L136.7,232.2z"/>
	</g>
	<path class="st1" d="M58.7,125.5c-0.6-1.6-0.1-3.3,0.4-4.9c0.4-1.4,0.7-2.8,1-4.1c0.4-2.5,0.5-5.2,0.3-7.7"/>
	<g>
		<path class="st0" d="M439.2,108.9c-0.1-10.8,0.8-22,5-32.1c3.7-7.5,8.4-14.6,14-20.8c0.9-1,2.2-1.8,3.6-2c0.4-0.1,0.8,0.5,0.5,0.8
			c-1.4,2-3.3,3.6-4.9,5.6c-4.5,5.6-9,11.4-12.3,17.8c-4.2,9.6-4.8,20.3-4.9,30.6C440.2,109.5,439.2,109.6,439.2,108.9L439.2,108.9z
			"/>
	</g>
	<path class="st1" d="M401.6,212.8"/>
	<path class="st1" d="M361.2,231.8"/>
	<g>
		<path class="st0" d="M249.6,248.1c7.3,3.6,14.7,7.2,22.5,9.6c1.1,0.3,2.5,0.6,3.6,0.8c5.6,0.8,11.3,1.3,17,1.5
			c5,0.2,10.1,0.5,15-0.5c4.9-1.1,9.6-2.9,14.2-5c5.7-2.7,11.2-5.9,16.4-9.4c7.3-5,14.4-10.8,22.8-13.8c0.3-0.1,0.5,0,0.6,0.3
			s0,0.5-0.3,0.6c-8.4,3-15.3,8.8-22.6,13.7c-9.6,6.2-19.8,11.8-30.9,14.7c-5,1.1-10.2,0.9-15.3,0.9c-5.1-0.1-10.2-0.4-15.2-0.9
			c-5.1-0.3-10.1-2.1-14.9-3.9c-4.8-1.8-9.5-3.8-14.1-5.9c-0.8-0.3-1.1-1.3-0.8-2C247.9,248,248.9,247.7,249.6,248.1L249.6,248.1z"
			/>
	</g>
	<g>
		<path class="st0" d="M277.9,265.6c0.2,0.4,0,0.8,0,1.2c-0.1,2-0.2,4.2,0.7,6c3.3,5,9.5,6.9,14.7,9.4c1.6,0.8,3,1.9,4.2,3.1
			c2.4,2.4,4.7,5.5,6.6,7.9c2.2,2.2,4.9,3.8,7.8,5.1s6,1.7,9.1,1.8c0.3,0,0.5,0.2,0.5,0.5s-0.2,0.5-0.5,0.5c-3.2,0-6.5-0.5-9.5-1.9
			c-3-1.3-5.8-3-8.1-5.3c-2.1-2.7-4.2-5.5-6.6-7.9c-2.4-2.5-5.5-3.6-8.7-5c-3.9-1.9-8-4-10.5-7.7c-1-2-1.2-4.3-1.1-6.6
			c0.1-0.4,0-0.9,0.3-1.3C277.1,265.1,277.7,265.2,277.9,265.6L277.9,265.6z"/>
	</g>
	<g>
		<path class="st0" d="M320,299.5c0.4,0.2,0.8,0.4,1.2,0.5c0,0,0.1,0,0,0s-0.2,0.2-0.2,0.2c-0.6-1.7-2-3.2-3-4.7
			c-2.4-3.2-5-6.2-7.4-9.4c-2.3-3.4-3.3-7.4-4.8-11.1c-1.7-4.7-7.2-7.5-12-7.9c-4.6,0-9.4,0.3-14,0c-0.6-0.1-1.3-0.2-1.9-0.6
			c-0.2-0.1-0.4-0.3-0.4-0.7c0-0.3,0.2-0.5,0.5-0.5s0.5,0.2,0.5,0.5c0-0.3-0.1-0.3-0.1-0.3h0.1h0.4c5,0.3,9.9,0.1,14.9,0.1
			c4.3,0.2,8.2,2.2,11.1,5.2c2.7,3.1,3.2,7.5,5,11.1c2.1,4.9,6.1,8.5,9.1,12.9c1.1,1.5,2.3,3,3,4.7c0.1,0.2,0.1,0.4,0.1,0.7
			c-0.2,1.3-1.8,0.4-2.5,0C318.9,300,319.4,299.2,320,299.5L320,299.5z"/>
	</g>
	<g>
		<path class="st0" d="M278.7,266.1c2.5,2.3,4.6,5,7.7,6.4c3.1,1.1,6.6,1.5,9.8,2.9c2.2,0.8,3.9,2.8,5.2,4.7c2,2.7,4,5.7,5.8,8.5
			c3.5,4.3,7.9,8.2,12.8,11c0.6,0.3,0.1,1.3-0.5,0.9c-4.6-3.4-9-7.1-12.8-11.4c-1.9-2.7-4-5.7-6-8.3c-1.4-1.8-2.7-3.5-4.9-4.2
			c-3.1-1.3-6.7-1.7-9.9-2.8c-3.3-1.3-5.6-4.2-7.9-6.7C277.6,266.4,278.3,265.7,278.7,266.1L278.7,266.1z"/>
	</g>
	<path class="st1" d="M276.4,259.5c0,0,0,5,2,7"/>
	<g>
		<path class="st0" d="M335.9,219c0.2,0.1,0.4,0,0.7,0.3c0.1,0.1,0.1,0.3,0.1,0.4c-0.2,1-1.6,1.7-2.3,2.3c-2.5,2-5.1,4.2-6,7.4
			c-1.6,4.3-1.9,8.9-4,13c-2.4,3.9-4.8,8.1-9,10.5c-2.3,1.4-5,2-7.7,2.1c-0.3,0-0.8,0.2-1.2,0.2c-0.2,0-0.5,0-0.8-0.1
			c-0.3-0.2-0.5-0.5-0.6-0.7c-0.5-1.4,0.1-2.8,0.4-4.2c0.6-2.1,1.4-4.2,1.3-6.3c-0.3-8.2-1.3-16.6,6-22.3c2.7-2.3,6.6-2.5,9.9-3.2
			c2.2-0.4,4.5-0.7,6.8-0.8c2.3-0.3,4.6,0.6,6.8,1.2c0.3,0.1,0.4,0.3,0.4,0.6c-0.1,0.3-0.4,0.4-0.7,0.3c-1-0.4-2.1-0.8-3.2-1.1
			c-3.2-0.6-6.6,0.3-9.8,0.9c-2.1,0.5-4.4,1-6.5,1.6c-1.9,0.7-3.6,2.2-5.1,3.8c-5.4,5.4-3.2,12.2-2.9,18.9c0.2,3.6-2.2,7-2.1,10.1
			c-0.1,0,0,0,0,0c0.1,0,0.2,0,0.3-0.1c0.4-0.1,1.3-0.2,1.8-0.2c4.5-0.2,7.7-3.5,10.5-6.7c1.4-1.7,2.9-3.4,4.2-5.2
			c3.9-5.6,2-14.1,7.7-18.7c1.4-1.3,3.2-2.3,4.7-3.5l0,0v0.1c0,0.1,0.1,0.3,0.1,0.3h-0.1C335,219.9,335.1,218.9,335.9,219L335.9,219
			z"/>
	</g>
	<g>
		<path class="st0" d="M306.4,254.3c2.7-3,4.5-6.7,5.8-10.5c1.9-5.8,1.9-12.8,6.9-17.1c3.2-2.7,6.9-4.7,10.7-6.2
			c2-0.8,3.9-1.4,6.2-1.5c0.8,0,0.6,1.2-0.1,1c-1.9-0.4-3.9,0.6-5.7,1.2c-3.7,1.6-7.3,3.6-10.4,6.3c-4.6,4.3-4.4,10.9-6.4,16.7
			c-0.7,2-1.5,3.9-2.5,5.7s-2.2,3.6-3.7,5.1C306.6,255.6,305.8,254.8,306.4,254.3L306.4,254.3z"/>
	</g>
	<g>
		<path class="st0" d="M296.5,260c2.7-0.9,5.4-2.2,7.8-3.8c0.8-0.6,1.6-1,2.1-1.9c0.1-0.2,0.5-0.3,0.7-0.2c0.2,0.2,0.3,0.5,0.2,0.7
			c-3.2,2.5-6.7,4.5-10.4,6.1C296.2,261.2,295.8,260.2,296.5,260L296.5,260z"/>
	</g>
	<g>
		<path class="st0" d="M386.5,282.8C386.4,282.8,386.5,283,386.5,282.8c-1.7-2.2-4-3.9-5.9-6c-1.5-1.7-3.3-3.4-4-5.7
			c-1-3.5-2.4-7-4.6-9.8c-1.7-2.4-4-3.7-7-4.3c-4.2-1-8.7-1.6-13-1.4c-1.5,0-2.6,0.6-4,1.2l-8.1,3.8c-2.4,1-4.9,2.3-7.5,2.7
			c-0.5,0-0.9,0.1-1.5-0.3c-0.5-0.4,0-1.2,0.6-0.8c0-0.1,0.1,0,0.2-0.1c0.1,0,0.3-0.1,0.5-0.2c0.6-0.2,2.4-1,3-1.2
			c3.9-1.5,10.4-4.8,14.4-6.4c2.3-0.7,4.7-0.5,7-0.4c4.6,0.5,9.2,0.9,13.4,3.1c3.9,2.7,6,7.2,7.4,11.5c1,5.6,6.1,9,9.6,13.2
			c0.3,0.4,0.8,0.9,0.5,1.5C387.1,283.8,386.2,283.4,386.5,282.8L386.5,282.8z"/>
	</g>
	<g>
		<path class="st0" d="M330.3,261.8c0.4,0.2,0.6,0.1,1,0.2c0.2,0.1,0.3,0.2,0.3,0.3c3.4,4,8.9,8.5,13.2,9.9
			c3.7-0.1,7.6-0.5,11.5-0.3c2,0,4.2,0.6,5.7,2c3,2.4,5.6,5.2,8.7,7.4c0.7,0.5,1.4,1,2.3,1.2c3.6,0.7,7.5,0.6,11.2,0.5
			c0.8,0,1.6-0.1,2.3-0.2c0.1,0,0.1-0.1,0,0c0.1-0.2,0.4-0.3,0.7-0.2c1.7,1.7-5,1.9-5.8,1.9c-2.9,0-5.8,0-8.7-0.6
			c-1-0.2-2-0.8-2.8-1.4c-3.1-2.3-5.7-5.1-8.7-7.5c-1.5-1.4-2.9-1.7-4.9-1.7c-1.9,0-3.8,0-5.7,0.2c-2,0.1-3.9,0.4-6,0.4
			c-5.8-1.8-10.2-6.2-13.8-10.8c0,0-0.2-0.1,0.1,0c0.1,0,0.2,0,0.1,0c-0.4,0-0.7-0.1-1-0.2C329.4,262.6,329.7,261.7,330.3,261.8
			L330.3,261.8z"/>
	</g>
	<g>
		<path class="st0" d="M321.3,255.1c2.2,2.3,4.9,4.6,7.6,6.3c0.4,0.2,0.8,0.4,1.3,0.4c0.7,0,0.8,1,0,1.1c-1.8-1-3.7-1.9-5.3-3.3
			c-1.5-1.3-3-2.5-4.4-3.8c-0.2-0.2-0.2-0.5,0-0.7C320.8,254.9,321.1,254.9,321.3,255.1L321.3,255.1z"/>
	</g>
	<path class="st1" d="M378.8,201.5c-2,2-11.2,7-14.2,11s-5.1,6-8.1,13s-9.5,13.9-9.5,13.9"/>
	<path class="st1" d="M342.3,242.5c0,0,7.1-8,8.1-12s3-10,6.1-14c3-4,10.1-13,22.3-15"/>
	<g>
		<path class="st0" d="M419.5,225c-7.5,1.2-15.1,1.1-22.4,3.1c-2.4,0.7-4.6,2-6.9,2.9c-6,2.2-12.2,4.4-18.7,4.2
			c-3.8-0.5-7.7-1.3-11.1-3.2c-0.2-0.2-0.3-0.5-0.1-0.7c0.1-0.2,0.3-0.2,0.5-0.2c1.3,0.2,2.4,0.7,3.6,1c2.3,0.8,4.8,1.4,7.2,1.6
			c6.2,0.2,12.3-2,18.1-4c2.4-0.9,4.6-2.2,7.1-2.9s5-1.1,7.5-1.4c5-0.6,10.1-0.7,15-1.4C419.9,223.9,420.1,224.9,419.5,225
			L419.5,225z"/>
	</g>
	<g>
		<path class="st0" d="M359.1,232.3c0.1-0.8,0.4-1.5,0.8-2.2c1.2-2,2.4-3.9,3.8-5.7c3.7-4.9,8.1-9.6,14-11.9
			c1.4-0.6,3.1-0.9,4.6-1.1c4.5-0.7,9.2-1.2,13.8-0.5c6.1,0.9,11.8,3.9,16.7,7.4c2.5,1.8,4.9,3.6,7,5.9c0.2,0.2,0.2,0.5,0,0.7
			s-0.4,0.2-0.6,0c-4.9-3.4-9.4-7.4-14.9-9.8c-6.8-3.4-14.4-3.2-21.6-1.9c-4.4,0.5-8.2,2.7-11.5,5.6c-3.3,3-6,6.5-8.5,10.3
			C362,229.8,359.7,234.5,359.1,232.3L359.1,232.3z"/>
	</g>
	<g>
		<path class="st0" d="M432,193.2c0.7,0.2,0.9,0.7,1.4,1c1.7,1.4,4.1,2.5,6.4,2.5c4.2-0.9,7.5-4.1,11.1-6.5c2.6-1.7,5-4.1,8.2-4.5
			c4.4-0.1,9.2-0.6,13.1-2.5c4.2-2.6,8-6.2,11.8-9.3c0.2-0.2,0.5-0.2,0.7,0s0.2,0.5,0,0.7c-2.8,2.5-5.7,5-8.7,7.4
			c-4.4,4-10.7,4.7-16.4,5c-0.6,0-1.1,0-1.6,0.3c-2.2,1-4.2,2.6-6.2,4c-3.7,2.5-7.2,5.9-11.7,6.8c-2.1,0.2-4.1-0.7-5.9-1.7
			c-0.6-0.3-1.2-0.7-1.7-1.1c-0.5-0.5-1.1-0.8-1.2-1.7C431.1,193.3,431.6,193,432,193.2L432,193.2z"/>
	</g>
	<g>
		<path class="st0" d="M483.8,173.5c0,0.1,0,0.2,0.1,0.2l0,0c-2.1-0.2-4.3,0.4-6.5,0.6c-4.8,0.7-9.6,1.4-14.5,1.3
			c-2.3,0-5.4-0.4-7.2-1.4c-3-0.9-6.7,0.1-9.3,1.9c-1.6,1.2-3,2.9-4.4,4.3c-3.1,3-4.6,6.9-7,10.3c-0.6,0.9-1.3,1.7-2,2.5
			c-0.2,0.3-0.5,0.5-1,0.6c-0.4,0.1-0.8-0.3-0.7-0.7c0-0.7,0.8-1.2,1.1-1.7c3.2-3.7,4.9-8.6,8.5-12c2.9-3.2,6.2-6.5,10.8-6.9
			c1.5-0.2,3.1-0.2,4.6,0.4c2,1,4.4,1.2,6.7,1.4c4.8,0.1,9.5-0.5,14.3-1.1c2.1-0.2,4.2-0.6,6.4-0.5c0.5,0,1.2,0.3,1.2,0.9
			C484.8,174.2,483.8,174.1,483.8,173.5L483.8,173.5z"/>
	</g>
	<g>
		<path class="st0" d="M424.6,192c2.7,0.5,5.5,0.8,8.3,0.7c1.3-0.1,2.6-0.2,3.7-1c0.7-0.5,2.6-1.9,3.4-2.5c4.5-3.5,9.4-6.6,14.9-8.2
			c3.5-1.2,7.7-1.6,11.2-0.8c3.3-0.1,6.5-1.2,9.6-2.3c2.7-1,5.4-2.1,7.7-3.9c0.3-0.2,0.5-0.6,0.5-0.6c-0.2-0.2-0.2-0.6,0-0.9
			c0.4-0.4,1.1-0.1,1,0.5c0,0.5-0.2,1-0.4,1.2c-1.1,1.1-2.5,1.7-3.9,2.3c-4.6,1.9-9.4,3.7-14.5,4.1c-1.8-0.4-3.7-0.5-5.6-0.3
			c-5.6,0.6-10.8,3.1-15.2,6.6c-2.6,1.9-5.3,4-8,5.8c-2.1,1.4-4.9,1.2-7.3,1c-1.9-0.2-3.8-0.5-5.7-0.9c-0.3-0.1-0.4-0.3-0.4-0.6
			C424,192.1,424.3,192,424.6,192L424.6,192z"/>
	</g>
	<g>
		<path class="st0" d="M435.4,164.9c-4.1-2.2-8.1-4.6-11.8-7.3c-3.8-2.6-7.8-5.1-10.9-8.7c-3.4-3.6-3.8-8.9-3-13.6
			c0.6-3.5,1.6-7,3.6-10c0.7-1,1.6-2,2.9-2.4c0.3-0.1,0.5,0.1,0.6,0.3c0.1,0.2,0,0.4-0.2,0.5c-1.6,1.4-2.8,3.3-3.7,5.3
			c-2.3,5.9-3.8,13.7,0.8,18.9c2.9,3.4,6.8,5.9,10.6,8.5c3.7,2.8,7.5,5.2,11.5,7.5C436.4,164.4,436,165.3,435.4,164.9L435.4,164.9z"
			/>
	</g>
	<g>
		<path class="st0" d="M417.1,123.6c0.8,0.8,0.8,2,1.1,3c0.6,2.7,1.5,5.8,3.8,7.5c3.2,2.5,6.4,5,9.3,7.9c3.2,2.8,4.8,6.8,5.8,10.8
			c0.8,3.5,1.5,7.5-0.4,10.7l-0.7,1.3c-0.1,0.2-0.4,0.4-0.7,0.2c-0.2-0.1-0.3-0.4-0.2-0.7c0.2-0.5,0.8-1.6,1-2.1
			c0.5-1,0.7-2.2,0.7-3.4c-0.1-3.9-1.3-7.8-2.9-11.4c-0.8-1.8-2.1-3.2-3.5-4.6c-2.9-2.8-6-5.3-9.2-7.7c-2.7-1.9-3.7-5.2-4.4-8.3
			c-0.2-0.8-0.7-2.2-0.5-3C416.3,123.5,416.8,123.4,417.1,123.6L417.1,123.6z"/>
	</g>
	<g>
		<path class="st0" d="M435,165.1c-0.3-1-0.6-1.8-1.2-2.5l-1.8-2.5c-4.3-6.5-11.6-10.3-15.7-17c-1.9-4.6-4.3-16.3-0.2-19.9
			c0.7-0.5,1.6,0.8,0.9,1.2c-0.3,0.2-0.6-0.1-0.7-0.4c0,0,0,0,0.2,0.1l0.3-0.1c-3.6,3.3-1.2,13,0.3,17.2c0.6,1.9,2,3.3,3.4,4.7
			c4.3,4.3,9.8,8,13,13.3l1.6,2.6c0.6,0.9,0.9,2.1,1,3.1c0,0.3-0.2,0.5-0.4,0.5C435.3,165.5,435.1,165.3,435,165.1L435,165.1z"/>
	</g>
	<g>
		<path class="st0" d="M435.1,175.5c0.4-2.6,0.5-5.2,0.4-7.8c0-0.9-0.1-1.8-0.5-2.5c-0.1-0.2-0.1-0.6,0.2-0.7
			c0.2-0.1,0.6-0.1,0.7,0.2c0.2,3.7,0.4,7.3,0.2,11C436.1,176.2,435,176.1,435.1,175.5L435.1,175.5z"/>
	</g>
	<g>
		<path class="st0" d="M452.4,147.5c4.3-8.2,9.5-15.9,14.4-23.6c6-7.7,17.1-6.7,25.3-10.1c2.4-1,4.5-2.6,6-4.5
			c0.2-0.2,0.5-0.2,0.7-0.1c0.2,0.2,0.2,0.5,0.1,0.7c-3.5,4.2-9,5.8-14.1,6.8c-5,1-10.3,2.1-14.5,5.2c-2.2,1.5-3.2,3.9-4.5,6
			c-2,3.4-6,10.1-8.1,13.5c-0.8,1.2-2.2,4.1-3.2,5.1c-0.4,0.4-0.9,0.6-1.1,1.1l-0.1,0.4C453.1,148.5,452,148.1,452.4,147.5
			L452.4,147.5z"/>
	</g>
	<g>
		<path class="st0" d="M498.7,109c2.4,1.4-0.9,6.4-1.9,8c-1.6,2.3-3.2,4.4-5.7,6c-2.5,1.3-5,2-7.5,2.9c-2.3,0.9-4.9,1.6-6.5,3.6
			c-2,2.4-3.1,5.8-5.1,8.4c-1.3,1.6-3,2.8-4.7,4c-3.9,2.6-7.9,5.3-12.5,6.3c-0.7,0.1-1.5,0.1-2.3-0.3c-0.2-0.1-0.3-0.5-0.2-0.7
			c0.2-0.3,0.5-0.3,0.7-0.1c1,0.5,2.4,0,3.4-0.4c3.6-1.4,6.9-3.6,10.1-5.9c1.5-1.1,3.1-2.3,4.3-3.8c2-2.7,2.9-5.8,5-8.5
			c1.7-2.2,4.6-3.2,7.1-4.1s5-1.7,7.2-2.8c2-1.3,3.7-3.5,5.1-5.5c1.1-1.8,2.7-4.1,2.9-6.2l-0.1-0.3C498,109.3,498.4,108.9,498.7,109
			L498.7,109z"/>
	</g>
	<g>
		<path class="st0" d="M442.6,152c2.9-1,6-2,8.7-3.5c0.4-0.3,0.8-0.6,1-0.9c0.1-2.5,0.4-5.1,0.7-7.6c0.4-3.2,0.8-6.3,1.5-9.5
			c0.7-3.2,1.1-6.4,3-9.4c2.6-4.1,7.2-8,12.1-9.5c5.9-1.4,12-0.2,17.9-1.5c2.7-0.5,5.5-1.2,8.2-1.5c1,0,2-0.1,3,0.4
			c0.5,0.2,0.2,1-0.3,0.9c-5,0-10,1.9-14.9,2.3c-5.7,0.3-12.1-0.7-17.3,2.3c-4.4,2.6-8.2,6.4-9.4,11.5c-1.9,7.1-2.7,14.5-3.4,21.8
			c-0.3,0.8-0.9,1.1-1.5,1.5c-2.9,1.7-5.9,2.6-9,3.5C442.2,153.1,441.9,152.2,442.6,152L442.6,152z"/>
	</g>
	<g>
		<path class="st0" d="M419.9,78.3c0-0.1,0.1-0.2,0.2-0.3c0.1,0,0.2-0.1,0.3-0.2c0.2,0,0.4,0.1,0.5,0.1c0.4,0.5,0.4,0.9,0.5,1.5
			c0.5,3.7,0.6,7.6,1.1,11.3c0.7,4.1,2.4,8.2,4.7,11.7c2.3,3.7,5.8,6.4,8.2,10c2.5,3.5,4.3,7.5,6.2,11.5c2,12.9,3.1,26.3,0,39.1
			c-4,12.5-10.8,24.1-20,33.4c-4.5,4.7-9.3,9.2-14.5,13.2c-1.7,1.3-3.5,2.6-5.4,3.7c-0.3,0.2-0.7,0.1-0.8-0.2
			c-0.2-0.3-0.1-0.7,0.2-0.8c7.3-4.5,13.6-10.6,19.6-16.7c9-9.2,15.8-20.7,19.7-32.9c3.1-12.4,1.8-26.5,0.1-38.4
			c-1.8-3.9-3.5-7.8-6-11.3s-6-6.2-8.2-10c-2.4-3.6-4.1-7.8-4.9-12.1c-0.5-3.7-0.6-7.6-1.1-11.3c0-0.2-0.1-0.5-0.2-0.7
			c0-0.1-0.1-0.2,0-0.1c0,0,0.2,0.1,0.3,0.1s0.2-0.1,0.2-0.1l0,0C420.5,79.4,419.6,78.9,419.9,78.3L419.9,78.3z"/>
	</g>
	<g>
		<path class="st0" d="M441.2,129.7c-1.9-5.1-4.7-10.1-8.8-13.7c-2.2-1.8-4.1-3.9-5.8-6.2c-2.3-3.2-4.5-6.4-5.9-9.9
			c-2.1-5.9-1.9-12.3-1.2-18.5l0.5-3c0-0.3,0.3-0.5,0.6-0.4c0.3,0,0.5,0.3,0.4,0.6l-0.5,3c-0.7,6-0.9,12.2,1.2,18
			c2.6,5.9,6.5,11.4,11.4,15.6c2.2,1.9,4,4.1,5.5,6.5s2.7,4.9,3.7,7.6c0.1,0.3,0,0.6-0.3,0.7C441.6,130.1,441.3,130,441.2,129.7
			L441.2,129.7z"/>
	</g>
	<g>
		<path class="st0" d="M461.9,54.4c1.7,1.5-1.4,5.8-2.1,7.5c-1.1,2.2-2.3,4.4-3.1,6.6c-2.8,8.1-3.8,16.9-5.7,25.3
			c-1.3,3.6-3.5,6.8-5.9,9.7c-1.6,1.9-3.1,4-5.2,5.4c-0.4,0.3-1-0.3-0.7-0.7c3.6-4.8,8.3-9.1,10.2-14.9c1-3.5,1.2-7.2,2-10.8
			c1-4.9,2.1-9.7,3.7-14.5c1.3-3.6,3.3-6.7,4.9-10.1c0.4-0.8,0.9-2.2,1.1-2.8l0.5-0.7C461.8,54.3,461.9,54.3,461.9,54.4L461.9,54.4z
			"/>
	</g>
	<g>
		<path class="st0" d="M439.2,108.8c-2.3-2-3.5-4.8-5-7.4c-1.4-2.7-2.8-5.4-3.5-8.4c-1.2-7.5,0.2-15.7,5-21.7
			c2.9-3.5,5.4-7.1,8.8-10.1c2.6-2.2,5.5-4,8.7-5.3c2.5-1,5.2-1.6,7.7-2.4c1.1-0.2,2.3,0.8,1.4,1.9c-0.4,0.4-1.1,0.4-1.5,0
			c0.1,0,0.2,0,0.2,0s0-0.1-0.1-0.1c-1.6,0.1-5,1.1-7.2,2c-5.8,2.3-10.4,6.5-14.1,11.5c-1.7,2.3-3.8,4.4-5,7.1
			c-2.5,5.1-3.2,11.2-2.2,16.7c1,4.2,3.3,8,5.5,11.7C438.4,105.1,441.5,109.4,439.2,108.8L439.2,108.8z"/>
	</g>
	<ellipse class="st3" cx="474.7" cy="88" rx="2.5" ry="2.5"/>
	<ellipse class="st3" cx="416.8" cy="169" rx="2.4" ry="2.5"/>
	<ellipse class="st3" cx="441.1" cy="216" rx="2.5" ry="2.5"/>
	<ellipse class="st3" cx="403.6" cy="263" rx="2.5" ry="2.5"/>
	<ellipse class="st3" cx="290" cy="240" rx="2.5" ry="2.5"/>
	<g>
		<path class="st0" d="M333,261.8c2.5-0.8,5-0.7,7.5-0.8c5.1-0.1,10.1-0.3,15.2,0.1c2.7,0,5.2,1.5,7.2,3.2c5,3.9,9.6,8.3,14,12.8
			c2.8,2.3,6.6,3.5,10,5c0.3,0.1,0.4,0.4,0.3,0.7c-0.1,0.3-0.4,0.4-0.7,0.3c-3.5-1.7-7.1-2.8-10.2-5.2c-5.5-5-10.9-10.5-17.4-14.2
			c-1.1-0.6-2.2-0.6-3.4-0.7c-5-0.3-10,0-15,0.1C339.6,262.9,330.8,263.7,333,261.8L333,261.8z"/>
	</g>
	<g>
		<path class="st0" d="M361.8,231.4c8.7-4.3,17.8-8.9,27.7-9.4c9.8-0.1,19.6,0.1,29.2,2.1c0.6,0.1,0.5,1-0.1,1
			c-2.4,0-4.9-0.2-7.3-0.4c-7-0.7-14.8-1.6-21.8-1.5c-9.6,0.2-18.8,4.8-27.3,9C361.7,232.6,361.2,231.7,361.8,231.4L361.8,231.4z"/>
	</g>
	<path class="st1" d="M441.4,125.5c0.6-1.6,0.1-3.3-0.4-4.9c-0.4-1.4-0.8-2.8-1-4.1c-0.4-2.5-0.5-5.2-0.3-7.7"/>
</g>
<g id="Слой_6">
	<g>
		<path class="st0" d="M182.1,232.4c-0.5-2.7-0.4-9.9,3.1-10.4c0.7,0,0.7,1,0,1c-2.4,0.3-1.7,7.3-2.1,9.3
			C183.1,232.9,182.2,233,182.1,232.4L182.1,232.4z"/>
	</g>
	<g>
		<path class="st0" d="M187.4,248c-2.9,2.8-11.4-14.3-15.6-14c-0.3,0-0.5-0.2-0.6-0.5c0.1-1.4,2.8,0.4,3.2,0.7
			c3.4,2.6,6.4,6.6,9.2,9.8c1,1.1,1.9,2.3,3,3.2c0.1,0.1,0,0,0,0.1C187.1,246.9,187.8,247.6,187.4,248L187.4,248z"/>
	</g>
	<g>
		<path class="st0" d="M160,262.1c-1.3,4.3-3.6,6.3-8.2,6.3c-1.7,0.1-3.6,0-5,1c-1.3,1.4-2.6,2.5-4.1,3.6c-0.6,0.5-1.3-0.6-0.5-0.9
			c1.7-0.5,2.9-2.1,4.1-3.3c5.4-2.9,10.4,1.6,12.7-7C159.2,261.2,160.2,261.5,160,262.1L160,262.1z"/>
	</g>
	<g>
		<path class="st0" d="M143,262.4c-2.9,2.5-5.7,5-8.2,7.7c-0.8,0.9-1.7,1.8-2.2,2.9c-2.2,4.8-6.3,8-10.3,11.1
			c-0.6,0.5-1.2-0.5-0.6-0.8c4.4-2.2,8.1-6.1,10.2-10.5c0.2-0.6,0.6-1.2,1-1.7c2.8-3.4,6.2-6.4,9.4-9.4
			C142.8,261.2,143.5,262,143,262.4L143,262.4z"/>
	</g>
	<g>
		<path class="st0" d="M143.7,262c-2.7-4-8.3-5-12.8-4.5c-0.7,0.1-0.7-1,0-1c3.7,0.1,7.6,0.4,10.9,2.4c0.6,0.4,3.7,2.5,2.7,3.3
			C144.2,262.4,143.9,262.3,143.7,262L143.7,262z"/>
	</g>
	<g>
		<path class="st0" d="M120,224.8c-2.9-5.9-8.2-10.8-14.4-13c-0.6-0.2-0.3-1.1,0.3-0.9c3.3,1,6.2,3,8.7,5.4s4.4,5.2,6.3,8.1
			C121.3,225,120.2,225.6,120,224.8L120,224.8z"/>
	</g>
	<g>
		<path class="st0" d="M101.5,223c-1-1.8-3-3.1-4.8-4.1c-1.9-1.1-3.9-1.3-5.9-1.8c-0.5-0.1-0.5-0.9,0-1c3.4-0.4,6.6,1.8,9,4
			c0.8,0.7,1.5,1.6,2.4,2.3c0.2,0.2,0.3,0.5,0.1,0.7C102.2,223.4,101.6,223.4,101.5,223L101.5,223z"/>
	</g>
	<g>
		<path class="st0" d="M128.9,228.4c-3.8-0.5-7.6-0.4-11.4-0.5c-3.6,0.1-7.6-0.2-11,1.3c-0.4,0.2-0.9-0.3-0.6-0.7
			c0.4-0.7,0.9-0.8,1.4-1c1.4-0.4,2.9-0.5,4.4-0.6c3.9-0.2,7.7,0,11.5,0.2c1.9,0.1,3.8,0.3,5.8,0.3
			C129.7,227.4,129.6,228.5,128.9,228.4L128.9,228.4z"/>
	</g>
	<g>
		<path class="st0" d="M59.8,190.4c-0.8,0.2-1.9,0-2.7,0.1c-2.2,0-4.5-0.1-6.6,0.4c-0.3,0.1-0.8,0.2-0.8,0.4
			c-0.1,0.2-0.4,0.4-0.7,0.2c-0.7-0.4,0.1-1.2,0.5-1.3c2.9-1,6-0.9,9-0.9c0.5,0,0.9,0,1.4,0.2C60.3,189.5,60.3,190.2,59.8,190.4
			L59.8,190.4z"/>
	</g>
	<g>
		<path class="st0" d="M34.5,180.8c-2.1,0.6-4.3,1.5-5.8,3c-0.1,0.1-0.4,0.1-0.5,0s-0.1-0.4,0-0.5c1.8-1.6,3.9-2.4,6.2-3
			C34.7,180.1,34.8,180.7,34.5,180.8L34.5,180.8z"/>
	</g>
	<g>
		<path class="st0" d="M53.9,185.6c0,0.1-0.2,0.2-0.4,0.2c-0.3,0-0.3-0.1-0.4-0.2c-0.1-0.1-0.1-0.1-0.1-0.2
			c-0.8-2.3-1.5-4.7-2.7-6.8c-1.2-2-2.8-4.3-5.2-4.8c-0.6-0.1-0.5-1.1,0.2-1c5,2.1,7.1,7.4,8.7,12.2v0.1l0,0l0,0
			c-0.1-0.1-0.2-0.3-0.5-0.2c-0.2,0-0.3,0.2-0.4,0.2C53.5,184.5,54.3,185,53.9,185.6L53.9,185.6z"/>
	</g>
	<g>
		<path class="st0" d="M69.7,155.9c0.2-4.2,0.9-8.5,3.2-12.1c0.4-0.7,1.1-1.3,1.6-1.9c0.8-1.2,0.7-2.9,0.2-4.2
			c0-0.1-0.1-0.2,0.1-0.4c0.2-0.2,0.5-0.1,0.5,0.1c0.6,1.5,0.7,3.4-0.2,4.8c-1.1,1.2-2.1,2.5-2.6,4.1c-1.2,3-1.7,6.3-2,9.6
			C70.5,156.4,69.7,156.3,69.7,155.9L69.7,155.9z"/>
	</g>
	<g>
		<path class="st0" d="M79,146.6c3.2-2.1,6.4-4.7,10.5-4.6c0.3,0,0.5,0.2,0.5,0.5c0,0.4-0.5,0.6-0.8,0.4c-0.7-0.5-1.7-0.1-2.5,0.1
			c-2.6,1-4.9,2.6-7.1,4.3C79.1,147.8,78.5,147,79,146.6L79,146.6z"/>
	</g>
	<path class="st1" d="M43.1,140.6c0,0-6.7,0.8-8.7-1.6s-3-5.6-6-7.5s-3.1-0.5-3.1-0.5"/>
	<path class="st1" d="M36.7,129.9c0,0,2.5-12.7-4.4-17.1"/>
	<g>
		<path class="st0" d="M34,126.1c-4.1-2.8-8.8-5-13.9-4.8h-3.8c-3.9,0.1-7.5-1.8-10.9-3.3c-0.4-0.2-0.1-0.9,0.3-0.7
			c3.4,1.5,6.8,3.4,10.6,3.3c2.3,0,5.4-0.1,7.6,0.3c3.8,0.6,7.2,2.6,10.5,4.7C34.8,125.8,34.4,126.4,34,126.1L34,126.1z"/>
	</g>
	<g>
		<path class="st0" d="M59.8,100.9c-1.3-4.4-3.2-8.7-5.3-12.8c-2.1-4-4.4-7.9-7.9-10.7c-0.4-0.3-0.1-1,0.4-0.9
			c4.9,1,9.4,13.2,11.3,17.6c0.8,2.2,1.6,4.3,2.6,6.5C61,101.2,60,101.6,59.8,100.9L59.8,100.9z"/>
	</g>
	<g>
		<path class="st0" d="M58.5,89.4c2.7-5.6,3.6-11.8,4.4-17.9c0.1-0.5,0.9-0.5,1,0c0.5,4.8-1.4,9.4-2.8,13.9
			c-0.5,1.5-1.1,2.9-1.6,4.4c-0.1,0.3-0.4,0.4-0.6,0.3C58.5,90,58.4,89.7,58.5,89.4L58.5,89.4z"/>
	</g>
	<g>
		<path class="st0" d="M52.2,72.2c1.2-4.5,0.4-9.7-2.2-13.5c-0.4-0.6,0.5-1.1,0.9-0.5c1.9,3.2,2.6,6.9,2.6,10.6l-0.2,3.7
			C53.1,73.2,52,73,52.2,72.2L52.2,72.2z"/>
	</g>
	<path class="st1" d="M64.1,113.7c0,0,15.4-10.2,15.8-19.2"/>
	<path class="st1" d="M144.2,229c0,0,1.2-16.5-22.7-27.3"/>
	<g>
		<path class="st0" d="M211.8,273.7c-0.2,0.8-0.8,1.4-1.2,2c-1.3,1.8-3.2,3.7-3.7,5.9c-0.1,0.7-1.1,0.5-1-0.1
			c1.1-2.2,2.2-4.5,3.5-6.6c0.5-0.7,0.9-1.4,1.6-1.8C211.4,272.8,212,273.3,211.8,273.7L211.8,273.7z"/>
	</g>
	<g>
		<path class="st0" d="M206.3,275c-4.5-0.2-11.3-1.8-14.7,1.8c-0.4,0.5-1.2-0.1-0.8-0.6c2.4-1.5,5-2.4,7.8-2.7
			c2.7-0.3,5.4-0.2,8,0.5c0.3,0.1,0.4,0.4,0.3,0.6C206.8,274.9,206.5,275,206.3,275L206.3,275z"/>
	</g>
	<g>
		<path class="st0" d="M192.3,287.4c0.4,2.6,0.5,5.2,0,7.8c0,0.1-0.1,0.2-0.3,0.2c-0.1,0-0.2-0.1-0.2-0.3c0.5-2.5,0.4-5.1,0-7.6
			C191.9,287.2,192.3,287.2,192.3,287.4L192.3,287.4z"/>
	</g>
	<g>
		<path class="st0" d="M315.2,232.3c-0.4-2,0.4-9-2.1-9.3c-0.7,0-0.7-1,0-1c3.6,0.4,3.6,7.7,3.1,10.4
			C316.1,233,315.2,232.9,315.2,232.3L315.2,232.3z"/>
	</g>
	<g>
		<path class="st0" d="M311.6,247.4c1.9-1.8,4.8-5.2,6.6-7.4c2.5-2.6,4.8-6.1,8.5-7c0.7-0.1,0.8,1.1,0,1c-4.3-0.2-13,16.8-15.9,14
			C310.4,247.5,311.2,246.9,311.6,247.4L311.6,247.4z"/>
	</g>
	<g>
		<path class="st0" d="M339.6,261.9c2.4,8.5,7.5,4,12.9,6.9c1.3,1.2,2.5,2.8,4.2,3.3c0.8,0.3,0.2,1.4-0.5,0.9
			c-1.5-1.2-2.9-2.3-4.1-3.6c-3.1-1.9-7.5,0-10.5-2.4c-1.5-1.3-2.4-3-2.9-4.8c-0.1-0.3,0.1-0.5,0.3-0.6
			C339.3,261.4,339.5,261.6,339.6,261.9L339.6,261.9z"/>
	</g>
	<g>
		<path class="st0" d="M356.5,261.6c3.3,3,6.6,6,9.5,9.4c0.4,0.5,0.8,1.1,1,1.7c2.2,4.5,5.9,8.3,10.4,10.5c0.6,0.3,0.1,1.2-0.4,0.9
			c-2-1.6-4.2-3-6.1-4.9c-1.8-1.8-3.4-3.9-4.5-6.2c-0.5-1.1-1.4-2-2.2-2.9c-2.6-2.7-5.5-5.2-8.4-7.7
			C355.4,262,356,261.2,356.5,261.6L356.5,261.6z"/>
	</g>
	<g>
		<path class="st0" d="M354.2,261.5c3.2-4.4,9-4.9,13.9-5c0.7,0,0.7,1.1,0,1c-4.6-0.5-10.3,0.5-13,4.5
			C354.8,262.7,353.9,262.1,354.2,261.5L354.2,261.5z"/>
	</g>
	<g>
		<path class="st0" d="M378.4,224.4c3.7-5.7,8.4-11.4,15.2-13.5c0.3-0.1,0.5,0.1,0.6,0.3c0.1,0.3-0.1,0.5-0.3,0.6
			c-6.3,2.1-11.6,7.1-14.6,13C379,225.6,377.9,225,378.4,224.4L378.4,224.4z"/>
	</g>
	<g>
		<path class="st0" d="M397.2,222.4c3.2-2.9,6.8-6.7,11.6-6.3c0.3,0,0.5,0.3,0.4,0.6c0,0.2-0.2,0.4-0.4,0.4c-2.1,0.5-4.1,0.7-6,1.8
			c-1.8,1-3.8,2.2-4.8,4.1C397.6,223.8,396.5,223,397.2,222.4L397.2,222.4z"/>
	</g>
	<g>
		<path class="st0" d="M370.1,227.4c4.2,0.1,21.3-2,23.5,1.2c0.3,0.6-0.3,0.9-0.8,0.6c-3.4-1.3-7.3-1.1-11-1.2
			c-3.9,0-7.8,0-11.6,0.5C369.5,228.5,369.4,227.4,370.1,227.4L370.1,227.4z"/>
	</g>
	<g>
		<path class="st0" d="M440.2,189.4c0.5-0.2,0.9-0.2,1.4-0.2c1.4,0,2.8,0,4.2,0.1c1.7,0.1,3.4,0.2,4.9,0.8c0.2,0.1,0.5,0.2,0.8,0.6
			c0.3,0.6-0.6,1-0.9,0.4c-0.1-0.2-0.6-0.3-0.9-0.4c-2.2-0.5-4.5-0.4-6.8-0.4c-0.8,0-2,0.2-2.8-0.1
			C439.8,190.2,439.8,189.5,440.2,189.4L440.2,189.4z"/>
	</g>
	<g>
		<path class="st0" d="M466.1,180.2c2.3,0.6,4.5,1.4,6.3,3c0.1,0.1,0.2,0.4,0,0.5c-0.1,0.1-0.4,0.1-0.5,0c-1.6-1.5-3.8-2.4-5.9-3
			C465.6,180.7,465.8,180.1,466.1,180.2L466.1,180.2z"/>
	</g>
	<g>
		<path class="st0" d="M447.1,185c0-0.1-0.2-0.2-0.3-0.2c-0.3,0-0.4,0.1-0.5,0.2l0,0v-0.1c1.6-4.8,3.8-9.9,8.7-12.1
			c0.6-0.3,1,0.6,0.4,0.9c-2.5,0.4-4.2,2.7-5.4,4.8c-1.2,2.1-2,4.5-2.8,6.9c-0.1,0.2-0.2,0.4-0.6,0.4
			C445.6,185.6,446.5,184.3,447.1,185L447.1,185z"/>
	</g>
	<g>
		<path class="st0" d="M429.4,155.9c-0.3-4-1-8.3-3.1-11.7c-0.3-0.5-0.7-1-1.1-1.4c-1.4-1.4-1.3-3.6-0.7-5.3c0-0.2,0.3-0.4,0.5-0.1
			c0.2,0.2,0.1,0.3,0.1,0.4c-0.5,1.3-0.6,3,0.2,4.2c1.1,1.2,2.2,2.6,2.8,4.2c1.3,3.1,1.9,6.5,2,9.9
			C430.2,156.3,429.5,156.4,429.4,155.9L429.4,155.9z"/>
	</g>
	<g>
		<path class="st0" d="M420.1,147.4c-2.4-1.9-5-3.6-7.9-4.5c-0.6-0.1-1.3-0.3-1.9,0.1c-0.3,0.2-0.6,0.1-0.8-0.2
			c-0.2-0.3,0.1-0.8,0.4-0.8c2.2-0.1,3.9,0.6,5.7,1.6c1.7,0.9,3.3,1.9,4.9,3c0.2,0.2,0.3,0.5,0.1,0.7
			C420.7,147.5,420.4,147.6,420.1,147.4L420.1,147.4z"/>
	</g>
	<path class="st1" d="M457.2,140.6c0,0,6.8,0.8,8.8-1.6s3-5.6,6.1-7.5c3-1.9,3.2-0.5,3.2-0.5"/>
	<path class="st1" d="M463.7,129.9c0,0-2.6-12.7,4.4-17.1"/>
	<g>
		<path class="st0" d="M466,125.5c4.3-2.8,9.2-5.1,14.5-4.9h3.8c3.9,0.1,7.3-1.8,10.8-3.3c0.4-0.2,0.7,0.5,0.3,0.7
			c-3.5,1.5-7.2,3.5-11.1,3.3c-2.2,0-5.5-0.1-7.6,0.2c-3.7,0.6-7.2,2.5-10.3,4.5C466.1,126.4,465.7,125.8,466,125.5L466,125.5z"/>
	</g>
	<g>
		<path class="st0" d="M439.4,100.6c2.5-5.6,7.9-22.6,14-24.1c0.4,0,0.7,0.5,0.4,0.9c-3.6,2.8-6,6.7-8.1,10.8
			c-2.1,4.1-4.1,8.3-5.4,12.8C440.1,101.6,439.1,101.3,439.4,100.6L439.4,100.6z"/>
	</g>
	<g>
		<path class="st0" d="M440.7,89.8c-2-5.9-5.1-11.9-4.5-18.3c0-0.3,0.3-0.5,0.6-0.4c0.2,0,0.4,0.2,0.4,0.4
			c0.8,6.1,1.7,12.3,4.5,17.9C441.9,90,440.9,90.5,440.7,89.8L440.7,89.8z"/>
	</g>
	<g>
		<path class="st0" d="M447,72.5c-0.4-4.8-0.3-10.1,2.4-14.3c0.1-0.2,0.5-0.3,0.7-0.2c0.3,0.1,0.3,0.5,0.1,0.7
			c-2.6,3.8-3.5,9-2.3,13.5C448.2,73,447.1,73.2,447,72.5L447,72.5z"/>
	</g>
	<path class="st1" d="M435.9,113.7c0,0-15.6-10.2-16-19.2"/>
	<path class="st1" d="M354.7,229c0,0-1.2-16.5,23.1-27.3"/>
	<g>
		<path class="st0" d="M286.9,273.1c1.9,1.5,2.8,4,4,6c0.4,0.7,0.7,1.5,1.1,2.2c0.1,0.2,0,0.6-0.2,0.7c-0.3,0.2-0.7,0-0.8-0.4
			c-0.1-0.8-0.5-1.5-0.9-2.1c-0.7-1.2-2-2.7-2.8-3.8c-0.4-0.6-2-2.2-0.9-2.7C286.6,273,286.8,273,286.9,273.1L286.9,273.1z"/>
	</g>
	<g>
		<path class="st0" d="M291.5,274c5.3-1.4,11-0.7,15.8,2c0.3,0.1,0.4,0.4,0.2,0.7c-0.1,0.3-0.7,0.4-0.9,0.1c-3.5-3.6-10.4-2-15-1.8
			C291.1,275.1,290.9,274.2,291.5,274L291.5,274z"/>
	</g>
	<g>
		<path class="st0" d="M306.2,287.5c-0.3,2.5-0.5,5.1,0,7.6c0,0.1,0,0.2-0.2,0.3C305.2,295.8,305.5,285.7,306.2,287.5L306.2,287.5z"
			/>
	</g>
</g>
<g id="Слой_5">
	<text transform="matrix(1 0 0 1 111.7928 111.673)" class="st5 st6 st7">CM</text>
</g>
<g id="Слой_4">
	<g>
		<path class="st5" d="M107.1,154.4c0-0.3,0-0.6,0.1-0.9l0.1-0.2c-0.6,0.8-1.2,1.5-1.8,2s-1.2,0.7-1.8,0.7c-0.4,0-0.8-0.1-1-0.4
			s-0.4-0.7-0.4-1.4c0-0.1,0-0.3,0.1-0.6c0.1-1,0.5-1.9,1.1-2.8s1.2-1.6,2-2.2s1.5-0.8,2.2-0.8c0.2,0,0.5,0,0.7,0.2s0.4,0.3,0.5,0.5
			c0.5-0.2,0.8-0.5,0.9-0.8h0.1c0.1,0,0.1,0,0.2,0s0.1,0,0.1,0l-1,6c0,0.1-0.1,0.4-0.1,0.6c0,0.7,0.3,1,0.9,1c0.4,0,0.8-0.2,1.2-0.5
			s0.8-0.8,1.1-1.4s0.4-1.4,0.4-2.2c0-1.2-0.3-2.3-0.8-3.3s-1.3-1.8-2.2-2.4s-2-0.9-3.2-0.9c-1.3,0-2.4,0.3-3.3,1s-1.6,1.6-2.1,2.7
			s-0.7,2.4-0.7,3.8c0,1.5,0.3,2.8,0.9,3.9s1.4,2,2.4,2.5c1,0.6,2.2,0.9,3.6,0.9c0.8,0,1.5-0.1,2.2-0.3c0.7-0.2,1.3-0.5,2-1.1l0,0
			c0.1,0,0.1,0,0.1,0.1s0,0.1,0,0.1c-0.9,0.8-1.7,1.3-2.6,1.6c-0.9,0.3-1.7,0.5-2.7,0.5c-1.4,0-2.7-0.3-3.8-0.9s-2.1-1.5-2.7-2.6
			c-0.7-1.1-1-2.5-1-4c0-1.7,0.4-3.2,1.2-4.6s1.9-2.4,3.2-3.1s2.7-1.1,4.2-1.1c1.3,0,2.5,0.3,3.5,0.9s1.8,1.4,2.4,2.3
			c0.6,1,0.8,2,0.8,3.1c0,1-0.2,2-0.7,2.9s-1.1,1.5-1.9,2.1c-0.8,0.5-1.7,0.8-2.6,0.8C107.7,156,107.1,155.4,107.1,154.4z
			 M106,153.7c0.4-0.4,0.8-1,1.1-1.6s0.6-1.3,0.7-2c0-0.2,0.1-0.4,0.1-0.5c0-0.3-0.1-0.6-0.2-0.8c-0.1-0.2-0.3-0.3-0.5-0.3
			c-0.6,0-1.1,0.4-1.7,1.1c-0.5,0.8-0.9,1.7-1.1,2.7c-0.1,0.4-0.1,0.7-0.1,1s0.1,0.5,0.1,0.7s0.2,0.3,0.4,0.3
			C105.2,154.3,105.6,154.1,106,153.7z"/>
		<path class="st5" d="M136.1,141.6c0.8,0.1,1.4,0.3,1.9,0.5c0.1,0,0.2,0.1,0.3,0.2c0,0.1,0.1,0.2,0.1,0.4l0.3,3.7
			c0,0,0,0.1-0.1,0.1s-0.1,0-0.1-0.1c-0.6-1.4-1.3-2.5-2.3-3.3s-2.1-1.1-3.3-1.1c-1.7,0-2.9,0.6-3.8,2c-0.9,1.3-1.4,3.1-1.4,5.2
			c0,1.6,0.2,3.1,0.7,4.5c0.5,1.4,1.2,2.4,2.1,3.2c0.9,0.8,1.9,1.2,3,1.2s2-0.4,2.9-1.1s1.6-1.9,2.3-3.5c0-0.1,0.1-0.1,0.2-0.1
			s0.1,0,0.1,0.1l-0.4,3.6c0,0.2-0.1,0.4-0.1,0.4c0,0.1-0.1,0.1-0.3,0.2c-1.5,0.6-3,0.9-4.6,0.9c-2,0-3.7-0.4-5.1-1.3
			c-1.4-0.9-2.4-2-3-3.3s-1-2.7-1-4.2c0-1.7,0.4-3.2,1.3-4.5s2-2.3,3.4-3c1.4-0.7,3-1.1,4.6-1.1
			C134.5,141.4,135.3,141.4,136.1,141.6z"/>
		<path class="st5" d="M159.4,154.1h0.1c0,0,0.1,0,0.1,0.1c-0.2,1.4-0.2,2.7-0.2,3.8c0,0.1,0,0.2-0.1,0.3s-0.1,0.1-0.3,0.1h-11.1
			c0,0-0.1,0-0.1-0.2c0-0.1,0-0.2,0.1-0.2c0.5,0,0.9,0,1.2-0.1c0.2-0.1,0.4-0.3,0.5-0.5c0.1-0.3,0.1-0.7,0.1-1.2v-12.4
			c0-0.5,0-0.9-0.1-1.2c-0.1-0.2-0.2-0.4-0.5-0.5c-0.2-0.1-0.6-0.1-1.1-0.1c0,0-0.1,0-0.1-0.2s0-0.2,0.1-0.2h10.6
			c0.2,0,0.2,0.1,0.2,0.2v3.6c0,0,0,0.1-0.1,0.1s-0.1,0-0.2,0c-0.3-1-0.7-1.8-1.4-2.3s-1.5-0.8-2.5-0.8h-0.7c-0.5,0-0.9,0.1-1.1,0.4
			s-0.4,0.6-0.4,1.1v5.5h2.1c1,0,1.7-0.2,2.2-0.5s0.8-0.9,0.8-1.5c0,0,0-0.1,0.1-0.1s0.1,0,0.1,0.1v2.4v1.3c0,0.6,0,1.1,0,1.5
			c0,0,0,0-0.1,0s-0.1,0-0.1,0c0-0.7-0.3-1.3-0.8-1.7s-1.3-0.6-2.3-0.6h-2.1v6.1c0,0.5,0.1,0.9,0.3,1.1c0.2,0.2,0.5,0.4,0.9,0.4h0.8
			c1.3,0,2.4-0.3,3.1-0.9C158.4,156.3,158.9,155.4,159.4,154.1C159.3,154.1,159.3,154.1,159.4,154.1z"/>
		<path class="st5" d="M176.1,141.8c0,0.1,0,0.2-0.1,0.2c-0.4,0-0.8,0-1,0.2c-0.2,0.1-0.4,0.3-0.4,0.5s-0.1,0.7-0.1,1.2v14.6
			c0,2-0.5,3.6-1.4,4.7s-2.2,1.7-3.9,1.7c-0.6,0-1.1-0.1-1.5-0.4s-0.6-0.7-0.6-1.2c0-0.4,0.1-0.7,0.3-1s0.5-0.4,1-0.4
			c0.4,0,0.7,0.1,1,0.4s0.4,0.6,0.6,1.1c0.1,0.3,0.2,0.5,0.3,0.7c0.1,0.1,0.2,0.2,0.4,0.2c0.4,0,0.6-0.3,0.8-0.9s0.2-1.6,0.2-3
			v-16.6c0-0.5,0-0.9-0.2-1.2c-0.1-0.2-0.3-0.4-0.6-0.5c-0.3-0.1-0.7-0.1-1.4-0.1c0,0,0,0,0-0.2s0-0.2,0-0.2h1.5c0.8,0,1.5,0,1.9,0
			c0.5,0,1,0,1.8,0h1.2C176.1,141.7,176.1,141.7,176.1,141.8z"/>
		<path class="st5" d="M202,158.2c0,0.1,0,0.2-0.1,0.2c-0.3,0-0.9,0-1.5,0c-0.7,0-1.3,0-1.6,0c-0.4,0-0.9,0-1.5,0s-1,0-1.4,0
			c-0.1,0-0.1,0-0.1-0.2c0-0.1,0-0.2,0.1-0.2c0.4,0,0.8,0,0.9-0.1s0.3-0.3,0.3-0.5c0-0.3-0.2-0.8-0.5-1.5l-2.6-5.5h-4.5l-1.8,4.2
			c-0.2,0.5-0.3,1-0.3,1.5c0,0.6,0.2,1.1,0.6,1.5s1,0.5,1.7,0.5c0.1,0,0.1,0,0.1,0.2c0,0.1,0,0.2-0.1,0.2c-0.3,0-0.7,0-1.3,0
			c-0.6,0-1.2,0-1.7,0s-1,0-1.6,0s-1,0-1.4,0c-0.1,0-0.1,0-0.1-0.2c0-0.1,0-0.2,0.1-0.2c0.5,0,0.9-0.1,1.2-0.3s0.6-0.6,1-1.1
			c0.3-0.5,0.7-1.3,1.1-2.4l5.4-12.8c0,0,0.1-0.1,0.2-0.1s0.2,0,0.2,0.1l6.3,13.2c0.6,1.3,1.1,2.1,1.5,2.6s0.8,0.7,1.2,0.7
			C202,158.1,202,158.1,202,158.2z M189.9,149.6h3.8l-2-4.2L189.9,149.6z"/>
		<path class="st5" d="M214.6,146.1c0.3,0.5,0.7,0.9,1.1,1.3c0.5,0.4,1.1,0.8,1.8,1.4c0.8,0.6,1.5,1.1,2,1.5s0.9,1,1.3,1.6
			s0.5,1.3,0.5,2.1c0,0.9-0.2,1.8-0.7,2.5s-1.1,1.3-1.9,1.7c-0.8,0.4-1.8,0.6-2.8,0.6c-0.8,0-1.5-0.1-2.4-0.3
			c-0.8-0.2-1.4-0.5-1.6-0.7c-0.1-0.1-0.1-0.1-0.2-0.2s-0.1-0.2-0.1-0.3l-0.1-4.3l0,0c0-0.1,0-0.1,0.1-0.1s0.1,0,0.1,0.1
			c0.5,1.1,0.9,2,1.3,2.6s0.9,1.3,1.4,1.8s1.2,0.8,2,0.8c0.7,0,1.2-0.2,1.7-0.6c0.4-0.4,0.6-1,0.6-2c0-0.8-0.2-1.5-0.5-2.1
			s-0.7-1.1-1.2-1.5s-1.1-0.9-1.9-1.5c-0.8-0.5-1.4-1-1.9-1.4s-0.8-0.9-1.1-1.4c-0.3-0.5-0.5-1.2-0.5-2c0-1,0.2-1.8,0.8-2.4
			c0.5-0.6,1.2-1.1,2-1.5s1.6-0.5,2.5-0.5c0.6,0,1.2,0.1,1.8,0.2c0.6,0.1,1.1,0.2,1.5,0.4c0.1,0.1,0.2,0.1,0.3,0.2
			c0,0.1,0.1,0.2,0.1,0.3v3.9c0,0,0,0.1-0.1,0.1s-0.1,0-0.1,0l-0.2-0.5c-0.4-1.1-0.9-2.1-1.5-2.9s-1.3-1.2-2.3-1.2
			c-0.7,0-1.2,0.2-1.6,0.6s-0.6,1-0.6,1.8C214.1,145,214.3,145.6,214.6,146.1z"/>
		<path class="st5" d="M231.3,160.4c0-0.1,0-0.3,0-0.5s0-0.3,0-0.4s0-0.2,0.1-0.2h8.3c0,0,0.1,0.1,0.1,0.2s0,0.3,0,0.5s0,0.3,0,0.4
			s0,0.2-0.1,0.2h-8.3C231.3,160.6,231.3,160.5,231.3,160.4z"/>
		<path class="st5" d="M268.3,158.2c0,0.1,0,0.2,0,0.2c-0.6,0-1,0-1.4,0H265h-1.9c-0.3,0-0.8,0-1.3,0c0,0-0.1,0-0.1-0.2
			c0-0.1,0-0.2,0.1-0.2c0.7,0,1.2-0.1,1.4-0.3s0.4-0.5,0.4-1.1v-0.5l-0.5-11l-5.2,13c0,0.1-0.1,0.1-0.2,0.1s-0.2,0-0.2-0.1
			l-6.3-12.9l-0.2,9.7c0,1,0.2,1.7,0.5,2.3c0.4,0.5,0.9,0.8,1.6,0.8c0,0,0.1,0,0.1,0.2c0,0.1,0,0.2-0.1,0.2c-0.5,0-0.8,0-1,0h-1.4
			h-1.6c-0.3,0-0.6,0-1.1,0c0,0-0.1,0-0.1-0.2c0-0.1,0-0.2,0.1-0.2c0.7,0,1.2-0.3,1.6-0.8s0.6-1.3,0.6-2.2l0.2-11.1l0,0
			c-0.3-0.7-0.7-1.1-1-1.5c-0.4-0.3-0.8-0.5-1.2-0.5c0,0-0.1,0-0.1-0.2s0-0.2,0.1-0.2h1.2c0.2,0,0.5,0,0.9,0h1.3c0.1,0,0.3,0,0.6,0
			c0.2,0,0.4,0.1,0.5,0.2s0.3,0.5,0.6,1.1l5.5,11l4.8-11.7c0.1-0.2,0.2-0.4,0.3-0.5c0.1-0.1,0.2-0.1,0.4-0.1c0.1,0,0.3,0,0.5,0
			s0.4,0,0.7,0h1.5c0.2,0,0.6,0,1,0c0,0,0.1,0,0.1,0.2s0,0.2-0.1,0.2c-0.8,0-1.4,0.2-1.7,0.5c-0.4,0.3-0.5,0.9-0.5,1.6l0.6,12.2
			c0,0.5,0.1,1,0.2,1.2s0.3,0.4,0.5,0.5s0.6,0.1,1.1,0.1C268.3,158.1,268.3,158.1,268.3,158.2z"/>
		<path class="st5" d="M295.8,158.2c0,0.1,0,0.2-0.1,0.2c-0.3,0-0.9,0-1.5,0c-0.7,0-1.3,0-1.6,0c-0.4,0-0.9,0-1.5,0s-1,0-1.4,0
			c-0.1,0-0.1,0-0.1-0.2c0-0.1,0-0.2,0.1-0.2c0.4,0,0.8,0,0.9-0.1s0.3-0.3,0.3-0.5c0-0.3-0.2-0.8-0.5-1.5l-2.6-5.5h-4.5l-1.8,4.2
			c-0.2,0.5-0.3,1-0.3,1.5c0,0.6,0.2,1.1,0.6,1.5s1,0.5,1.7,0.5c0.1,0,0.1,0,0.1,0.2c0,0.1,0,0.2-0.1,0.2c-0.3,0-0.7,0-1.3,0
			c-0.6,0-1.2,0-1.6,0c-0.5,0-1,0-1.6,0s-1,0-1.4,0c-0.1,0-0.1,0-0.1-0.2c0-0.1,0-0.2,0.1-0.2c0.5,0,0.9-0.1,1.2-0.3s0.6-0.6,1-1.1
			s0.7-1.3,1.1-2.4l5.4-12.8c0,0,0.1-0.1,0.2-0.1s0.2,0,0.2,0.1l6.3,13.2c0.6,1.3,1.1,2.1,1.5,2.6s0.8,0.7,1.2,0.7
			C295.8,158.1,295.8,158.1,295.8,158.2z M283.7,149.6h3.8l-2-4.2L283.7,149.6z"/>
		<path class="st5" d="M308.9,156.1c0,0.5,0,0.8,0.1,1s0.2,0.3,0.4,0.4s0.5,0.1,0.9,0.1h0.9c1.3,0,2.4-0.4,3.4-1.1s1.6-1.8,1.9-3
			c0,0,0,0,0.1,0h0.1c0,0,0.1,0,0.1,0.1c-0.1,1.8-0.2,3.2-0.2,4.4c0,0.1,0,0.2-0.1,0.3s-0.2,0.1-0.3,0.1h-11.8c0,0,0,0,0-0.2
			c0-0.1,0-0.2,0-0.2c0.5,0,0.9,0,1.2-0.1c0.2-0.1,0.4-0.3,0.5-0.5c0.1-0.3,0.1-0.7,0.1-1.2v-12.4c0-0.5,0-0.9-0.1-1.2
			s-0.3-0.4-0.5-0.5s-0.6-0.1-1.1-0.1c0,0,0,0,0-0.2s0-0.2,0-0.2h1.3c0.8,0,1.4,0,1.9,0s1.1,0,1.9,0h1.3c0,0,0.1,0,0.1,0.2
			s0,0.2-0.1,0.2c-0.5,0-0.9,0-1.1,0.1s-0.4,0.3-0.5,0.5s-0.1,0.7-0.1,1.2L308.9,156.1L308.9,156.1z"/>
		<path class="st5" d="M343.2,158.2c0,0.1,0,0.2-0.1,0.2c-0.3,0-0.9,0-1.5,0c-0.7,0-1.3,0-1.6,0c-0.4,0-0.9,0-1.5,0s-1,0-1.4,0
			c-0.1,0-0.1,0-0.1-0.2c0-0.1,0-0.2,0.1-0.2c0.4,0,0.8,0,0.9-0.1s0.3-0.3,0.3-0.5c0-0.3-0.2-0.8-0.5-1.5l-2.6-5.5h-4.5l-1.8,4.2
			c-0.2,0.5-0.3,1-0.3,1.5c0,0.6,0.2,1.1,0.6,1.5s1,0.5,1.7,0.5c0.1,0,0.1,0,0.1,0.2c0,0.1,0,0.2-0.1,0.2c-0.3,0-0.7,0-1.3,0
			c-0.6,0-1.2,0-1.6,0c-0.5,0-1,0-1.6,0s-1,0-1.4,0c-0.1,0-0.1,0-0.1-0.2c0-0.1,0-0.2,0.1-0.2c0.5,0,0.9-0.1,1.2-0.3s0.6-0.6,1-1.1
			s0.7-1.3,1.1-2.4l5.4-12.8c0,0,0.1-0.1,0.2-0.1s0.2,0,0.2,0.1l6.3,13.2c0.6,1.3,1.1,2.1,1.5,2.6s0.8,0.7,1.2,0.7
			C343.1,158.1,343.2,158.1,343.2,158.2z M331,149.6h3.8l-2-4.2L331,149.6z"/>
		<path class="st5" d="M356.3,157.6c-1.4-0.8-2.4-1.8-3.1-3.1c-0.7-1.3-1.1-2.7-1.1-4.3c0-1.7,0.4-3.2,1.2-4.6s2-2.4,3.4-3.1
			c1.5-0.7,3.1-1.1,4.9-1.1c0.8,0,1.6,0.1,2.4,0.2s1.5,0.3,1.9,0.5c0.1,0,0.2,0.1,0.3,0.2c0,0.1,0.1,0.2,0.1,0.4l0.3,3.7
			c0,0,0,0.1-0.1,0.1s-0.1,0-0.2-0.1c-0.6-1.4-1.4-2.5-2.4-3.2s-2.2-1.1-3.5-1.1c-1.7,0-3,0.6-3.9,1.9s-1.3,3-1.3,5.2
			c0,1.8,0.3,3.4,0.9,4.7s1.4,2.5,2.4,3.2s2.1,1.1,3.4,1.1c0.7,0,1.2-0.1,1.6-0.2s0.6-0.5,0.8-0.9c0.2-0.5,0.2-1.1,0.2-2.1
			c0-0.9,0-1.6-0.1-1.9c-0.1-0.4-0.3-0.6-0.6-0.7c-0.3-0.1-0.9-0.2-1.7-0.2c-0.1,0-0.1-0.1-0.1-0.2v-0.1c0,0,0-0.1,0.1-0.1
			c1.4,0.1,2.6,0.1,3.4,0.1c0.9,0,1.7,0,2.7-0.1c0,0,0.1,0,0.1,0.1v0.1c0,0.1,0,0.2-0.1,0.2c-0.3,0-0.5,0-0.6,0.2s-0.2,0.4-0.2,0.8
			s0,1.1,0,2.2c0,0.8,0,1.4,0.1,1.7s0.1,0.5,0.1,0.6s0,0.2-0.1,0.2c0,0-0.1,0.1-0.2,0.1c-2.2,0.5-4.1,0.8-5.8,0.8
			C359.3,158.7,357.7,158.4,356.3,157.6z"/>
		<path class="st5" d="M394.9,158.2c0,0.1,0,0.2-0.1,0.2c-0.3,0-0.8,0-1.5,0s-1.3,0-1.6,0c-0.4,0-0.9,0-1.5,0s-1,0-1.3,0
			c-0.1,0-0.1,0-0.1-0.2c0-0.1,0-0.2,0.1-0.2c0.4,0,0.8,0,0.9-0.1s0.3-0.3,0.3-0.5c0-0.3-0.2-0.8-0.5-1.5l-2.6-5.5h-4.5l-1.8,4.2
			c-0.2,0.5-0.3,1-0.3,1.5c0,0.6,0.2,1.1,0.6,1.5s1,0.5,1.7,0.5c0.1,0,0.1,0,0.1,0.2c0,0.1,0,0.2-0.1,0.2c-0.3,0-0.7,0-1.3,0
			s-1.2,0-1.6,0c-0.5,0-1,0-1.6,0s-1,0-1.4,0c-0.1,0-0.1,0-0.1-0.2c0-0.1,0-0.2,0.1-0.2c0.5,0,0.9-0.1,1.2-0.3s0.6-0.6,1-1.1
			s0.7-1.3,1.1-2.4l5.4-12.8c0,0,0.1-0.1,0.2-0.1c0.1,0,0.2,0,0.2,0.1l6.3,13.2c0.6,1.3,1.1,2.1,1.5,2.6s0.8,0.7,1.2,0.7
			C394.9,158.1,394.9,158.1,394.9,158.2z M382.7,149.6h3.8l-2-4.2L382.7,149.6z"/>
	</g>
</g>
</svg>
