<svg width="674" height="689" viewBox="0 0 674 689" fill="none" xmlns="http://www.w3.org/2000/svg">
<path d="M465.276 441.046C504.671 372.812 521.548 300.215 517.009 238.015C512.47 175.812 486.524 124.063 440.334 97.3954C394.143 70.7273 336.355 74.1317 280.216 101.302C224.08 128.472 169.648 179.386 130.253 247.62C90.8575 315.855 73.9809 388.451 78.5194 450.651C83.0582 512.854 109.004 564.603 155.195 591.271C201.385 617.939 259.174 614.534 315.312 587.364C371.448 560.194 425.881 509.28 465.276 441.046Z" stroke="#FFB4B7"/>
<path d="M530.174 441.046C569.569 372.812 586.446 300.215 581.907 238.015C577.369 175.812 551.423 124.063 505.232 97.3954C459.042 70.7273 401.253 74.1317 345.114 101.302C288.979 128.472 234.546 179.386 195.151 247.62C155.756 315.855 138.879 388.451 143.418 450.651C147.957 512.854 173.903 564.603 220.093 591.271C266.284 617.939 324.072 614.534 380.211 587.364C436.347 560.194 490.779 509.28 530.174 441.046Z" stroke="#FFB4B7"/>
<path d="M398.08 82.7766L398.336 82.9969L398.227 83.3163L395.68 90.8029L400.844 84.8139L401.064 84.5584L401.384 84.6671L408.87 87.2138L402.881 82.0498L402.626 81.8295L402.735 81.5101L405.281 74.0235L400.117 80.0125L399.897 80.268L399.578 80.1594L392.091 77.6126L398.08 82.7766Z" fill="#FFB4B7" stroke="#FFB4B7"/>
</svg>
