<svg width="484" height="651" viewBox="0 0 484 651" fill="none" xmlns="http://www.w3.org/2000/svg">
<path d="M143.51 377.045C104.091 301.759 79.4815 227.825 71.5474 169.161C67.5801 139.827 67.7861 114.34 72.3757 94.4198C76.9658 74.4979 85.9223 60.2117 99.4027 53.1534C112.883 46.0951 129.727 46.8725 148.715 54.449C167.701 62.0246 188.766 76.375 210.615 96.3464C254.309 136.286 301.054 198.63 340.473 273.916C379.893 349.202 404.502 423.136 412.436 481.8C416.404 511.134 416.197 536.622 411.608 556.541C407.018 576.463 398.061 590.749 384.581 597.808C371.1 604.866 354.257 604.089 335.269 596.512C316.283 588.936 295.217 574.586 273.369 554.615C229.674 514.675 182.929 452.331 143.51 377.045Z" stroke="#FFB4B7"/>
<path d="M143.448 376.959L143.784 376.982L143.932 376.679L147.345 369.678L146.801 377.448L146.777 377.785L147.081 377.932L154.082 381.346L146.312 380.801L145.975 380.778L145.827 381.081L142.414 388.082L142.959 380.312L142.982 379.976L142.679 379.828L135.678 376.414L143.448 376.959Z" fill="#FFB4B7" stroke="#FFB4B7"/>
</svg>
