<svg width="275" height="689" viewBox="0 0 275 689" fill="none" xmlns="http://www.w3.org/2000/svg">
<path d="M-95.6024 224.805C-2.14508 226.547 80.5313 242.964 138.649 268.081C167.709 280.64 190.605 295.364 205.643 311.496C220.679 327.626 227.827 345.127 225.493 363.259C223.159 381.392 211.55 398.543 192.442 414.038C173.334 429.533 146.765 443.335 114.618 454.754C50.3276 477.59 -36.1697 490.855 -129.627 489.114C-223.084 487.372 -305.761 470.955 -363.878 445.838C-392.939 433.279 -415.835 418.555 -430.872 402.423C-445.909 386.293 -453.057 368.792 -450.723 350.659C-448.389 332.527 -436.78 315.376 -417.672 299.881C-398.563 284.386 -371.995 270.584 -339.848 259.165C-275.557 236.329 -189.06 223.064 -95.6024 224.805Z" stroke="#FFB4B7"/>
<path d="M52.0446 247.121C113.395 315.159 158.349 387.674 181.446 449.898C192.995 481.012 199.069 509.527 199.012 533.609C198.955 557.688 192.77 577.29 179.846 590.66C166.922 604.029 148.417 609.968 125.946 609.191C103.474 608.415 77.0788 600.92 48.4496 587.475C-8.80665 560.587 -74.9051 509.944 -136.255 441.906C-197.605 373.869 -242.56 301.353 -265.656 239.129C-277.205 208.016 -283.28 179.501 -283.223 155.419C-283.166 131.339 -276.981 111.738 -264.056 98.3683C-251.132 84.999 -232.627 79.0599 -210.157 79.8365C-187.685 80.6132 -161.289 88.1077 -132.66 101.552C-75.4039 128.44 -9.30542 179.084 52.0446 247.121Z" stroke="#FFB4B7"/>
<path d="M174.791 426.862L174.682 427.181L174.936 427.402L180.397 432.148L173.557 429.791L173.238 429.682L173.016 429.936L168.271 435.397L170.627 428.557L170.737 428.238L170.482 428.016L165.021 423.271L171.862 425.627L172.181 425.737L172.402 425.482L177.148 420.021L174.791 426.862Z" fill="#FFB4B7" stroke="#FFB4B7"/>
</svg>
