<svg width="10" height="12" viewBox="0 0 10 12" fill="none" xmlns="http://www.w3.org/2000/svg">
<path d="M4.75793 5.96207C5.08504 5.96207 5.36516 5.8455 5.5983 5.61236C5.83105 5.37961 5.94742 5.09969 5.94742 4.77258C5.94742 4.44547 5.83105 4.16535 5.5983 3.93221C5.36516 3.69947 5.08504 3.5831 4.75793 3.5831C4.43083 3.5831 4.1509 3.69947 3.91816 3.93221C3.68502 4.16535 3.56845 4.44547 3.56845 4.77258C3.56845 5.09969 3.68502 5.37961 3.91816 5.61236C4.1509 5.8455 4.43083 5.96207 4.75793 5.96207ZM4.75793 10.3334C5.96724 9.22323 6.86431 8.21455 7.44914 7.30737C8.03397 6.40059 8.32638 5.59531 8.32638 4.89153C8.32638 3.81108 7.98183 2.92631 7.29272 2.2372C6.60401 1.54849 5.75908 1.20413 4.75793 1.20413C3.75679 1.20413 2.91166 1.54849 2.22255 2.2372C1.53384 2.92631 1.18948 3.81108 1.18948 4.89153C1.18948 5.59531 1.4819 6.40059 2.06673 7.30737C2.65156 8.21455 3.54863 9.22323 4.75793 10.3334ZM4.75793 11.6865C4.67863 11.6865 4.59934 11.6716 4.52004 11.6418C4.44074 11.6121 4.37135 11.5725 4.31188 11.5229C2.86467 10.2442 1.78423 9.0573 1.07054 7.96218C0.356845 6.86667 0 5.84312 0 4.89153C0 3.40468 0.478371 2.22015 1.43511 1.33795C2.39146 0.455748 3.49906 0.0146484 4.75793 0.0146484C6.0168 0.0146484 7.12441 0.455748 8.08076 1.33795C9.0375 2.22015 9.51587 3.40468 9.51587 4.89153C9.51587 5.84312 9.15902 6.86667 8.44533 7.96218C7.73164 9.0573 6.65119 10.2442 5.20399 11.5229C5.14452 11.5725 5.07513 11.6121 4.99583 11.6418C4.91653 11.6716 4.83723 11.6865 4.75793 11.6865Z" fill="#FFA52D"/>
</svg>
