<svg width="165" height="541" viewBox="0 0 165 541" fill="none" xmlns="http://www.w3.org/2000/svg">
<path d="M-47.767 173.229C10.7821 211.911 58.0647 255.554 87.1847 294.831C101.746 314.471 111.749 332.996 116.361 349.245C120.973 365.496 120.176 379.404 113.245 389.896C106.314 400.387 93.8327 406.576 77.075 408.708C60.3194 410.841 39.3549 408.907 15.577 403.217C-31.9744 391.839 -90.6678 365.467 -149.217 326.786C-207.766 288.104 -255.049 244.461 -284.169 205.184C-298.73 185.544 -308.733 167.019 -313.345 150.77C-317.957 134.519 -317.16 120.611 -310.229 110.119C-303.297 99.6282 -290.817 93.4394 -274.059 91.3067C-257.303 89.1742 -236.339 91.1081 -212.561 96.7978C-165.009 108.176 -106.316 134.548 -47.767 173.229Z" stroke="#FFB4B7"/>
<path d="M38.741 246.659C56.9031 314.441 63.3425 378.463 59.0857 427.172C56.9571 451.528 52.1563 472.027 44.8302 487.246C37.5033 502.467 27.6824 512.348 15.5368 515.602C3.39115 518.856 -10.0542 515.21 -24.0101 505.692C-37.9643 496.174 -52.3714 480.822 -66.3929 460.793C-94.4335 420.739 -120.868 362.074 -139.03 294.292C-157.192 226.51 -163.632 162.487 -159.375 113.779C-157.246 89.423 -152.446 68.9241 -145.12 53.7048C-137.793 38.4836 -127.972 28.6031 -115.826 25.3487C-103.681 22.0943 -90.2352 25.7406 -76.2793 35.2591C-62.3251 44.7764 -47.918 60.1285 -33.8965 80.1573C-5.8559 120.211 20.5788 178.877 38.741 246.659Z" stroke="#FFB4B7"/>
<path d="M39.0118 238.688L39.012 239.026L39.3249 239.152L43.9802 241.028L38.9612 241.031L38.6238 241.031L38.4977 241.344L36.6218 245.999L36.6188 240.98L36.6186 240.643L36.3056 240.517L31.6504 238.641L36.6694 238.638L37.0068 238.638L37.1328 238.325L39.0087 233.669L39.0118 238.688Z" fill="#FFB4B7" stroke="#FFB4B7"/>
<path d="M47.0163 258.826L46.8984 259.142L47.1474 259.37L48.2865 260.411L46.8405 259.872L46.5244 259.754L46.2968 260.003L45.2556 261.142L45.7947 259.696L45.9126 259.38L45.6635 259.153L44.5245 258.111L45.9705 258.651L46.2866 258.768L46.5142 258.519L47.5554 257.38L47.0163 258.826Z" fill="#FFB4B7" stroke="#FFB4B7"/>
</svg>
