<svg width="400" height="490" viewBox="0 0 400 490" fill="none" xmlns="http://www.w3.org/2000/svg">
<path d="M143.316 234.213C182.76 198.029 224.82 172.228 260.921 159.753C278.972 153.516 295.509 150.618 309.472 151.403C323.432 152.187 334.784 156.649 342.534 165.097C350.284 173.546 353.753 185.24 353.333 199.215C352.914 213.194 348.604 229.42 340.836 246.868C325.302 281.761 295.978 321.446 256.534 357.631C217.09 393.815 175.029 419.616 138.929 432.09C120.878 438.328 104.34 441.226 90.3776 440.441C76.418 439.656 65.0657 435.195 57.3157 426.746C49.5656 418.298 46.0971 406.604 46.5164 392.629C46.9358 378.65 51.2457 362.424 59.0133 344.976C74.5479 310.083 103.872 270.398 143.316 234.213Z" stroke="#FFB4B7"/>
<path d="M71.3457 212.206C83.5575 153.958 106.147 103.668 132.775 69.4447C159.425 35.1926 190.003 17.1681 218.206 23.0808C246.409 28.9936 267.173 57.7821 277.821 99.854C288.461 141.89 288.949 197.019 276.738 255.267C264.526 313.515 241.936 363.806 215.309 398.029C188.658 432.281 158.08 450.306 129.877 444.393C101.674 438.48 80.9106 409.692 70.2618 367.62C59.6221 325.584 59.1338 270.455 71.3457 212.206Z" stroke="#FFB4B7"/>
<path d="M278.246 146.458L286.418 150.2L292.948 144.023L289.205 152.195L295.383 158.725L287.21 154.982L280.681 161.16L284.423 152.987L278.246 146.458Z" fill="#FFB4B7"/>
<path d="M304.093 172.27L308.761 173.673L311.81 169.87L310.406 174.538L314.209 177.587L309.541 176.183L306.493 179.986L307.896 175.319L304.093 172.27Z" fill="#FFB4B7"/>
</svg>
