<svg width="606" height="709" viewBox="0 0 606 709" fill="none" xmlns="http://www.w3.org/2000/svg">
<path d="M470.67 262.408C428.981 190.201 373.358 135.18 317.152 104.584C260.938 73.9836 204.222 67.8503 160.248 93.2387C116.274 118.627 93.2273 170.811 91.6211 234.795C90.0152 298.768 109.853 374.449 151.542 446.657C193.231 518.864 248.854 573.885 305.059 604.481C361.274 635.082 417.99 641.215 461.964 615.826C505.938 590.438 528.984 538.254 530.591 474.27C532.196 410.297 512.359 334.616 470.67 262.408Z" stroke="#FFB4B7"/>
<path d="M460.529 616.83L460.86 616.894L460.924 617.225L461.877 622.131L462.83 617.225L462.894 616.894L463.225 616.83L468.131 615.877L463.225 614.924L462.894 614.86L462.83 614.529L461.877 609.622L460.924 614.529L460.86 614.86L460.529 614.924L455.622 615.877L460.529 616.83Z" fill="#FFB4B7" stroke="#FFB4B7"/>
</svg>
