<svg width="436" height="581" viewBox="0 0 436 581" fill="none" xmlns="http://www.w3.org/2000/svg">
<path d="M129.381 242.204C164.746 175.62 207.016 120.81 246.752 86.0165C266.621 68.6186 285.836 56.2438 303.218 49.8933C320.6 43.5428 336.094 43.2343 348.592 49.8723C361.09 56.5104 369.51 69.5206 373.981 87.4785C378.453 105.436 378.958 128.285 375.669 154.489C369.091 206.894 347.347 272.606 311.981 339.19C276.616 405.774 234.346 460.584 194.61 495.377C174.741 512.775 155.526 525.15 138.144 531.501C120.762 537.851 105.268 538.16 92.7699 531.521C80.2722 524.883 71.8521 511.873 67.3808 493.915C62.9096 475.958 62.4037 453.108 65.6931 426.904C72.2716 374.5 94.0152 308.788 129.381 242.204Z" stroke="#FFB4B7"/>
<path d="M340.61 43.257L340.586 43.5936L340.889 43.7417L347.887 47.162L340.118 46.6099L339.781 46.5859L339.633 46.889L336.213 53.887L336.765 46.1175L336.789 45.781L336.486 45.6329L329.488 42.2126L337.257 42.7647L337.594 42.7886L337.742 42.4855L341.162 35.4876L340.61 43.257Z" fill="#FFB4B7" stroke="#FFB4B7"/>
</svg>
